<svg width="371" height="306" viewBox="0 0 371 306" fill="none" xmlns="http://www.w3.org/2000/svg">
<g clip-path="url(#clip0_179_5504)">
<mask id="mask0_179_5504" style="mask-type:luminance" maskUnits="userSpaceOnUse" x="0" y="0" width="380" height="306">
<path d="M380 0H0V306H380V0Z" fill="white"/>
</mask>
<g mask="url(#mask0_179_5504)">
<path d="M235.784 263.991C273.547 263.991 304.159 259.426 304.159 253.795C304.159 248.164 273.547 243.6 235.784 243.6C198.022 243.6 167.409 248.164 167.409 253.795C167.409 259.426 198.022 263.991 235.784 263.991Z" fill="#F0F2F5"/>
</g>
<mask id="mask1_179_5504" style="mask-type:luminance" maskUnits="userSpaceOnUse" x="0" y="0" width="380" height="306">
<path d="M380 0H0V306H380V0Z" fill="white"/>
</mask>
<g mask="url(#mask1_179_5504)">
<path d="M85.9314 94.769H62.2193L45.4522 111.486V135.127L62.2193 151.843H85.9314L102.699 135.127V111.486L85.9314 94.769Z" fill="#F0F2F5"/>
<path d="M77.1812 151.843H72.3095V242.275H77.1812V151.843Z" fill="#F0F2F5"/>
<path d="M53.2314 129.449V126.363L60.3206 116.253H64.6054V126.139H66.4449V129.449H64.6054V132.357H60.7693V129.449H53.2314V129.449ZM61.0384 120.458L57.2694 126.139H61.0384V120.458Z" fill="white"/>
<path d="M69.8208 117.908C70.8153 116.432 72.4192 115.694 74.6329 115.694C76.8461 115.694 78.45 116.432 79.4448 117.908C80.4394 119.384 80.9368 121.405 80.9368 123.969C80.9368 126.564 80.4394 128.599 79.4448 130.075C78.45 131.552 76.8461 132.29 74.6329 132.29C72.4192 132.29 70.8152 131.552 69.8208 130.075C68.826 128.599 68.329 126.564 68.329 123.969C68.329 121.405 68.8262 119.384 69.8208 117.908ZM76.6745 120.491C76.3454 119.679 75.665 119.272 74.633 119.272C73.601 119.272 72.9202 119.679 72.5914 120.491C72.2624 121.304 72.098 122.464 72.098 123.969C72.098 124.984 72.1575 125.822 72.2773 126.486C72.3969 127.149 72.6399 127.686 73.0065 128.096C73.3727 128.506 73.9151 128.711 74.633 128.711C75.3509 128.711 75.8929 128.506 76.2596 128.096C76.6258 127.686 76.8687 127.149 76.9886 126.486C77.1081 125.822 77.1681 124.984 77.1681 123.969C77.1681 122.464 77.0033 121.304 76.6745 120.491Z" fill="white"/>
<path d="M83.0456 129.449V126.363L90.1348 116.253H94.4198V126.139H96.2593V129.449H94.4198V132.357H90.5834V129.449H83.0456V129.449ZM90.8526 120.458L87.0836 126.139H90.8526V120.458Z" fill="white"/>
<path d="M72.3095 151.843H77.1812V153.637L72.3095 151.843Z" fill="#E1E6EB"/>
</g>
<mask id="mask2_179_5504" style="mask-type:luminance" maskUnits="userSpaceOnUse" x="0" y="0" width="380" height="306">
<path d="M380 0H0V306H380V0Z" fill="white"/>
</mask>
<g mask="url(#mask2_179_5504)">
<path d="M319.956 94.5947C318.833 97.7545 316.742 100.379 313.963 102.389C306.203 100.55 297.35 97.9381 288.079 94.6617C278.807 91.3853 270.281 87.8554 263.091 84.411C262.202 81.1052 262.236 77.7536 263.36 74.5938C264.267 72.0406 265.806 69.8346 267.833 68.0215C274.596 61.9589 286.765 60.2638 298.796 64.5156C310.828 68.7674 319.21 77.725 320.633 86.6805C321.062 89.3616 320.864 92.0416 319.956 94.5947Z" fill="#E1E6EB"/>
<path d="M342.06 103.228C340.834 106.675 329.622 106.104 313.963 102.389C306.202 100.55 297.35 97.9382 288.078 94.6618C278.807 91.3854 270.281 87.8555 263.091 84.4111C248.581 77.464 239.511 70.8681 240.736 67.421C241.937 64.0436 252.698 64.5194 267.833 68.0215C275.829 69.8711 285.046 72.5663 294.719 75.9844C304.391 79.4026 313.253 83.0965 320.633 86.6805C334.601 93.4635 343.261 99.8507 342.06 103.228Z" fill="#F0F2F5"/>
<path d="M311.321 98.3501C310.793 99.8344 305.966 99.5882 299.223 97.9887C295.882 97.1969 292.07 96.0725 288.078 94.6618C284.087 93.2511 280.415 91.7312 277.32 90.2483C271.072 87.257 267.167 84.4171 267.695 82.9328C268.211 81.4787 272.845 81.6835 279.361 83.1915C282.804 83.9879 286.773 85.1484 290.938 86.6201C295.102 88.0918 298.918 89.6823 302.095 91.2256C308.11 94.1458 311.838 96.8959 311.321 98.3501Z" fill="#E1E6EB"/>
<path d="M241.04 69.5545C242.074 69.1061 243.201 68.9345 244.315 68.8207C245.435 68.72 246.56 68.6981 247.683 68.7266C249.931 68.7827 252.171 69.0047 254.398 69.2983C258.853 69.9014 263.263 70.7989 267.635 71.8313C272.008 72.866 276.345 74.0495 280.649 75.3392C284.953 76.6301 289.224 78.0291 293.462 79.52C297.696 81.0225 301.897 82.6179 306.055 84.3175C310.213 86.0182 314.33 87.8218 318.38 89.7641C322.429 91.7076 326.421 93.7794 330.262 96.1079C332.178 97.2785 334.058 98.5126 335.839 99.8801C336.73 100.563 337.59 101.287 338.396 102.068C339.189 102.856 339.957 103.697 340.477 104.695C339.951 103.7 339.181 102.864 338.384 102.081C337.574 101.305 336.711 100.586 335.817 99.9084C334.031 98.5515 332.145 97.3284 330.225 96.1688C326.381 93.8508 322.388 91.7863 318.338 89.8515C314.286 87.9177 310.169 86.1222 306.009 84.43C301.85 82.7386 297.648 81.1523 293.413 79.6572C289.18 78.1592 284.913 76.7531 280.614 75.4551C276.314 74.1581 271.982 72.9673 267.613 71.9253C263.244 70.8849 258.839 69.9819 254.389 69.3686C252.164 69.0634 249.928 68.8299 247.683 68.762C246.56 68.7276 245.436 68.7436 244.317 68.8383C243.203 68.9463 242.076 69.1117 241.04 69.5545Z" fill="#E1E6EB"/>
<path d="M300.237 60.2007L298.718 64.4788L298.856 64.5275L300.375 60.2494L300.237 60.2007Z" fill="#E1E6EB"/>
<path d="M300.829 62.0818C301.851 61.8044 302.454 60.7538 302.176 59.7351C301.898 58.7164 300.844 58.1154 299.822 58.3927C298.8 58.6701 298.197 59.7207 298.476 60.7394C298.754 61.7581 299.808 62.3591 300.829 62.0818Z" fill="#F0F2F5"/>
<path d="M296.063 93.8005C296.232 93.3238 293.316 91.8582 289.548 90.527C285.781 89.1957 282.59 88.5027 282.42 88.9794L249.013 163.636L269.897 192.446L296.063 93.8005Z" fill="#F0F2F5"/>
</g>
<mask id="mask3_179_5504" style="mask-type:luminance" maskUnits="userSpaceOnUse" x="0" y="0" width="380" height="306">
<path d="M380 0H0V306H380V0Z" fill="white"/>
</mask>
<g mask="url(#mask3_179_5504)">
<path d="M94.0406 65.4257C95.4946 65.4257 96.6732 66.6008 96.6732 68.0503V73.0655C96.6732 74.5151 95.4946 75.6901 94.0406 75.6901C92.5867 75.6901 91.4081 74.5151 91.4081 73.0655V68.0503C91.4081 66.6009 92.5869 65.4257 94.0406 65.4257Z" fill="#F0F2F5"/>
<path d="M80.7304 54.7802C82.1844 54.7802 83.3629 55.9552 83.3629 57.4048V73.0657C83.3629 74.5153 82.1844 75.6903 80.7304 75.6903C79.2765 75.6903 78.0979 74.5153 78.0979 73.0657V57.4046C78.098 55.9552 79.2766 54.7802 80.7304 54.7802Z" fill="#F0F2F5"/>
<path d="M67.4203 58.5992C68.8743 58.5992 70.0529 59.7742 70.0529 61.2238V73.0657C70.0529 74.5153 68.8743 75.6903 67.4203 75.6903C65.9664 75.6903 64.7878 74.5153 64.7878 73.0657V61.2238C64.7878 59.7742 65.9664 58.5992 67.4203 58.5992Z" fill="#F0F2F5"/>
<path d="M54.1101 48.5488C55.564 48.5488 56.7426 49.7239 56.7426 51.1734V73.0657C56.7426 74.5153 55.564 75.6903 54.1101 75.6903C52.6562 75.6903 51.4776 74.5153 51.4776 73.0657V51.1734C51.4776 49.7239 52.6562 48.5488 54.1101 48.5488Z" fill="#F0F2F5"/>
</g>
<path d="M260.856 19.7429V214.563C260.856 223.385 253.683 230.537 244.835 230.537H136.022C127.174 230.537 120 223.384 120 214.563V19.7429C120 10.9216 127.174 3.76953 136.022 3.76953H244.834C253.682 3.76953 260.856 10.9217 260.856 19.7429Z" fill="white"/>
<path d="M244.835 4.63347C253.191 4.63347 259.99 11.4116 259.99 19.7429V214.563C259.99 222.895 253.191 229.673 244.835 229.673H136.022C127.665 229.673 120.867 222.895 120.867 214.563V19.7429C120.867 11.4114 127.665 4.63347 136.022 4.63347H244.835ZM244.835 3.76953H136.022C127.174 3.76953 120 10.9216 120 19.7429V214.563C120 223.385 127.174 230.537 136.022 230.537H244.834C253.682 230.537 260.856 223.385 260.856 214.563V19.7429C260.856 10.9217 253.682 3.76953 244.835 3.76953Z" fill="#09B782"/>
<path d="M260.856 19.7429V26.3689H120V19.7429C120 10.9216 127.174 3.76953 136.022 3.76953H244.834C253.682 3.76953 260.856 10.9217 260.856 19.7429Z" fill="#09B782"/>
<path d="M260.856 207.937V214.563C260.856 223.385 253.683 230.537 244.835 230.537H136.022C127.174 230.537 120 223.384 120 214.563V207.937H260.856Z" fill="#09B782"/>
<path d="M203.485 18.3448H177.371C175.556 18.3448 174.085 16.8784 174.085 15.0693C174.085 13.2602 175.556 11.7938 177.371 11.7938H203.485C205.3 11.7938 206.771 13.2602 206.771 15.0693C206.771 16.8784 205.3 18.3448 203.485 18.3448Z" fill="white"/>
<path d="M223.233 90.5249H157.725C144.313 90.5249 133.441 79.6855 133.441 66.3145C133.441 52.9433 144.313 42.104 157.725 42.104H223.232C236.644 42.104 247.516 52.9435 247.516 66.3145C247.516 79.6855 236.644 90.5249 223.233 90.5249Z" fill="#F0F2F5"/>
<path d="M166.198 75.6923C171.393 70.5133 171.393 62.1165 166.198 56.9375C161.004 51.7585 152.581 51.7585 147.387 56.9375C142.192 62.1165 142.192 70.5133 147.387 75.6923C152.581 80.8713 161.004 80.8713 166.198 75.6923Z" fill="#1F4168"/>
<path d="M218.862 67.5195H215.961V65.1093H218.862V67.5195ZM213.06 67.5195H210.159V65.1093H213.06V67.5195ZM207.258 67.5195H204.357V65.1093H207.258V67.5195ZM201.456 67.5195H198.555V65.1093H201.456V67.5195ZM195.655 67.5195H192.754V65.1093H195.655V67.5195ZM189.853 67.5195H186.952V65.1093H189.853V67.5195ZM184.051 67.5195H181.15V65.1093H184.051V67.5195ZM178.249 67.5195H175.348V65.1093H178.249V67.5195Z" fill="#1F4168"/>
<path d="M224.437 61.8398L225.988 60.2042C226.437 59.7318 227.184 59.7111 227.658 60.1579L230.698 63.0251L233.574 59.9936C234.022 59.5212 234.77 59.5004 235.244 59.9473L236.884 61.4942C237.358 61.9411 237.379 62.6861 236.931 63.1585L234.055 66.1901L237.095 69.0573C237.569 69.5041 237.59 70.2492 237.142 70.7216L235.59 72.3572C235.142 72.8296 234.395 72.8503 233.921 72.4035L230.88 69.5363L228.004 72.5678C227.556 73.0402 226.809 73.061 226.335 72.6141L224.694 71.0672C224.221 70.6203 224.2 69.8753 224.648 69.4029L227.524 66.3713L224.483 63.5041C224.009 63.0573 223.989 62.312 224.437 61.8398Z" fill="#1F4168"/>
<path d="M163.743 64.9785C163.567 64.9785 163.391 64.9154 163.251 64.7876C161.486 63.1729 159.193 62.2835 156.795 62.2835C154.397 62.2835 152.103 63.1728 150.337 64.7877C150.041 65.0586 149.581 65.0388 149.309 64.7435C149.037 64.4482 149.057 63.9891 149.353 63.7182C151.388 61.8571 154.031 60.8321 156.795 60.8321C159.559 60.8321 162.201 61.8571 164.236 63.7182C164.532 63.9891 164.551 64.4482 164.28 64.7435C164.136 64.8993 163.94 64.9785 163.743 64.9785Z" fill="white"/>
<path d="M161.942 67.585C161.751 67.585 161.561 67.5109 161.418 67.3631C160.196 66.1004 158.554 65.4051 156.795 65.4051C155.035 65.4051 153.393 66.1002 152.171 67.3624C151.892 67.651 151.431 67.6591 151.142 67.3808C150.853 67.1024 150.844 66.6431 151.124 66.3547C152.622 64.8066 154.636 63.9539 156.795 63.9539C158.953 63.9539 160.967 64.8067 162.466 66.3556C162.745 66.644 162.737 67.1034 162.447 67.3816C162.306 67.5174 162.124 67.585 161.942 67.585Z" fill="white"/>
<path d="M160.1 70.2504C159.87 70.2504 159.643 70.1417 159.502 69.9388C158.885 69.0547 157.874 68.527 156.795 68.527C155.717 68.527 154.704 69.0547 154.087 69.9387C153.857 70.2675 153.404 70.3485 153.074 70.1196C152.744 69.8906 152.663 69.4383 152.892 69.1095C153.782 67.836 155.24 67.0757 156.795 67.0757C158.35 67.0757 159.809 67.8365 160.697 69.1107C160.926 69.4398 160.845 69.892 160.515 70.1208C160.388 70.2082 160.243 70.2504 160.1 70.2504Z" fill="white"/>
<path d="M156.794 73.5301C157.746 73.5301 158.516 72.7614 158.516 71.8133C158.516 70.8651 157.746 70.0964 156.794 70.0964C155.843 70.0964 155.073 70.8651 155.073 71.8133C155.073 72.7614 155.843 73.5301 156.794 73.5301Z" fill="white"/>
<path d="M158.007 242.276L143.705 169.894H94.5627L108.864 242.276H117.342L118.201 230.585H145.333L150.538 242.276H158.007Z" fill="#606060"/>
<path d="M80.2635 242.276L94.5649 169.894H143.707L129.406 242.276H120.928L120.069 230.585H92.9367L87.7326 242.276H80.2635Z" fill="#929292"/>
<path d="M119.761 180.835H110.746C109.857 180.835 109.136 180.116 109.136 179.23C109.136 178.343 109.857 177.625 110.746 177.625H119.761C120.651 177.625 121.371 178.343 121.371 179.23C121.371 180.116 120.651 180.835 119.761 180.835Z" fill="white"/>
<path d="M85.4588 215.981H134.601L139.12 192.893H90.0207L85.4588 215.981Z" fill="url(#paint0_linear_179_5504)"/>
<path d="M106.182 200.419L107.851 198.939C108.333 198.511 109.013 198.492 109.369 198.897L111.656 201.491L114.75 198.748C115.232 198.321 115.911 198.302 116.268 198.706L117.501 200.106C117.858 200.51 117.756 201.184 117.274 201.612L114.18 204.355L116.467 206.949C116.823 207.353 116.721 208.028 116.239 208.455L114.57 209.935C114.088 210.363 113.408 210.381 113.052 209.977L110.765 207.383L107.672 210.126C107.19 210.553 106.51 210.572 106.154 210.168L104.92 208.768C104.564 208.364 104.666 207.69 105.148 207.262L108.241 204.519L105.955 201.925C105.598 201.52 105.7 200.846 106.182 200.419Z" fill="#FDFDFD"/>
<path d="M305.05 242.494H57.2739C57.1527 242.494 57.0547 242.396 57.0547 242.275C57.0547 242.154 57.1527 242.057 57.2739 242.057H305.05C305.171 242.057 305.269 242.154 305.269 242.275C305.269 242.396 305.171 242.494 305.05 242.494Z" fill="#1F4168"/>
<path d="M302.423 142.949C300.774 136.134 293.896 131.943 287.06 133.587C281.915 134.825 278.261 139.016 277.471 143.92L274.475 146.676L277.67 148.903C279.319 155.718 286.197 159.909 293.032 158.265C299.868 156.621 304.072 149.764 302.423 142.949Z" fill="white"/>
<path d="M290.023 158.66C287.701 158.66 285.418 158.025 283.387 156.787C280.481 155.016 278.44 152.224 277.638 148.925L274.417 146.68L274.451 146.649L277.437 143.901C278.26 138.82 282.033 134.759 287.052 133.551C290.367 132.754 293.796 133.291 296.705 135.065C299.615 136.838 301.658 139.635 302.458 142.94C303.258 146.246 302.719 149.664 300.94 152.565C299.162 155.466 296.356 157.503 293.041 158.3C292.039 158.541 291.027 158.66 290.023 158.66ZM274.533 146.672L277.702 148.881L277.705 148.894C278.501 152.181 280.532 154.962 283.425 156.725C286.319 158.488 289.727 159.023 293.024 158.229C296.32 157.437 299.11 155.411 300.878 152.527C302.646 149.642 303.183 146.244 302.387 142.957C301.592 139.671 299.56 136.89 296.667 135.127C293.774 133.363 290.365 132.829 287.069 133.622C282.074 134.823 278.321 138.867 277.507 143.925L277.505 143.938L274.533 146.672Z" fill="#1F4068"/>
<path d="M290.047 149.99C290.515 149.99 290.914 150.155 291.242 150.486C291.57 150.817 291.734 151.222 291.734 151.7C291.734 152.178 291.57 152.583 291.242 152.914C290.914 153.245 290.515 153.41 290.047 153.41C289.559 153.41 289.147 153.245 288.81 152.914C288.472 152.583 288.304 152.178 288.304 151.7C288.304 151.222 288.472 150.817 288.81 150.486C289.147 150.155 289.559 149.99 290.047 149.99ZM288.463 139.952L288.718 147.286C288.74 147.935 289.275 148.45 289.926 148.45C290.578 148.45 291.113 147.935 291.135 147.286L291.39 139.952C291.413 139.27 290.865 138.705 290.181 138.705H289.672C288.988 138.705 288.439 139.271 288.463 139.952Z" fill="#1F4068"/>
<path d="M252.9 240.657L265.158 237.528L274.553 235.969C278.815 235.261 283.165 235.247 287.432 235.927C291.305 236.543 294.155 239.875 294.155 243.785C294.155 246.664 292.596 249.318 290.077 250.726L288.625 251.539C287.345 252.255 285.891 252.605 284.425 252.551L269.8 252.011L264.075 253.009C262.195 253.337 260.266 253.268 258.414 252.807L257.718 252.633L252.9 240.657Z" fill="#09B782"/>
<path d="M188.462 213.553C188.462 213.553 188.565 184.575 200.249 159.163C203.278 152.574 210.005 148.468 217.266 148.827L255.329 150.707L268.813 175.578L258.481 185.158L253.933 185.762L251.849 177.498L250.833 181.505C249.748 185.782 247.64 189.734 244.69 193.022L241.272 196.831L236.567 209.174C235.753 211.311 235.381 213.591 235.475 215.875L235.54 217.457L201.977 218.728L188.462 213.553Z" fill="#09B782"/>
<path d="M263.141 151.48C263.141 151.48 266.364 155.93 263.853 158.823C263.853 158.823 264.086 157.851 263.785 157.352C263.785 157.352 263.405 159.605 261.405 160.035C261.405 160.035 262.928 157.812 261.149 155.888C261.149 155.888 259.897 157.15 258.384 156.217C258.384 156.217 258.513 156.817 259.5 157.208C259.5 157.208 257.317 157.611 255.666 155.739C255.666 155.739 253.027 156.652 250.424 154.232L229.888 147.561C229.905 141.963 231.645 115.103 251.072 112.774C251.072 112.774 272.946 128.39 268.553 138.667C264.161 148.943 263.141 151.48 263.141 151.48Z" fill="#1B1A2E"/>
<path d="M235.114 136.841L232.532 144.74C231.613 147.552 228.919 149.402 225.956 149.256L224.842 149.201L226.104 153.761C226.495 155.176 227.022 156.549 227.678 157.862L236.793 176.12L245.408 165.286C247.097 163.162 248.393 160.755 249.235 158.178L254.184 143.036L235.114 136.841Z" fill="#FFC89F"/>
<path d="M243.274 154.198C236.26 151.919 232.427 144.403 234.712 137.41L239.768 121.941C242.054 114.948 249.592 111.127 256.607 113.405C263.621 115.684 267.454 123.2 265.169 130.193L260.113 145.662C257.827 152.655 250.288 156.477 243.274 154.198Z" fill="#FFC89F"/>
<path d="M250.432 154.516L249.595 157.078C247.942 156.666 245.314 155.884 243.352 153.961C245.107 155.028 248.48 155.057 250.432 154.516Z" fill="#FF9A6C"/>
<path d="M258.921 135.502C258.715 136.131 258.036 136.475 257.405 136.27C256.774 136.065 256.429 135.389 256.634 134.759C256.84 134.13 257.519 133.786 258.15 133.991C258.781 134.196 259.127 134.872 258.921 135.502Z" fill="#1B1A2E"/>
<path d="M261.002 134.125C260.874 133.941 260.731 133.769 260.574 133.613C260.496 133.534 260.415 133.458 260.334 133.383C260.247 133.315 260.166 133.24 260.076 133.177C259.72 132.918 259.329 132.703 258.907 132.583C258.805 132.54 258.695 132.529 258.589 132.501L258.428 132.465C258.374 132.454 258.319 132.453 258.264 132.445C258.155 132.434 258.046 132.419 257.936 132.41C257.826 132.411 257.716 132.411 257.605 132.41L257.439 132.409L257.274 132.428L256.943 132.465C256.723 132.497 256.507 132.555 256.285 132.592C256.497 132.522 256.711 132.45 256.929 132.393L257.263 132.335L257.431 132.305L257.6 132.295C257.714 132.289 257.827 132.283 257.941 132.279C258.054 132.285 258.168 132.297 258.282 132.305C258.338 132.311 258.396 132.313 258.452 132.323L258.619 132.358C258.73 132.386 258.845 132.397 258.952 132.44C259.39 132.57 259.797 132.798 260.147 133.087C260.496 133.375 260.796 133.726 261.002 134.125Z" fill="#1B1A2E"/>
<path d="M246.923 131.604C246.717 132.233 246.038 132.577 245.407 132.372C244.776 132.167 244.43 131.491 244.636 130.861C244.842 130.232 245.521 129.888 246.152 130.093C246.783 130.298 247.128 130.974 246.923 131.604Z" fill="#1B1A2E"/>
<path d="M248.992 130.01C248.863 129.826 248.721 129.655 248.564 129.498C248.486 129.419 248.405 129.343 248.324 129.269C248.237 129.2 248.156 129.125 248.065 129.062C247.71 128.803 247.319 128.589 246.897 128.468C246.795 128.426 246.684 128.414 246.578 128.386L246.418 128.35C246.364 128.339 246.309 128.338 246.254 128.331C246.145 128.319 246.036 128.305 245.926 128.295C245.816 128.297 245.706 128.296 245.595 128.295L245.429 128.295L245.264 128.313L244.933 128.35C244.713 128.383 244.497 128.44 244.275 128.477C244.487 128.408 244.701 128.335 244.919 128.278L245.253 128.22L245.42 128.191L245.59 128.181C245.703 128.174 245.817 128.168 245.931 128.164C246.044 128.171 246.158 128.182 246.271 128.19C246.328 128.196 246.385 128.198 246.442 128.208L246.609 128.244C246.72 128.271 246.835 128.283 246.941 128.326C247.38 128.455 247.787 128.683 248.137 128.972C248.486 129.261 248.786 129.611 248.992 130.01Z" fill="#1B1A2E"/>
<path d="M252.074 137.793C252.014 138.309 251.937 138.822 251.859 139.334C251.781 139.847 251.693 140.358 251.604 140.869C251.559 141.12 251.517 141.39 251.409 141.635C251.305 141.881 251.162 142.112 250.973 142.303C250.786 142.492 250.553 142.649 250.287 142.704C250.03 142.748 249.774 142.796 249.517 142.835C249.767 142.763 250.02 142.701 250.27 142.632C250.513 142.568 250.724 142.412 250.889 142.225C251.054 142.035 251.188 141.817 251.277 141.582C251.376 141.349 251.413 141.101 251.457 140.843C251.549 140.333 251.642 139.822 251.746 139.314C251.848 138.806 251.953 138.298 252.074 137.793Z" fill="#1B1A2E"/>
<path d="M262.142 130.461C261.615 130.341 261.203 130.255 260.815 130.152C260.433 130.048 260.091 129.957 259.758 129.833C259.715 129.823 259.673 129.809 259.633 129.789L259.507 129.741C259.465 129.726 259.422 129.711 259.379 129.698C259.336 129.684 259.296 129.66 259.253 129.644C259.169 129.607 259.08 129.577 258.989 129.544C258.904 129.501 258.813 129.464 258.72 129.426C258.674 129.406 258.624 129.391 258.575 129.372C258.529 129.35 258.484 129.325 258.434 129.305C258.338 129.26 258.235 129.219 258.128 129.178C257.917 129.089 257.705 128.987 257.431 128.911C257.436 129.046 257.453 129.177 257.482 129.303C257.51 129.43 257.54 129.559 257.59 129.677C257.642 129.792 257.699 129.907 257.763 130.02C257.793 130.077 257.827 130.131 257.861 130.187C257.9 130.238 257.939 130.29 257.982 130.338C258.065 130.437 258.152 130.537 258.244 130.63C258.342 130.717 258.448 130.797 258.556 130.876C258.609 130.915 258.663 130.955 258.721 130.989L258.899 131.082C259.021 131.138 259.139 131.207 259.27 131.241C259.779 131.424 260.344 131.447 260.855 131.319C260.919 131.309 260.982 131.282 261.044 131.262C261.106 131.241 261.168 131.22 261.228 131.195C261.349 131.142 261.465 131.082 261.576 131.013C261.794 130.87 261.999 130.698 262.142 130.461Z" fill="#1B1A2E"/>
<path d="M250.474 125.758C249.977 125.543 249.594 125.369 249.221 125.224C248.851 125.081 248.522 124.953 248.179 124.856C248.138 124.839 248.096 124.825 248.052 124.818L247.922 124.783C247.879 124.769 247.836 124.756 247.793 124.741C247.75 124.727 247.704 124.723 247.66 124.71C247.57 124.69 247.48 124.662 247.388 124.635C247.294 124.62 247.198 124.596 247.101 124.571C247.052 124.56 247.002 124.543 246.952 124.529C246.901 124.52 246.85 124.513 246.798 124.5C246.695 124.479 246.587 124.452 246.476 124.422C246.254 124.369 246.022 124.326 245.756 124.225C245.84 124.12 245.932 124.025 246.03 123.939C246.128 123.854 246.229 123.767 246.339 123.702C246.449 123.64 246.564 123.581 246.682 123.528C246.74 123.499 246.8 123.476 246.86 123.452C246.922 123.433 246.984 123.414 247.047 123.401C247.174 123.37 247.302 123.341 247.432 123.32C247.563 123.309 247.696 123.306 247.829 123.306C247.896 123.306 247.962 123.306 248.029 123.312L248.228 123.343C248.36 123.369 248.495 123.384 248.622 123.433C249.141 123.586 249.609 123.901 249.945 124.306C249.991 124.352 250.025 124.411 250.064 124.463C250.101 124.517 250.139 124.57 250.172 124.626C250.238 124.74 250.296 124.857 250.345 124.978C250.436 125.222 250.498 125.482 250.474 125.758Z" fill="#1B1A2E"/>
<path d="M251.155 114.499C251.155 114.499 254.787 114.373 258.297 119.819C261.807 125.266 262.878 133.194 267.211 137.762C267.211 137.762 264.822 150.5 258.083 152.112C258.083 152.112 262.195 154.345 265.262 148.892C265.262 148.892 273.519 145.389 268.842 122.077C268.397 116.938 258.28 102.377 240.796 108.501C240.796 108.501 232.728 109.966 226.512 122.248C226.512 122.248 214.775 138.071 227.886 146.437C227.886 146.437 230.702 151.864 235.143 150.055C235.143 150.055 232.95 148.49 232.453 147.108C232.453 147.108 236.436 150.843 239.723 149.683C239.723 149.683 234.367 146.966 233.673 143.75C233.673 143.75 235.38 147.143 238.699 145.231C238.699 145.231 228.66 141.245 234.826 127.917C234.826 127.917 241.041 133.777 244.794 125.473C248.425 117.437 251.155 114.499 251.155 114.499Z" fill="#1B1A2E"/>
<path d="M265.257 148.87C265.546 148.773 265.826 148.649 266.095 148.51C266.365 148.369 266.622 148.207 266.873 148.04C267.37 147.696 267.83 147.303 268.239 146.864C268.648 146.425 269.009 145.942 269.317 145.428C269.624 144.913 269.886 144.373 270.116 143.816C270.336 143.256 270.529 142.681 270.669 142.089C270.711 141.943 270.737 141.793 270.767 141.645L270.857 141.197C270.896 140.895 270.946 140.594 270.97 140.29C271.079 139.073 271.01 137.846 270.847 136.638C270.459 134.227 270.058 131.803 269.713 129.379C269.376 126.952 269.087 124.519 268.82 122.081L268.864 122.073C269.147 123.27 269.367 124.476 269.589 125.682C269.807 126.889 270 128.099 270.187 129.311C270.369 130.523 270.524 131.738 270.682 132.954C270.763 133.561 270.835 134.17 270.907 134.778C270.944 135.083 270.98 135.387 271.011 135.692L271.091 136.613C271.178 137.842 271.19 139.073 271.116 140.301C271.046 141.528 270.862 142.761 270.465 143.946C270.045 145.118 269.387 146.226 268.489 147.105C267.594 147.978 266.487 148.661 265.267 148.913L265.257 148.87Z" fill="#1B1A2E"/>
<path d="M251.172 114.513C249.97 116.346 248.932 118.267 247.914 120.199C247.667 120.686 247.391 121.159 247.147 121.649L246.77 122.378C246.651 122.624 246.527 122.868 246.412 123.117C245.943 124.106 245.535 125.124 245.172 126.156C244.988 126.67 244.806 127.198 244.572 127.702C244.337 128.206 244.055 128.694 243.707 129.143C243.356 129.587 242.934 129.992 242.427 130.286C242.176 130.435 241.904 130.551 241.622 130.635C241.339 130.715 241.047 130.759 240.756 130.773C240.172 130.799 239.598 130.69 239.057 130.523C238.517 130.35 238.004 130.118 237.515 129.849C236.54 129.308 235.649 128.65 234.813 127.935L234.84 127.899C235.766 128.489 236.7 129.066 237.681 129.526C238.171 129.754 238.671 129.959 239.184 130.097C239.695 130.242 240.22 130.318 240.735 130.296C241.249 130.273 241.752 130.139 242.204 129.893C242.656 129.647 243.052 129.293 243.392 128.888C243.737 128.485 244.026 128.031 244.289 127.559C244.42 127.323 244.542 127.081 244.657 126.835C244.773 126.59 244.875 126.338 244.985 126.085L246.257 123.049C246.365 122.797 246.464 122.54 246.567 122.286L246.89 121.527C247.103 121.021 247.331 120.52 247.568 120.024C247.815 119.532 248.065 119.042 248.34 118.565C248.605 118.083 248.892 117.613 249.182 117.146C249.773 116.217 250.403 115.309 251.137 114.485L251.172 114.513Z" fill="#1B1A2E"/>
<path d="M264.184 133.204C264.414 133.601 264.637 134 264.87 134.393C265.104 134.785 265.339 135.176 265.589 135.557C265.835 135.941 266.096 136.315 266.365 136.684C266.499 136.868 266.638 137.049 266.78 137.228L266.993 137.497C267.067 137.584 267.14 137.672 267.211 137.762C267.042 137.607 266.883 137.441 266.724 137.275C266.57 137.105 266.42 136.931 266.273 136.753C265.981 136.398 265.715 136.023 265.463 135.638C265.215 135.252 264.981 134.856 264.77 134.448C264.557 134.042 264.358 133.628 264.184 133.204Z" fill="#1F4068"/>
<path d="M251.168 114.453C252.082 114.515 252.959 114.828 253.783 115.215C254.608 115.61 255.38 116.11 256.088 116.685C256.448 116.966 256.774 117.285 257.108 117.594C257.269 117.755 257.424 117.922 257.582 118.085L257.821 118.329L258.045 118.586C258.657 119.259 259.215 119.979 259.742 120.719C260.8 122.201 261.678 123.799 262.534 125.398C263.391 126.998 264.228 128.606 265.188 130.147L265.176 130.156C264.137 128.664 263.258 127.067 262.399 125.47C261.965 124.673 261.538 123.873 261.091 123.085C260.645 122.296 260.177 121.52 259.675 120.765C259.169 120.014 258.629 119.281 258.007 118.621L257.78 118.368L257.538 118.128C257.376 117.97 257.216 117.809 257.051 117.654C256.709 117.357 256.374 117.051 256.011 116.781C255.298 116.225 254.543 115.72 253.733 115.318C252.925 114.918 252.069 114.584 251.167 114.468L251.168 114.453Z" fill="#1F4068"/>
<path d="M238.696 145.237C237.919 144.927 237.206 144.475 236.546 143.962C235.893 143.439 235.298 142.84 234.797 142.168C233.801 140.817 233.19 139.221 232.915 137.579C232.887 137.372 232.844 137.167 232.827 136.959L232.777 136.335C232.763 136.127 232.769 135.918 232.765 135.709L232.763 135.396C232.767 135.291 232.775 135.187 232.781 135.083L232.82 134.458L232.899 133.836L232.939 133.526C232.955 133.423 232.979 133.321 232.998 133.218L233.121 132.604C233.158 132.399 233.222 132.199 233.271 131.997L233.432 131.392C233.565 130.997 233.689 130.599 233.829 130.206C233.982 129.819 234.133 129.43 234.294 129.046L234.819 127.914L234.833 127.92C234.184 129.45 233.619 131.018 233.271 132.637C232.933 134.253 232.768 135.922 232.996 137.567C233.107 138.386 233.31 139.198 233.633 139.963C233.95 140.73 234.388 141.442 234.896 142.094C235.909 143.397 237.206 144.493 238.702 145.224L238.696 145.237Z" fill="#1F4068"/>
<path d="M257.64 151.405C257.976 151.586 258.328 151.736 258.69 151.851C259.05 151.971 259.42 152.061 259.795 152.112C260.542 152.217 261.315 152.171 262.024 151.92C262.74 151.687 263.378 151.25 263.909 150.716C264.446 150.183 264.885 149.554 265.262 148.892C265.177 149.062 265.09 149.233 265.001 149.402C264.903 149.565 264.808 149.732 264.705 149.893C264.488 150.209 264.26 150.519 263.992 150.796C263.733 151.082 263.431 151.327 263.111 151.544C262.792 151.763 262.439 151.934 262.073 152.061C261.336 152.308 260.538 152.357 259.778 152.225C259.018 152.091 258.283 151.818 257.64 151.405Z" fill="#1F4068"/>
<path d="M268.127 134.004C267.842 135.765 267.425 137.504 266.924 139.218C266.419 140.931 265.808 142.615 265.058 144.24C264.677 145.049 264.258 145.841 263.788 146.604C263.314 147.363 262.798 148.1 262.194 148.765C261.595 149.431 260.92 150.038 260.153 150.507C259.388 150.974 258.53 151.301 257.64 151.405C258.525 151.268 259.368 150.928 260.114 150.445C260.866 149.968 261.524 149.358 262.108 148.689C263.276 147.346 264.173 145.788 264.922 144.177C265.68 142.566 266.287 140.887 266.815 139.186C267.079 138.335 267.318 137.476 267.536 136.612C267.758 135.749 267.956 134.879 268.127 134.004Z" fill="#1F4068"/>
<path d="M251.606 114.175C252.21 113.942 252.889 113.957 253.521 114.094C254.158 114.237 254.746 114.544 255.277 114.911C255.55 115.089 255.785 115.312 256.03 115.524L256.121 115.604L256.204 115.692L256.371 115.867C256.482 115.984 256.594 116.1 256.7 116.221C256.897 116.477 257.101 116.726 257.289 116.986C257.462 117.257 257.639 117.525 257.807 117.798C257.61 117.544 257.422 117.285 257.23 117.03C257.031 116.78 256.819 116.541 256.614 116.297L256.279 115.957L256.112 115.786L256.028 115.701L255.938 115.624C255.695 115.419 255.46 115.204 255.192 115.033C254.678 114.664 254.107 114.367 253.493 114.205C253.186 114.132 252.872 114.07 252.554 114.069C252.237 114.056 251.915 114.086 251.606 114.175Z" fill="#1F4068"/>
<path d="M251.127 113.044C250.906 112.677 250.661 112.325 250.398 111.989C250.138 111.651 249.86 111.325 249.565 111.018C248.976 110.403 248.328 109.839 247.604 109.392C246.89 108.931 246.101 108.585 245.275 108.378C245.172 108.349 245.069 108.324 244.964 108.306C244.86 108.285 244.755 108.263 244.65 108.245C244.439 108.219 244.228 108.181 244.015 108.173C243.589 108.128 243.16 108.149 242.731 108.17C243.581 108.052 244.459 108.069 245.302 108.266C245.726 108.353 246.136 108.5 246.535 108.666C246.935 108.831 247.317 109.037 247.684 109.266C248.413 109.732 249.071 110.302 249.649 110.94C250.224 111.581 250.735 112.281 251.127 113.044Z" fill="#1F4068"/>
<path d="M235.64 127.419C235.936 127.055 236.221 126.684 236.507 126.314C236.793 125.944 237.077 125.572 237.357 125.197C237.923 124.452 238.47 123.694 239.016 122.934C240.109 121.416 241.181 119.88 242.14 118.272C243.095 116.663 244.041 115.042 245.176 113.543C245.748 112.801 246.362 112.071 247.134 111.514C247.518 111.239 247.951 111.011 248.424 110.931C248.897 110.845 249.388 110.953 249.798 111.178L249.792 111.192C249.58 111.092 249.356 111.019 249.127 110.988C248.897 110.955 248.664 110.965 248.438 111.007C247.984 111.097 247.571 111.329 247.203 111.608C246.833 111.887 246.505 112.218 246.191 112.561C245.877 112.904 245.583 113.266 245.301 113.637C244.735 114.379 244.209 115.153 243.695 115.933C243.18 116.714 242.679 117.504 242.186 118.3C241.691 119.095 241.197 119.89 240.687 120.675C240.181 121.464 239.665 122.246 239.122 123.009C238.033 124.534 236.893 126.024 235.652 127.429L235.64 127.419Z" fill="#1F4068"/>
<path d="M242.562 112.127C241.87 112.606 241.231 113.154 240.618 113.727L240.163 114.162C240.01 114.305 239.87 114.462 239.723 114.611L239.288 115.066L238.873 115.539C237.769 116.801 236.776 118.158 235.892 119.582C235.677 119.942 235.47 120.306 235.259 120.668C235.156 120.85 235.044 121.028 234.947 121.214L234.663 121.774C234.476 122.149 234.278 122.519 234.099 122.898L233.592 124.049L233.337 124.624L233.116 125.212L232.675 126.391C232.595 126.585 232.534 126.786 232.472 126.986L232.284 127.586L231.904 128.787L232.246 127.575L232.419 126.969C232.475 126.766 232.531 126.563 232.605 126.367L233.028 125.179L233.24 124.585L233.486 124.004L233.982 122.844C234.16 122.463 234.356 122.09 234.542 121.713L234.825 121.148C234.92 120.961 235.031 120.782 235.134 120.598C235.345 120.234 235.55 119.866 235.765 119.504C236.663 118.08 237.66 116.716 238.787 115.463C239.918 114.218 241.15 113.047 242.562 112.127Z" fill="#1F4068"/>
<path d="M251.404 113.724C251.25 113.59 251.04 113.533 250.842 113.55C250.641 113.565 250.452 113.649 250.283 113.757C249.943 113.977 249.673 114.292 249.43 114.617C248.939 115.271 248.597 116.019 248.208 116.745C247.819 117.471 247.41 118.186 247.003 118.901C246.592 119.614 246.182 120.327 245.748 121.028C245.318 121.73 244.863 122.418 244.372 123.081C243.884 123.746 243.369 124.393 242.81 125.001C241.704 126.226 240.444 127.322 239.043 128.194L239.035 128.181C240.383 127.233 241.599 126.119 242.696 124.898C243.793 123.677 244.774 122.356 245.68 120.984C246.133 120.298 246.561 119.596 246.958 118.875C247.361 118.158 247.726 117.421 248.098 116.688C248.288 116.324 248.464 115.953 248.666 115.591C248.867 115.23 249.087 114.878 249.339 114.548C249.463 114.382 249.602 114.225 249.75 114.079C249.899 113.933 250.061 113.798 250.242 113.691C250.421 113.582 250.626 113.505 250.839 113.499C251.05 113.492 251.267 113.564 251.415 113.714L251.404 113.724Z" fill="#1F4068"/>
<path d="M250.593 112.196C250.741 112.024 250.916 111.875 251.102 111.743C251.288 111.612 251.485 111.494 251.693 111.397C252.11 111.207 252.561 111.088 253.02 111.048C253.941 110.97 254.865 111.202 255.694 111.584C256.526 111.971 257.283 112.498 257.974 113.09C258.665 113.683 259.298 114.34 259.881 115.034L259.405 114.548C259.248 114.385 259.079 114.234 258.917 114.076C258.757 113.915 258.585 113.768 258.417 113.616C258.252 113.462 258.074 113.322 257.9 113.178C257.2 112.609 256.453 112.088 255.632 111.719C254.822 111.333 253.925 111.11 253.028 111.161C252.581 111.187 252.138 111.291 251.723 111.464C251.308 111.637 250.917 111.878 250.593 112.196Z" fill="#1F4068"/>
<path d="M260.501 115.828C261.005 116.461 261.434 117.149 261.828 117.855C262.023 118.209 262.207 118.569 262.383 118.933C262.558 119.298 262.714 119.671 262.867 120.046C263.16 120.8 263.405 121.57 263.621 122.348C263.833 123.127 264.02 123.912 264.161 124.708C264.197 124.907 264.226 125.107 264.259 125.306L264.336 125.907L264.414 126.505C264.441 126.704 264.462 126.904 264.498 127.102C264.563 127.499 264.624 127.896 264.71 128.289C264.785 128.684 264.88 129.074 264.972 129.465C265.176 130.241 265.41 131.011 265.707 131.757C266.005 132.501 266.343 133.238 266.813 133.893L266.802 133.902C266.291 133.272 265.92 132.542 265.599 131.801C265.282 131.056 265.027 130.286 264.823 129.503C264.622 128.719 264.469 127.923 264.358 127.123C264.297 126.723 264.265 126.32 264.218 125.919L264.157 125.319C264.131 125.12 264.109 124.92 264.08 124.721C263.963 123.925 263.798 123.135 263.572 122.362C263.352 121.587 263.062 120.834 262.752 120.092C262.13 118.611 261.397 117.17 260.489 115.837L260.501 115.828Z" fill="#1F4068"/>
<path d="M245.389 108.758C244.783 108.667 244.164 108.673 243.567 108.79C243.416 108.809 243.269 108.85 243.122 108.889C242.976 108.929 242.826 108.96 242.686 109.018L242.258 109.175C242.118 109.235 241.982 109.304 241.844 109.368C240.748 109.896 239.765 110.637 238.865 111.457L238.692 111.606L238.528 111.764L238.198 112.081L237.868 112.398L237.553 112.73C237.345 112.952 237.131 113.17 236.927 113.396L236.322 114.085C236.222 114.199 236.119 114.312 236.02 114.429L235.73 114.783L235.149 115.491C234.766 115.967 234.399 116.456 234.017 116.934C234.371 116.436 234.727 115.938 235.091 115.446L235.657 114.724L235.94 114.362C236.036 114.243 236.137 114.128 236.235 114.011L236.83 113.311C237.034 113.082 237.247 112.862 237.455 112.636L237.769 112.301L238.098 111.98L238.427 111.658L238.592 111.498L238.765 111.346C239.679 110.53 240.672 109.779 241.795 109.265C241.937 109.203 242.076 109.137 242.219 109.079L242.656 108.929C242.8 108.873 242.953 108.846 243.102 108.808C243.252 108.772 243.401 108.732 243.555 108.718C244.164 108.625 244.789 108.634 245.389 108.758Z" fill="#1F4068"/>
<path d="M232.605 118.464C232.113 119.196 231.588 119.906 231.046 120.603C230.773 120.95 230.498 121.295 230.218 121.636C229.933 121.974 229.65 122.312 229.355 122.641C228.764 123.297 228.158 123.939 227.546 124.575L227.09 125.054C226.939 125.215 226.786 125.373 226.646 125.543L226.432 125.794L226.227 126.053C226.088 126.223 225.963 126.404 225.832 126.581C225.324 127.297 224.881 128.058 224.507 128.851C224.137 129.647 223.835 130.472 223.596 131.316C223.362 132.161 223.182 133.022 223.047 133.891C222.977 134.325 222.915 134.761 222.853 135.197C222.789 135.633 222.725 136.07 222.617 136.499L222.603 136.495C222.691 136.064 222.732 135.625 222.781 135.188C222.829 134.75 222.875 134.312 222.934 133.874C223.054 133 223.211 132.128 223.449 131.275C223.909 129.566 224.691 127.939 225.753 126.523C225.89 126.349 226.021 126.17 226.165 126.003L226.378 125.748L226.599 125.502C226.894 125.173 227.207 124.86 227.513 124.544C228.124 123.908 228.704 123.243 229.27 122.567L230.115 121.551C230.397 121.213 230.677 120.873 230.954 120.53C231.506 119.844 232.055 119.154 232.593 118.455L232.605 118.464Z" fill="#1F4068"/>
<path d="M241.624 108.536C240.754 108.968 239.925 109.475 239.12 110.013C238.314 110.551 237.542 111.138 236.802 111.763C236.061 112.386 235.355 113.053 234.709 113.777C234.058 114.496 233.446 115.25 232.838 116.006C231.624 117.52 230.435 119.054 229.201 120.553C228.585 121.303 227.959 122.046 227.307 122.767C226.653 123.484 225.994 124.208 225.22 124.801L225.211 124.789C225.582 124.475 225.926 124.134 226.256 123.779C226.59 123.428 226.908 123.062 227.225 122.696L227.696 122.141L228.158 121.58L229.081 120.455C230.303 118.949 231.525 117.44 232.775 115.954C233.402 115.213 234.03 114.473 234.671 113.743C234.828 113.557 234.995 113.381 235.16 113.202L235.406 112.933C235.489 112.845 235.576 112.76 235.661 112.673C236 112.324 236.357 111.992 236.721 111.669C237.454 111.028 238.24 110.448 239.056 109.918C239.875 109.391 240.724 108.909 241.618 108.522L241.624 108.536Z" fill="#1F4068"/>
<path d="M228.274 143.075C227.859 142.659 227.594 142.113 227.407 141.559C227.221 141 227.12 140.419 227.049 139.838C226.992 139.255 226.964 138.67 226.978 138.085C226.992 137.501 227.032 136.918 227.121 136.341C227.108 136.632 227.096 136.923 227.094 137.214C227.088 137.505 227.087 137.795 227.093 138.086C227.103 138.666 227.129 139.246 227.197 139.822C227.227 140.11 227.267 140.396 227.318 140.681C227.37 140.966 227.44 141.246 227.516 141.525C227.594 141.803 227.695 142.074 227.819 142.335C227.939 142.599 228.09 142.848 228.274 143.075Z" fill="#1F4068"/>
<path d="M228.478 137.904C228.287 137.986 228.063 138.012 227.851 137.954C227.636 137.901 227.447 137.753 227.328 137.57C227.263 137.479 227.226 137.377 227.186 137.277C227.157 137.174 227.13 137.071 227.115 136.966C227.107 136.861 227.095 136.757 227.097 136.652C227.105 136.548 227.109 136.444 227.121 136.341C227.142 136.444 227.154 136.546 227.17 136.647C227.185 136.747 227.213 136.846 227.23 136.944C227.284 137.137 227.341 137.33 227.452 137.487C227.555 137.649 227.704 137.775 227.885 137.844C228.066 137.912 228.272 137.93 228.478 137.904Z" fill="#1F4068"/>
<path d="M234.92 121.128C233.81 122.262 232.782 123.47 231.817 124.725C231.334 125.352 230.862 125.99 230.438 126.659C230.01 127.327 229.635 128.026 229.299 128.743C228.963 129.459 228.676 130.197 228.441 130.95C228.207 131.703 228.026 132.473 227.935 133.255C227.903 133.449 227.894 133.646 227.882 133.842C227.87 134.038 227.852 134.234 227.858 134.431C227.861 134.628 227.853 134.825 227.865 135.021L227.914 135.609C228.01 136.391 228.203 137.16 228.485 137.901L228.472 137.907C228.146 137.182 227.917 136.413 227.798 135.624C227.684 134.833 227.692 134.029 227.783 133.236C227.811 133.039 227.829 132.84 227.865 132.644L227.982 132.057C228.081 131.671 228.176 131.283 228.307 130.907C228.553 130.15 228.862 129.414 229.226 128.707C229.948 127.292 230.787 125.94 231.718 124.651C232.19 124.011 232.699 123.399 233.228 122.806C233.761 122.216 234.314 121.644 234.91 121.117L234.92 121.128Z" fill="#1F4068"/>
<path d="M232.453 147.108C232.218 146.884 232.007 146.636 231.808 146.378C231.609 146.122 231.425 145.853 231.252 145.577C230.91 145.024 230.616 144.441 230.372 143.837C229.88 142.629 229.603 141.342 229.486 140.046C229.429 139.396 229.431 138.744 229.452 138.094C229.477 137.77 229.486 137.445 229.528 137.122L229.581 136.637L229.658 136.156C229.759 135.513 229.906 134.88 230.067 134.251C230.154 133.939 230.252 133.629 230.344 133.318L230.663 132.399C230.267 133.633 229.955 134.894 229.771 136.173L229.705 136.653L229.656 137.135C229.617 137.455 229.61 137.778 229.588 138.1C229.572 138.745 229.574 139.391 229.634 140.033C229.689 140.675 229.781 141.315 229.92 141.944C230.059 142.574 230.251 143.191 230.478 143.795C230.707 144.398 230.988 144.983 231.315 145.54C231.639 146.098 232.01 146.634 232.453 147.108Z" fill="#1F4068"/>
<path d="M268.518 131.676L268.596 130.776L268.68 129.876C268.734 129.277 268.796 128.678 268.842 128.078C268.9 127.479 268.945 126.879 268.985 126.279C269.009 125.979 269.024 125.679 269.038 125.378L269.058 124.927C269.06 124.777 269.063 124.627 269.068 124.476C269.121 125.077 269.116 125.682 269.1 126.285C269.083 126.888 269.037 127.49 268.99 128.091C268.932 128.691 268.872 129.291 268.793 129.889C268.714 130.486 268.629 131.083 268.518 131.676Z" fill="#1F4068"/>
<path d="M248.947 110.324C248.899 110.078 248.931 109.817 249.016 109.577C249.108 109.337 249.269 109.124 249.469 108.96C249.668 108.793 249.906 108.681 250.148 108.599C250.269 108.559 250.392 108.531 250.515 108.496C250.638 108.469 250.762 108.442 250.887 108.419C251.386 108.334 251.892 108.304 252.396 108.32C252.899 108.339 253.401 108.391 253.89 108.505C253.641 108.478 253.392 108.458 253.142 108.449C252.893 108.435 252.643 108.432 252.395 108.435C251.897 108.446 251.4 108.48 250.912 108.565C250.428 108.655 249.931 108.76 249.539 109.05C249.145 109.331 248.915 109.824 248.947 110.324Z" fill="#1F4068"/>
<path d="M246.514 108.728C246.493 108.575 246.512 108.418 246.554 108.268C246.595 108.117 246.664 107.974 246.752 107.844C246.843 107.715 246.95 107.596 247.079 107.507C247.203 107.412 247.348 107.347 247.495 107.304C247.375 107.402 247.257 107.49 247.154 107.595C247.049 107.696 246.957 107.808 246.876 107.928C246.71 108.165 246.597 108.434 246.514 108.728Z" fill="#1F4068"/>
<path d="M225.35 131.784C225.24 132.32 225.145 132.857 225.068 133.398C224.987 133.937 224.92 134.479 224.871 135.022C224.774 136.107 224.728 137.199 224.818 138.283C224.86 138.824 224.933 139.364 225.062 139.89C225.189 140.416 225.378 140.928 225.644 141.397C225.911 141.865 226.277 142.281 226.736 142.571C227.191 142.867 227.73 143.018 228.274 143.075C227.727 143.051 227.177 142.915 226.697 142.633C226.219 142.349 225.831 141.929 225.545 141.456C225.256 140.982 225.066 140.456 224.93 139.923C224.795 139.388 224.716 138.842 224.669 138.295C224.591 137.198 224.635 136.098 224.757 135.01C224.883 133.922 225.072 132.842 225.35 131.784Z" fill="#1F4068"/>
<path d="M260.31 152.224C260.261 152.383 260.22 152.544 260.195 152.707C260.18 152.789 260.17 152.87 260.158 152.952C260.153 153.034 260.143 153.115 260.14 153.197C260.127 153.524 260.15 153.852 260.229 154.168C260.304 154.483 260.415 154.793 260.579 155.077C260.731 155.369 260.94 155.626 261.149 155.888C261.086 155.832 261.024 155.776 260.964 155.718C260.905 155.658 260.836 155.607 260.785 155.54C260.681 155.408 260.565 155.283 260.48 155.136C260.287 154.856 260.165 154.531 260.083 154.201C260.004 153.87 259.985 153.524 260.026 153.188C260.065 152.852 260.154 152.521 260.31 152.224Z" fill="#1F4068"/>
<path d="M255.05 153.006C255.056 153.245 255.075 153.481 255.097 153.716C255.122 153.95 255.155 154.182 255.203 154.411C255.245 154.642 255.312 154.866 255.386 155.088C255.46 155.311 255.56 155.524 255.666 155.739C255.512 155.557 255.373 155.354 255.277 155.131C255.179 154.91 255.103 154.678 255.056 154.441C254.964 153.967 254.949 153.476 255.05 153.006Z" fill="#1F4068"/>
<path d="M233.683 136.467L234.337 136.68C235.628 137.099 237.016 136.396 237.437 135.108L238.797 130.947C239.218 129.659 238.512 128.276 237.221 127.856L236.567 127.644C235.276 127.224 233.888 127.928 233.467 129.215L232.107 133.377C231.686 134.664 232.392 136.048 233.683 136.467Z" fill="#FFC89F"/>
<path d="M237.16 129.368C236.924 129.33 236.692 129.312 236.463 129.328C236.234 129.344 236.012 129.396 235.801 129.47C235.59 129.546 235.392 129.653 235.214 129.785C235.034 129.913 234.871 130.067 234.742 130.245C234.608 130.419 234.493 130.611 234.419 130.819C234.334 131.03 234.261 131.261 234.174 131.478C234.007 131.919 233.829 132.356 233.624 132.785C233.711 132.318 233.827 131.86 233.952 131.406C234.014 131.176 234.078 130.956 234.152 130.724C234.229 130.485 234.356 130.265 234.505 130.064C234.809 129.665 235.251 129.374 235.732 129.249C235.972 129.187 236.221 129.164 236.464 129.182C236.708 129.207 236.944 129.267 237.16 129.368Z" fill="#FF9A6C"/>
<path d="M234.733 133.859C234.816 133.736 234.902 133.634 234.983 133.531L235.223 133.232L235.46 132.93C235.542 132.827 235.621 132.721 235.723 132.612C235.74 132.76 235.714 132.904 235.667 133.04C235.619 133.176 235.548 133.304 235.458 133.416C235.368 133.53 235.26 133.628 235.138 133.706C235.016 133.782 234.882 133.842 234.733 133.859Z" fill="#FF9A6C"/>
<path d="M233.393 136.074C233.188 136.699 233.531 137.371 234.158 137.575C234.785 137.779 235.459 137.437 235.663 136.812C235.868 136.187 235.525 135.515 234.898 135.311C234.271 135.108 233.597 135.449 233.393 136.074Z" fill="#09B782"/>
<path d="M249.383 145.414C249.063 146.393 248.008 146.928 247.026 146.609C246.044 146.29 245.507 145.238 245.827 144.259C246.147 143.28 247.203 142.745 248.184 143.064C249.166 143.383 249.703 144.435 249.383 145.414Z" fill="#FF9A6C"/>
<path d="M248.535 146.454C248.286 146.632 247.981 146.744 247.665 146.763C247.349 146.788 247.028 146.718 246.741 146.581C246.457 146.439 246.208 146.225 246.035 145.961C245.86 145.698 245.762 145.39 245.751 145.084C245.825 145.381 245.959 145.653 246.138 145.887C246.32 146.118 246.552 146.306 246.814 146.435C247.076 146.563 247.366 146.634 247.661 146.636C247.956 146.639 248.254 146.576 248.535 146.454Z" fill="#E43F5A"/>
<path d="M201.977 218.728L186.749 212.896C180.876 210.647 174.234 212.956 171.035 218.356C167.943 223.577 168.934 230.243 173.412 234.346L183.773 243.838C187.5 247.252 192.377 249.147 197.438 249.147H222.235L238.22 252.371L239.597 250.644C240.577 249.415 241.273 247.987 241.636 246.46L242.378 243.344L277.427 234.397C284.759 232.526 289.44 225.378 288.211 217.933C286.757 209.131 277.776 203.693 269.271 206.464L235.54 217.457L201.977 218.728Z" fill="#1F4168"/>
<path d="M207.202 248.007L205.868 249.712C204.392 251.599 202.226 252.823 199.845 253.117L195.31 253.678L191.945 256.687C191.239 257.32 190.35 257.692 189.425 257.768C189.027 257.798 188.621 257.777 188.221 257.694C187.289 257.506 186.476 257.023 185.877 256.351C185.84 256.31 185.805 256.269 185.768 256.228C185.231 255.576 184.882 254.763 184.803 253.875C184.519 250.656 184.634 245.41 187.159 239.932C187.159 239.932 187.159 239.932 187.161 239.934L192.877 243.003C194.67 243.967 196.555 244.752 198.502 245.348L207.202 248.007Z" fill="#09B782"/>
<g opacity="0.4">
<path d="M188.623 249.89C188.623 252.309 187.58 254.612 185.777 256.228H185.768C185.231 255.576 184.882 254.764 184.803 253.876C184.519 250.657 184.634 245.41 187.159 239.932C187.159 239.932 187.159 239.932 187.161 239.934C187.208 240.036 188.625 243.796 188.623 249.89Z" fill="#A65B3C"/>
</g>
<path d="M189.425 257.768C189.027 257.798 188.621 257.777 188.221 257.694C187.289 257.506 186.476 257.023 185.877 256.351C185.84 256.31 185.805 256.269 185.768 256.228H185.777C187.58 254.612 188.623 252.309 188.623 249.889C188.625 243.796 187.208 240.036 187.161 239.934L192.877 243.003C194.822 252.567 189.74 257.473 189.425 257.768Z" fill="white"/>
<path d="M240.331 249.6C240.331 249.6 242.85 245.306 241.982 239.062L248.427 240.658H258.896L259.809 244.614C260.467 247.467 259.687 250.461 257.718 252.633L248.427 250.32L240.331 249.6Z" fill="#FFC89F"/>
<path d="M294.156 243.785C294.156 245.224 293.765 246.608 293.061 247.808C292.357 249.006 291.335 250.022 290.077 250.726L288.624 251.538C288.476 251.62 288.324 251.698 288.172 251.772C288.902 251.243 289.53 250.6 290.038 249.872C290.834 248.731 291.331 247.381 291.442 245.947C291.457 245.739 291.466 245.533 291.466 245.33C291.466 241.68 288.959 238.461 285.348 237.594C281.145 236.589 276.807 236.269 272.503 236.646L268.22 237.02L274.554 235.97C278.816 235.261 283.164 235.246 287.431 235.927C289.367 236.234 291.049 237.222 292.246 238.621C293.443 240.021 294.156 241.831 294.156 243.785Z" fill="white"/>
<g opacity="0.4">
<path d="M258.481 185.158L257.52 182.857L253.933 185.761L258.481 185.158Z" fill="#A65B3C"/>
</g>
<g opacity="0.4">
<path d="M211.104 175.115L198.519 203.248L201.464 198.546C203.689 194.993 205.507 191.202 206.884 187.245L211.104 175.115Z" fill="#A65B3C"/>
</g>
<g opacity="0.4">
<path d="M251.849 177.498L252.782 173.818L252.575 180.379L251.849 177.498Z" fill="#A65B3C"/>
</g>
<g opacity="0.4">
<path d="M207.202 248.007L222.235 249.147H206.31L207.202 248.007Z" fill="#1F4168"/>
</g>
<g opacity="0.4">
<path d="M187.158 239.932C186.847 240.606 186.573 241.275 186.334 241.938L179.101 235.68L187.158 239.932Z" fill="#1F4168"/>
</g>
<g opacity="0.4">
<path d="M223.91 232.447L220.975 230.741L236.013 226.469L223.91 232.447Z" fill="#1F4168"/>
</g>
<g opacity="0.4">
<path d="M252.9 240.657L265.158 237.529L244.967 239.801L248.427 240.657H252.9Z" fill="#1F4168"/>
</g>
<path d="M209.14 179.506L210.084 177.352L211.039 175.202C211.355 174.484 211.68 173.77 211.988 173.05C212.293 172.329 212.541 171.585 212.731 170.826C213.124 169.312 213.287 167.739 213.217 166.175C213.2 165.784 213.165 165.394 213.132 165.004L213.033 163.832L212.845 161.488C212.99 163.049 213.155 164.607 213.265 166.173C213.344 167.741 213.189 169.321 212.801 170.844C212.606 171.605 212.353 172.351 212.044 173.074C211.731 173.794 211.403 174.505 211.083 175.221L210.116 177.366L209.14 179.506Z" fill="#A65B3C"/>
<path d="M251.849 177.498C252.032 176.719 252.22 175.941 252.412 175.164L252.702 173.999C252.801 173.612 252.888 173.221 253.015 172.839C253.269 172.076 253.625 171.347 254.076 170.682C254.302 170.35 254.55 170.033 254.818 169.735C255.089 169.438 255.382 169.164 255.666 168.882C255.39 169.172 255.105 169.455 254.845 169.759C254.583 170.06 254.341 170.38 254.123 170.713C253.684 171.38 253.331 172.103 253.085 172.861C252.957 173.239 252.867 173.628 252.766 174.016L252.466 175.178C252.264 175.952 252.058 176.726 251.849 177.498Z" fill="#A65B3C"/>
<path d="M191.831 216.587L200.163 219.897C202.941 220.999 205.673 222.221 208.341 223.567C209.676 224.238 210.995 224.94 212.298 225.672C213.6 226.406 214.886 227.165 216.18 227.912L223.924 232.422L223.92 232.42L241.982 239.062L223.899 232.474L223.897 232.474L223.895 232.472L216.144 227.973C214.851 227.224 213.566 226.462 212.267 225.728C210.966 224.993 209.649 224.29 208.316 223.616C205.651 222.266 202.924 221.04 200.148 219.934L191.831 216.587Z" fill="#1B1A2E"/>
<path d="M223.91 232.447L235.728 226.582L247.551 220.728L253.468 217.812L256.427 216.354C257.41 215.863 258.405 215.388 259.425 214.975C261.461 214.142 263.574 213.493 265.728 213.04C266.805 212.816 267.893 212.64 268.986 212.514C270.08 212.393 271.176 212.301 272.271 212.194C271.177 212.307 270.081 212.405 268.988 212.532C267.896 212.664 266.811 212.845 265.736 213.075C263.585 213.532 261.476 214.183 259.443 215.02C258.425 215.435 257.434 215.91 256.451 216.403L253.496 217.867L247.584 220.794L235.75 226.626L223.91 232.447Z" fill="#1B1A2E"/>
<path d="M175.725 233.9L177.163 234.638L178.595 235.386L181.459 236.883L184.312 238.402L185.738 239.162L187.158 239.932L185.721 239.193L184.289 238.445L181.425 236.948L178.572 235.429L177.146 234.669L175.725 233.9Z" fill="#1B1A2E"/>
<path d="M167.893 164.965L137.165 158.575C124.678 155.978 116.666 143.78 119.271 131.33C121.875 118.881 134.11 110.893 146.597 113.49L177.326 119.88C189.813 122.477 197.825 134.675 195.22 147.125C192.615 159.574 180.381 167.562 167.893 164.965Z" fill="#FBC02D"/>
<path d="M136.019 130.343L135.42 133.206L140.051 134.169L139.494 136.83L134.864 135.867L134.214 138.972L139.452 140.061L138.874 142.823L130.178 141.015L133.139 126.862L141.835 128.67L141.257 131.432L136.019 130.343Z" fill="white"/>
<path d="M148.357 144.795L146.523 138.838L145.694 138.666L144.576 144.009L141.118 143.289L144.079 129.136L149.882 130.343C151.001 130.576 151.914 130.969 152.622 131.523C153.329 132.077 153.806 132.734 154.056 133.494C154.305 134.254 154.342 135.05 154.168 135.884C153.971 136.825 153.529 137.61 152.841 138.238C152.154 138.866 151.259 139.227 150.157 139.32L152.26 145.606L148.357 144.795ZM146.204 136.227L148.347 136.672C148.981 136.804 149.488 136.749 149.87 136.505C150.251 136.262 150.501 135.858 150.619 135.293C150.732 134.756 150.662 134.3 150.41 133.924C150.158 133.549 149.715 133.296 149.081 133.164L146.938 132.718L146.204 136.227Z" fill="white"/>
<path d="M157.51 145.878C156.527 145.029 155.825 143.981 155.403 142.737C154.981 141.492 154.915 140.177 155.205 138.793C155.495 137.408 156.081 136.233 156.966 135.267C157.85 134.301 158.913 133.624 160.155 133.237C161.396 132.85 162.685 132.795 164.019 133.073C165.354 133.35 166.513 133.914 167.496 134.763C168.478 135.613 169.175 136.656 169.584 137.891C169.994 139.126 170.054 140.436 169.765 141.82C169.475 143.205 168.891 144.384 168.012 145.358C167.133 146.332 166.075 147.014 164.841 147.402C163.606 147.791 162.321 147.846 160.987 147.569C159.652 147.291 158.493 146.728 157.51 145.878ZM164.601 143.86C165.439 143.249 165.988 142.325 166.246 141.089C166.508 139.839 166.376 138.77 165.851 137.882C165.326 136.995 164.498 136.433 163.366 136.198C162.22 135.959 161.229 136.139 160.394 136.737C159.558 137.335 159.008 138.265 158.744 139.528C158.482 140.778 158.614 141.847 159.139 142.735C159.663 143.622 160.499 144.185 161.645 144.424C162.777 144.659 163.762 144.471 164.601 143.86Z" fill="white"/>
<path d="M177.436 150.842L175.602 144.885L174.772 144.713L173.655 150.056L170.197 149.336L173.157 135.183L178.961 136.39C180.08 136.623 180.993 137.016 181.7 137.57C182.407 138.124 182.885 138.781 183.134 139.541C183.383 140.301 183.421 141.097 183.246 141.931C183.05 142.872 182.607 143.657 181.92 144.285C181.233 144.913 180.338 145.274 179.235 145.367L181.339 151.653L177.436 150.842ZM175.283 142.274L177.426 142.719C178.06 142.851 178.567 142.796 178.949 142.552C179.33 142.309 179.58 141.905 179.699 141.34C179.811 140.803 179.741 140.347 179.489 139.971C179.236 139.596 178.794 139.343 178.16 139.211L176.017 138.766L175.283 142.274Z" fill="white"/>
<path d="M279.603 203.361V199.968C279.603 193.435 278.685 186.935 276.876 180.657L269.864 156.327L269.685 144.97C269.66 143.406 268.954 141.93 267.75 140.927C266.65 140.01 265.006 140.188 264.128 141.317L263.258 141.223C262.799 141.173 262.347 141.364 262.064 141.727L260.883 143.241L260.306 143.228C259.847 143.218 259.415 143.445 259.164 143.828L257.58 146.243C256.61 146.419 255.847 147.168 255.656 148.133L255.446 149.198C255.12 150.846 255.483 152.555 256.452 153.929L261.786 161.495L263.727 176.907L257.52 182.857L264.8 200.292L264.654 203.109C264.503 207.567 268.287 211.159 272.746 210.79C276.621 210.469 279.603 207.239 279.603 203.361Z" fill="#FFC89F"/>
<path d="M205.045 176.12L209.14 179.506L198.519 203.248C198.519 203.248 197.823 207.499 196.272 211.324C195 214.46 191.661 216.242 188.329 215.606C184.966 214.964 182.534 212.032 182.534 208.618V206.959L182.293 204.178C182.058 201.478 182.67 198.772 184.045 196.434L196.658 174.976L191.195 174.828C190.1 174.798 189.227 173.904 189.227 172.812L188.475 172.709C187.678 172.6 186.992 172.096 186.65 171.371L186.231 170.479L185.797 170.273C185.44 170.104 185.161 169.806 185.016 169.44L184.796 168.881H182.461C181.16 168.881 180.106 167.83 180.106 166.534C180.106 166.178 180.186 165.826 180.344 165.507C180.906 164.364 182.441 161.545 184.651 159.788C185.089 159.44 185.706 159.427 186.17 159.739C186.748 160.127 186.915 160.9 186.549 161.491L185.743 162.791L188.337 160.999C188.884 160.622 189.547 160.451 190.209 160.517L191.929 160.688C192.318 160.727 192.685 160.887 192.978 161.145L193.105 161.258L195.597 161.374C197.313 161.453 198.947 162.161 200.149 163.385C201.068 164.32 202.045 165.627 202.708 167.366L204.309 168.904C205.674 170.216 206.197 172.174 205.667 173.989L205.045 176.12Z" fill="#FFC89F"/>
<path d="M189.467 172.184L189.932 170.928C190.089 170.51 190.238 170.091 190.407 169.675C190.593 169.263 190.927 168.92 191.334 168.721L192.56 168.174L192.552 168.179L193.243 167.54L193.589 167.221C193.707 167.112 193.847 167.023 194.002 166.973C194.31 166.871 194.665 166.915 194.934 167.1C195.069 167.192 195.18 167.317 195.254 167.462C195.326 167.608 195.365 167.764 195.385 167.922C195.421 168.24 195.357 168.568 195.206 168.848C195.057 169.13 194.845 169.372 194.609 169.582C194.129 169.994 193.573 170.303 193.001 170.563L193.013 170.545C193.004 171.409 192.983 172.272 192.968 173.136C192.97 172.272 192.965 171.408 192.972 170.544L192.973 170.532L192.984 170.526C193.553 170.264 194.103 169.952 194.574 169.543C194.805 169.334 195.011 169.096 195.154 168.822C195.299 168.549 195.357 168.234 195.321 167.93C195.301 167.778 195.262 167.626 195.194 167.493C195.124 167.358 195.02 167.243 194.895 167.158C194.643 166.989 194.312 166.946 194.023 167.039C193.728 167.126 193.525 167.385 193.287 167.587L192.591 168.222L192.588 168.225L192.583 168.227L191.355 168.765C190.957 168.957 190.629 169.29 190.444 169.691C190.276 170.102 190.121 170.523 189.955 170.936L189.467 172.184Z" fill="#FF9A6C"/>
<path d="M192.38 162.924C192.585 162.762 192.854 162.672 193.119 162.699C193.382 162.722 193.642 162.845 193.813 163.053C194.139 163.477 194.201 164.081 193.969 164.565C193.737 165.05 193.321 165.411 192.886 165.703C192.447 165.997 191.969 166.227 191.482 166.428L191.496 166.418L189.672 168.668L189.676 168.656C189.647 169.332 189.605 170.006 189.568 170.682C189.59 170.006 189.606 169.33 189.635 168.654L189.635 168.648L189.639 168.642L191.443 166.376L191.448 166.37L191.456 166.366C191.937 166.159 192.412 165.934 192.85 165.649C193.283 165.364 193.694 165.012 193.922 164.544C194.031 164.31 194.084 164.048 194.056 163.791C194.04 163.663 194.014 163.536 193.968 163.414C193.929 163.29 193.865 163.177 193.784 163.077C193.622 162.876 193.375 162.748 193.117 162.719C192.858 162.685 192.589 162.767 192.38 162.924Z" fill="#FF9A6C"/>
<path d="M186.231 169.894L186.215 168.802C186.196 168.439 186.241 168.062 186.393 167.725C186.466 167.556 186.563 167.397 186.676 167.251C186.79 167.104 186.928 166.982 187.054 166.851L187.826 166.077L189.375 164.532C189.633 164.268 189.961 164.07 190.316 163.967L191.377 163.692L191.37 163.696L192.379 162.924L191.393 163.724L191.39 163.726L191.386 163.727L190.331 164.019C189.987 164.126 189.672 164.32 189.421 164.578L187.875 166.125L187.099 166.896C186.971 167.027 186.835 167.149 186.723 167.288C186.61 167.428 186.514 167.582 186.44 167.746C186.364 167.909 186.312 168.083 186.281 168.261C186.246 168.438 186.249 168.619 186.246 168.802L186.231 169.894Z" fill="#FF9A6C"/>
<path d="M185.743 162.79C185.51 162.962 185.269 163.124 185.043 163.303C184.819 163.482 184.621 163.694 184.46 163.931C184.136 164.403 183.954 164.97 183.951 165.541C183.927 166.117 184.164 166.659 184.315 167.216C184.48 167.77 184.64 168.325 184.796 168.881C184.614 168.333 184.435 167.783 184.261 167.232L184.003 166.404C183.917 166.125 183.876 165.832 183.878 165.54C183.887 164.955 184.073 164.374 184.414 163.899C184.584 163.662 184.789 163.451 185.022 163.275C185.257 163.104 185.503 162.953 185.743 162.79Z" fill="#FF9A6C"/>
<path d="M193.105 161.257C193.331 161.413 193.479 161.681 193.506 161.959C193.519 162.099 193.502 162.241 193.456 162.373C193.412 162.506 193.332 162.621 193.252 162.73C193.307 162.604 193.372 162.486 193.402 162.357C193.434 162.229 193.447 162.096 193.433 161.966C193.409 161.705 193.292 161.456 193.105 161.257Z" fill="#FF9A6C"/>
<path d="M193.475 172.005C194.114 171.65 194.755 171.299 195.398 170.952L197.331 169.915C197.98 169.574 198.672 169.31 199.387 169.145C200.104 168.991 200.825 168.878 201.546 168.75L200.472 168.973C200.114 169.048 199.753 169.11 199.4 169.199C198.692 169.375 198.007 169.636 197.365 169.98L195.424 171.001C194.777 171.34 194.127 171.674 193.475 172.005Z" fill="#FF9A6C"/>
<path d="M200.062 167.875C199.411 167.842 198.76 167.806 198.11 167.764C197.458 167.733 196.807 167.627 196.179 167.444C195.866 167.351 195.557 167.241 195.257 167.111C194.957 166.98 194.666 166.836 194.372 166.695C193.785 166.412 193.2 166.126 192.617 165.836C193.212 166.101 193.805 166.371 194.396 166.644C194.693 166.777 194.985 166.923 195.283 167.05C195.582 167.177 195.889 167.284 196.2 167.375C196.822 167.561 197.465 167.666 198.114 167.709C198.763 167.76 199.413 167.816 200.062 167.875Z" fill="#FF9A6C"/>
<path d="M196.658 174.976C197.083 174.975 197.507 174.976 197.932 174.983L199.205 175.009L200.478 175.052C200.902 175.069 201.326 175.09 201.751 175.115C201.326 175.117 200.901 175.115 200.477 175.108L199.203 175.082L197.931 175.039C197.506 175.022 197.082 175.001 196.658 174.976Z" fill="#FF9A6C"/>
<path d="M198.909 197.147L199.659 194.514L200.42 191.883L201.942 186.623L203.488 181.37L204.261 178.743L205.045 176.12L204.295 178.753L203.534 181.384L202.012 186.644L200.466 191.897L199.693 194.524L198.909 197.147Z" fill="#FF9A6C"/>
<path d="M263.727 176.907L264.035 179.205L264.331 181.503L264.922 186.101L265.489 190.702L265.773 193.002L266.045 195.304L265.737 193.007L265.441 190.708L264.85 186.11L264.283 181.509L263.999 179.209L263.727 176.907Z" fill="#FF9A6C"/>
<path d="M268.097 192.66L258.328 222.665C258.078 223.431 257.362 223.95 256.554 223.95H208.04C207.636 223.95 207.245 223.859 206.891 223.689C206.556 223.53 206.254 223.298 206.008 223.01L216.264 191.512C216.295 191.418 216.334 191.326 216.379 191.238V191.237C216.425 191.149 216.476 191.066 216.533 190.989C216.878 190.52 217.432 190.227 218.038 190.227H266.324C266.37 190.227 266.415 190.229 266.459 190.233C266.463 190.231 266.468 190.233 266.471 190.233C266.516 190.236 266.56 190.242 266.602 190.247C266.645 190.253 266.687 190.261 266.728 190.271C266.775 190.28 266.821 190.293 266.867 190.306C266.905 190.317 266.943 190.331 266.979 190.344C267.073 190.379 267.162 190.421 267.247 190.469C267.277 190.486 267.308 190.505 267.337 190.524C267.445 190.594 267.546 190.674 267.635 190.765C267.66 190.79 267.685 190.814 267.709 190.841C267.722 190.855 267.733 190.868 267.744 190.883C267.766 190.906 267.785 190.931 267.804 190.956C267.821 190.976 267.837 190.998 267.852 191.021C267.861 191.034 267.871 191.047 267.88 191.062C267.926 191.132 267.967 191.205 268.004 191.279C268.204 191.69 268.255 192.178 268.097 192.66Z" fill="#FDFDFD"/>
<path d="M243.301 213.191C243.306 213.069 243.334 212.963 243.387 212.873C243.441 212.781 243.513 212.712 243.603 212.665C243.692 212.618 243.794 212.597 243.908 212.602C244.052 212.607 244.169 212.647 244.26 212.719C244.352 212.791 244.412 212.89 244.44 213.018L244.175 213.008C244.155 212.948 244.123 212.901 244.077 212.866C244.03 212.831 243.971 212.812 243.899 212.809C243.799 212.805 243.717 212.838 243.653 212.907C243.592 212.975 243.558 213.073 243.553 213.201C243.548 213.329 243.573 213.43 243.63 213.505C243.687 213.579 243.766 213.618 243.867 213.622C244.009 213.628 244.106 213.569 244.157 213.446L244.423 213.456C244.383 213.576 244.315 213.67 244.217 213.738C244.119 213.805 244 213.835 243.859 213.829C243.745 213.825 243.645 213.796 243.56 213.742C243.474 213.687 243.408 213.612 243.361 213.518C243.316 213.422 243.296 213.313 243.301 213.191Z" fill="#FFC603"/>
<path d="M242.969 212.426C242.924 212.424 242.887 212.408 242.858 212.376C242.829 212.345 242.816 212.307 242.818 212.262C242.819 212.218 242.836 212.181 242.867 212.152C242.899 212.123 242.937 212.109 242.981 212.111C243.025 212.113 243.061 212.129 243.09 212.161C243.119 212.192 243.132 212.23 243.13 212.275C243.129 212.319 243.112 212.356 243.081 212.385C243.049 212.414 243.012 212.428 242.969 212.426ZM243.083 212.588L243.036 213.777L242.79 213.767L242.837 212.578L243.083 212.588Z" fill="#FFC603"/>
<path d="M242.467 213.754L242.221 213.745L241.525 212.595L241.481 213.715L241.235 213.705L241.295 212.203L241.541 212.213L242.236 213.36L242.281 212.243L242.527 212.253L242.467 213.754Z" fill="#FFC603"/>
<path d="M240.374 213.69C240.262 213.686 240.161 213.657 240.072 213.603C239.984 213.547 239.916 213.472 239.867 213.378C239.819 213.283 239.798 213.174 239.803 213.052C239.808 212.931 239.838 212.825 239.895 212.733C239.952 212.642 240.028 212.573 240.122 212.526C240.216 212.479 240.32 212.458 240.434 212.463C240.547 212.467 240.649 212.497 240.739 212.551C240.829 212.605 240.899 212.68 240.948 212.775C240.998 212.871 241.02 212.979 241.015 213.1C241.011 213.221 240.979 213.327 240.921 213.418C240.862 213.51 240.784 213.579 240.687 213.627C240.592 213.674 240.487 213.695 240.374 213.69ZM240.382 213.477C240.446 213.479 240.505 213.466 240.561 213.438C240.618 213.41 240.665 213.367 240.702 213.308C240.739 213.249 240.759 213.176 240.763 213.09C240.766 213.004 240.753 212.93 240.722 212.87C240.691 212.808 240.649 212.761 240.596 212.729C240.542 212.696 240.484 212.679 240.421 212.676C240.357 212.674 240.298 212.687 240.242 212.715C240.188 212.743 240.143 212.786 240.109 212.845C240.075 212.903 240.056 212.975 240.053 213.062C240.048 213.19 240.076 213.29 240.138 213.363C240.202 213.435 240.283 213.473 240.382 213.477Z" fill="#09B782"/>
<path d="M239.317 212.611C239.356 212.552 239.405 212.507 239.465 212.476C239.527 212.444 239.599 212.43 239.681 212.433L239.671 212.687L239.608 212.685C239.512 212.681 239.437 212.703 239.385 212.75C239.334 212.797 239.306 212.88 239.302 213.001L239.277 213.627L239.031 213.617L239.078 212.428L239.324 212.438L239.317 212.611Z" fill="#09B782"/>
<path d="M238.554 212.608L238.528 213.266C238.526 213.311 238.535 213.344 238.554 213.365C238.575 213.384 238.611 213.395 238.661 213.397L238.812 213.403L238.804 213.608L238.61 213.6C238.499 213.596 238.415 213.567 238.358 213.513C238.301 213.458 238.275 213.373 238.28 213.257L238.306 212.598L238.166 212.593L238.174 212.392L238.314 212.398L238.326 212.102L238.574 212.112L238.562 212.408L238.851 212.419L238.843 212.62L238.554 212.608Z" fill="#09B782"/>
<path d="M237.527 212.963L238.052 213.578L237.719 213.565L237.299 213.036L237.279 213.547L237.033 213.537L237.097 211.941L237.343 211.95L237.306 212.878L237.758 212.376L238.099 212.389L237.527 212.963Z" fill="#09B782"/>
<path d="M236.816 212.904C236.814 212.949 236.81 212.989 236.802 213.025L235.894 212.988C235.897 213.084 235.93 213.161 235.991 213.221C236.052 213.281 236.128 213.313 236.22 213.317C236.353 213.322 236.448 213.271 236.507 213.162L236.773 213.173C236.732 213.281 236.663 213.368 236.566 213.435C236.469 213.5 236.351 213.53 236.212 213.524C236.098 213.52 235.997 213.49 235.909 213.436C235.821 213.381 235.754 213.306 235.706 213.212C235.659 213.117 235.638 213.008 235.643 212.886C235.648 212.763 235.677 212.657 235.729 212.567C235.783 212.475 235.856 212.406 235.947 212.36C236.04 212.313 236.144 212.292 236.261 212.296C236.373 212.301 236.472 212.329 236.558 212.382C236.644 212.434 236.709 212.506 236.755 212.597C236.8 212.687 236.82 212.789 236.816 212.904ZM236.562 212.816C236.564 212.726 236.535 212.652 236.474 212.595C236.413 212.537 236.335 212.507 236.242 212.503C236.157 212.5 236.083 212.524 236.021 212.576C235.958 212.627 235.919 212.698 235.904 212.79L236.562 212.816Z" fill="#09B782"/>
<path d="M235.442 211.875L235.378 213.471L235.132 213.461L235.196 211.865L235.442 211.875Z" fill="#09B782"/>
<path d="M234.299 212.125L234.281 212.565L234.799 212.586L234.791 212.787L234.273 212.766L234.255 213.226L234.837 213.249L234.829 213.449L234.001 213.416L234.061 211.915L234.889 211.948L234.881 212.148L234.299 212.125Z" fill="#09B782"/>
<path d="M236.856 209.755C236.606 209.697 236.393 209.533 236.273 209.306C236.153 209.08 236.136 208.813 236.227 208.574L236.956 206.31C236.427 206.241 235.968 205.878 235.795 205.341L235.406 204.138C235.371 204.028 235.431 203.91 235.541 203.874C235.547 203.872 235.552 203.871 235.558 203.869C235.663 203.845 235.77 203.905 235.804 204.009L236.192 205.212C236.323 205.616 236.683 205.881 237.087 205.902L238.11 202.726L234.93 203.399C234.7 203.447 234.542 203.658 234.559 203.892L235.078 209.91C235.099 210.205 235.376 210.414 235.666 210.353L237.634 209.936L236.856 209.755L236.856 209.755Z" fill="#FFC603"/>
<path d="M241.422 202.876L240.667 202.705L240.838 201.949C240.902 201.672 241.178 201.498 241.455 201.561L242.21 201.733L242.038 202.488C241.975 202.766 241.699 202.939 241.422 202.876Z" fill="url(#paint1_linear_179_5504)"/>
<path d="M243.307 202.402L242.552 202.23L242.724 201.475C242.787 201.197 243.063 201.023 243.34 201.086L244.096 201.258L243.924 202.014C243.861 202.291 243.585 202.465 243.307 202.402Z" fill="url(#paint2_linear_179_5504)"/>
<path d="M239.98 201.579L239.454 201.459L239.573 200.932C239.612 200.761 239.783 200.653 239.955 200.692L240.481 200.812L240.362 201.339C240.323 201.511 240.152 201.618 239.98 201.579Z" fill="url(#paint3_linear_179_5504)"/>
<path d="M244.032 204.282C244.049 204.052 243.895 203.844 243.671 203.791L239.225 202.754C239.196 202.747 239.166 202.743 239.137 202.742C238.939 202.734 238.753 202.852 238.68 203.043L236.602 208.714C236.496 208.99 236.658 209.297 236.947 209.364L242.921 210.759C242.952 210.766 242.983 210.77 243.013 210.771C243.27 210.781 243.5 210.585 243.518 210.317L244.032 204.282L244.032 204.282Z" fill="#09B782"/>
<path d="M239.26 204.028L239.071 205.278C238.961 206.006 239.418 206.688 240.132 206.864L240.872 207.047C240.878 207.049 240.884 207.05 240.89 207.051C241.602 207.218 242.332 206.806 242.558 206.108L242.953 204.891C242.988 204.781 242.928 204.663 242.818 204.628C242.813 204.626 242.807 204.624 242.801 204.623C242.697 204.598 242.589 204.658 242.555 204.762L242.161 205.98C242.002 206.471 241.491 206.762 240.987 206.645C240.982 206.644 240.977 206.642 240.972 206.641L240.232 206.459C239.728 206.334 239.407 205.854 239.484 205.341L239.673 204.091C239.689 203.982 239.62 203.88 239.515 203.856C239.509 203.855 239.503 203.854 239.498 203.853C239.383 203.835 239.277 203.914 239.26 204.028L239.26 204.028Z" fill="#FDFDFD"/>
<path d="M209.531 212.193V212.195L206.869 223.677C206.546 223.521 206.255 223.297 206.016 223.019C206.014 223.016 206.011 223.013 206.008 223.01L197.878 213.428C197.464 212.941 197.812 212.193 198.452 212.193H209.531Z" fill="#E1E6EB"/>
<path d="M257.58 146.243C257.018 146.36 256.504 146.675 256.157 147.122C255.982 147.344 255.846 147.597 255.761 147.866C255.678 148.133 255.64 148.42 255.581 148.699C255.526 148.98 255.463 149.259 255.422 149.54C255.38 149.821 255.362 150.106 255.358 150.39C255.352 150.959 255.424 151.53 255.567 152.083C255.398 151.537 255.305 150.965 255.301 150.39C255.297 150.103 255.317 149.815 255.356 149.531C255.395 149.245 255.457 148.966 255.51 148.685C255.571 148.406 255.61 148.123 255.698 147.845C255.789 147.57 255.927 147.309 256.113 147.087C256.298 146.864 256.518 146.67 256.77 146.528C257.021 146.386 257.297 146.289 257.58 146.243Z" fill="#FF9A6C"/>
<path d="M260.883 143.241C260.485 143.257 260.064 143.191 259.71 143.385C259.535 143.474 259.378 143.598 259.259 143.753C259.143 143.91 259.039 144.086 258.929 144.252L258.262 145.253C258.038 145.585 257.811 145.915 257.579 146.243C257.788 145.9 258 145.56 258.215 145.222L258.868 144.212C258.981 144.046 259.083 143.877 259.206 143.712C259.334 143.552 259.499 143.42 259.686 143.335C259.872 143.25 260.077 143.205 260.28 143.211L260.883 143.241Z" fill="#FF9A6C"/>
<path d="M268.004 191.279C267.749 191.148 267.462 191.074 267.15 191.074H218.864C218.056 191.074 217.341 191.592 217.091 192.359L206.891 223.689C206.884 223.686 206.876 223.682 206.869 223.677C206.546 223.521 206.255 223.297 206.016 223.019C206.014 223.016 206.011 223.013 206.008 223.01L209.531 212.195V212.193L216.265 191.514C216.296 191.418 216.334 191.326 216.379 191.238V191.237C216.425 191.149 216.476 191.066 216.533 190.989C216.878 190.52 217.432 190.227 218.038 190.227H266.324C266.37 190.227 266.415 190.229 266.459 190.233C266.463 190.231 266.468 190.233 266.471 190.233C266.516 190.236 266.56 190.242 266.602 190.247C266.645 190.253 266.687 190.261 266.728 190.271C266.775 190.28 266.821 190.293 266.867 190.306C266.905 190.317 266.943 190.331 266.979 190.344C267.073 190.379 267.162 190.421 267.247 190.469C267.277 190.486 267.308 190.505 267.337 190.524C267.445 190.594 267.546 190.674 267.635 190.765C267.66 190.79 267.685 190.814 267.709 190.841C267.722 190.855 267.733 190.868 267.744 190.883C267.766 190.906 267.785 190.931 267.804 190.956C267.821 190.976 267.837 190.998 267.852 191.021C267.861 191.034 267.871 191.047 267.88 191.062C267.926 191.132 267.967 191.205 268.004 191.279Z" fill="#E1E6EB"/>
</g>
<defs>
<linearGradient id="paint0_linear_179_5504" x1="85.4588" y1="204.437" x2="139.12" y2="204.437" gradientUnits="userSpaceOnUse">
<stop stop-color="#DC554D"/>
<stop offset="1" stop-color="#D32B20"/>
</linearGradient>
<linearGradient id="paint1_linear_179_5504" x1="240.687" y1="202.189" x2="242.189" y2="202.249" gradientUnits="userSpaceOnUse">
<stop stop-color="#DC554D"/>
<stop offset="1" stop-color="#D32B20"/>
</linearGradient>
<linearGradient id="paint2_linear_179_5504" x1="242.573" y1="201.714" x2="244.075" y2="201.774" gradientUnits="userSpaceOnUse">
<stop stop-color="#DC554D"/>
<stop offset="1" stop-color="#D32B20"/>
</linearGradient>
<linearGradient id="paint3_linear_179_5504" x1="239.467" y1="201.116" x2="240.468" y2="201.156" gradientUnits="userSpaceOnUse">
<stop stop-color="#DC554D"/>
<stop offset="1" stop-color="#D32B20"/>
</linearGradient>
<clipPath id="clip0_179_5504">
<rect width="380" height="306" fill="white"/>
</clipPath>
</defs>
</svg>
