<svg width="375" height="402" viewBox="0 0 375 402" fill="none" xmlns="http://www.w3.org/2000/svg">
<path d="M0 0H375V358.12C375 358.12 286.5 400.185 187.5 397.911C88.5 395.637 0 358.12 0 358.12V0Z" fill="white"/>
<path d="M345.797 230.29C345.773 230.683 345.761 231.088 345.726 231.481C345.297 240.215 344.357 248.924 342.964 257.598C342.834 258.42 342.703 259.242 342.56 260.063C342.5 260.469 342.429 260.862 342.357 261.255C342.203 262.149 342.048 263.042 341.869 263.924C340.286 272.633 338.263 281.283 335.907 289.825C335.799 290.218 335.68 290.612 335.573 291.017C335.288 292.053 334.99 293.078 334.693 294.115C332.348 302.228 329.432 310.592 325.147 317.967C324.719 318.717 324.266 319.456 323.814 320.183H43.8563C42.9399 319.48 42.059 318.741 41.2141 317.967C36.3701 313.511 32.7518 307.935 31.4902 301.918C31.0261 299.738 30.8831 297.51 31.0974 295.246C31.1807 294.377 31.3118 293.531 31.4902 292.697C33.8108 281.616 43.773 273.36 51.295 263.924C52.9256 261.887 54.449 259.79 55.7345 257.598C56.3415 256.597 56.8891 255.572 57.3769 254.524C60.781 247.304 61.3402 239.381 60.3643 231.481C60.1263 229.528 59.7929 227.585 59.3765 225.643C58.6147 221.962 57.5792 218.328 56.401 214.79C55.3655 211.668 54.235 208.558 53.0922 205.449C49.5216 195.691 45.8916 185.922 45.2012 175.663C43.3683 148.737 64.8989 122.097 92.9757 116.557C109.567 113.28 126.694 116.688 143.357 119.583C160.019 122.478 177.599 124.813 193.607 119.571C201.748 116.902 209.127 111.767 214.149 105.167C216.542 102.01 218.446 98.495 219.481 94.7417C220.303 91.775 218.946 85.9731 220.231 83.6496C223.671 77.478 238.977 77.3589 245.023 77.895C253.771 78.6693 262.317 81.517 270.053 85.3414C293.607 96.9936 312.186 115.866 324.969 137.931C325.564 138.944 326.147 139.968 326.695 140.993C326.885 141.326 327.076 141.672 327.254 142.006C327.29 142.065 327.325 142.125 327.349 142.184C332.253 151.31 336.18 160.925 339.096 170.766C339.215 171.16 339.335 171.553 339.43 171.958C339.656 172.732 339.882 173.507 340.084 174.281C340.406 175.46 340.715 176.64 341.001 177.82C342.834 185.326 344.131 192.903 344.928 200.528C344.976 200.921 345.023 201.326 345.059 201.719C345.999 211.191 346.213 220.735 345.797 230.29Z" fill="#F3F1FC"/>
<path d="M59.3764 225.644C59.793 227.586 60.1262 229.528 60.3642 231.482C61.3403 239.381 60.781 247.304 57.3769 254.524C56.8839 255.571 56.3304 256.593 55.7368 257.596H342.943C344.329 248.925 345.302 240.209 345.726 231.482C345.761 231.088 345.773 230.684 345.797 230.29C346.213 220.735 345.999 211.192 345.059 201.72C345.023 201.327 344.976 200.922 344.928 200.528C344.131 192.903 342.834 185.326 341.001 177.82C340.715 176.64 340.405 175.461 340.084 174.281H324.707C323.683 174.281 322.85 175.115 322.85 176.14V209.083C322.85 211.049 321.267 212.633 319.303 212.633H303.426C301.462 212.633 299.879 211.049 299.879 209.083V169.516C299.879 168.491 299.046 167.657 298.023 167.657H291.548C290.524 167.657 289.691 168.491 289.691 169.516V197.669C289.691 199.635 288.108 201.22 286.144 201.22H257.651C255.687 201.22 254.104 199.635 254.104 197.669V163.237C254.104 162.212 253.271 161.378 252.248 161.378H212.4C211.376 161.378 210.543 162.212 210.543 163.237V183.265C210.543 185.231 208.96 186.815 206.996 186.815H184.466C182.502 186.815 180.919 185.231 180.919 183.265V163.845C180.919 162.82 180.086 161.986 179.063 161.986H175.706C174.683 161.986 173.85 162.82 173.85 163.845V201.898C173.85 203.865 172.267 205.449 170.303 205.449H164.078C162.114 205.449 160.531 203.865 160.531 201.898V186.315C160.531 184.838 159.341 183.646 157.865 183.646H140.072C138.596 183.646 137.406 184.838 137.406 186.315V208.011C137.406 209.976 135.823 211.561 133.859 211.561H123.683C121.719 211.561 120.136 209.976 120.136 208.011V162.212C120.136 161.188 119.303 160.354 118.28 160.354H93.4639C92.4403 160.354 91.6072 161.188 91.6072 162.212V201.898C91.6072 203.865 90.0242 205.449 88.0604 205.449H53.0922C54.2349 208.559 55.3655 211.668 56.4009 214.79C57.5792 218.328 58.6146 221.962 59.3764 225.644Z" fill="#D0CEF2"/>
<path d="M87.0722 118.058V320.183H80.7642V120.441C82.8114 119.524 84.9179 118.725 87.0722 118.058Z" fill="white"/>
<path d="M145.273 260.731V119.917C144.63 119.81 143.999 119.69 143.357 119.583C141.893 119.333 140.417 119.071 138.953 118.821V260.731L145.273 260.731Z" fill="white"/>
<path d="M342.964 257.598C342.834 258.42 342.703 259.242 342.56 260.063C342.5 260.469 342.429 260.862 342.357 261.255C342.203 262.149 342.048 263.042 341.87 263.924H51.2949C52.9255 261.887 54.449 259.79 55.7344 257.598H342.964Z" fill="white"/>
<path d="M261.662 260.833V81.7319C259.591 80.9811 257.485 80.3022 255.342 79.7423V260.833L261.662 260.833Z" fill="white"/>
<path d="M323.485 320.136C323.064 320.887 322.619 321.626 322.174 322.352C318.332 328.476 313.458 333.79 307.028 337.507C296.415 343.655 283.401 344.322 270.985 344.632C209.359 346.157 147.605 342.94 86.5174 335.029C74.4876 333.468 62.1531 331.622 51.7046 325.736C49.9475 324.747 48.2491 323.615 46.6442 322.352C45.7422 321.65 44.8755 320.911 44.0436 320.136H323.485Z" fill="#E2DFF4"/>
<path d="M126.985 90.4604C123.521 86.5956 118.103 84.5469 112.952 85.2246C108.696 85.7845 104.707 88.0476 100.415 87.9736C96.8464 87.9119 93.4978 86.2246 90.5665 84.1855C87.6351 82.1466 84.9739 79.7206 81.9238 77.8643C78.8736 76.0082 75.2762 74.7307 71.7556 75.3208C68.9191 75.7963 66.3859 77.4502 64.3675 79.5015C62.4772 81.4225 58.4652 86.5607 59.0512 90.4604H126.985Z" fill="#F3F1FC"/>
<path d="M144.489 134.892C142.047 132.167 138.227 130.723 134.595 131.201C131.595 131.595 128.783 133.191 125.757 133.139C123.24 133.095 120.88 131.906 118.813 130.468C116.746 129.031 114.87 127.32 112.719 126.012C110.569 124.703 108.033 123.802 105.55 124.218C103.55 124.553 101.765 125.72 100.342 127.166C99.0088 128.52 96.1802 132.143 96.5934 134.892H144.489V134.892Z" fill="white"/>
<path d="M242.432 92.6138C242.12 89.6555 244.055 85.0976 246.115 84.6132C248.175 84.1287 250.244 85.2678 252.12 86.58C253.996 87.8924 255.859 89.4262 257.928 89.8121C262.695 90.7007 267.033 85.3615 271.837 85.0845C277.29 84.7703 282.456 91.01 287.765 89.2016C290.15 88.3893 292.339 85.9789 294.775 86.3608C297.225 86.745 298.989 89.7969 300.476 92.6138L242.432 92.6138Z" fill="white"/>
<path d="M312.844 125.488V303.46C312.844 309.231 308.169 313.911 302.403 313.911H207.782C202.017 313.911 197.342 309.231 197.342 303.46V125.488C197.342 119.715 202.017 115.036 207.782 115.036H302.403C308.169 115.036 312.844 119.715 312.844 125.488Z" fill="#4C5C75"/>
<path d="M307.922 125.489V303.462C307.922 306.51 305.454 308.98 302.409 308.98H207.786C204.735 308.98 202.261 306.504 202.261 303.45V125.489C202.261 122.434 204.735 119.958 207.786 119.958H234.569C235.251 119.958 235.804 120.511 235.804 121.193V122.951C235.804 124.4 236.977 125.575 238.424 125.575H271.77C273.211 125.575 274.379 124.405 274.379 122.963V121.193C274.379 120.511 274.932 119.958 275.613 119.958H302.396C305.435 119.958 307.922 122.447 307.922 125.489Z" fill="white"/>
<path d="M267.8 181.204C267.8 180.847 267.889 180.534 268.066 180.265C268.249 179.992 268.499 179.782 268.817 179.635C269.135 179.488 269.5 179.415 269.912 179.415C270.433 179.415 270.863 179.515 271.202 179.717C271.546 179.915 271.778 180.198 271.898 180.568H270.936C270.858 180.396 270.733 180.261 270.561 180.165C270.389 180.068 270.172 180.02 269.912 180.02C269.547 180.02 269.255 180.125 269.036 180.335C268.822 180.541 268.715 180.83 268.715 181.204C268.715 181.578 268.822 181.87 269.036 182.08C269.255 182.29 269.547 182.395 269.912 182.395C270.428 182.395 270.769 182.213 270.936 181.847H271.898C271.773 182.2 271.538 182.481 271.194 182.691C270.85 182.897 270.423 183 269.912 183C269.5 183 269.135 182.927 268.817 182.78C268.499 182.628 268.249 182.418 268.066 182.15C267.889 181.876 267.8 181.561 267.8 181.204Z" fill="#FFC603"/>
<path d="M266.489 179.011C266.327 179.011 266.192 178.967 266.082 178.879C265.973 178.791 265.918 178.682 265.918 178.551C265.918 178.421 265.973 178.312 266.082 178.224C266.192 178.135 266.327 178.091 266.489 178.091C266.645 178.091 266.778 178.135 266.888 178.224C266.997 178.312 267.052 178.421 267.052 178.551C267.052 178.682 266.997 178.791 266.888 178.879C266.778 178.967 266.645 179.011 266.489 179.011ZM266.927 179.471V182.944H266.035V179.471H266.927Z" fill="#FFC603"/>
<path d="M264.864 182.944H263.973L261.29 179.673V182.944H260.399V178.558H261.29L263.973 181.822V178.558H264.864V182.944Z" fill="#FFC603"/>
<path d="M257.281 183C256.874 183 256.507 182.927 256.178 182.78C255.85 182.628 255.592 182.418 255.404 182.15C255.216 181.876 255.122 181.561 255.122 181.204C255.122 180.851 255.219 180.538 255.412 180.265C255.605 179.992 255.868 179.782 256.202 179.635C256.535 179.488 256.908 179.415 257.32 179.415C257.732 179.415 258.105 179.488 258.438 179.635C258.772 179.782 259.035 179.992 259.228 180.265C259.421 180.538 259.518 180.851 259.518 181.204C259.518 181.557 259.418 181.87 259.22 182.143C259.022 182.416 258.751 182.628 258.407 182.78C258.068 182.927 257.693 183 257.281 183ZM257.281 182.376C257.51 182.376 257.724 182.332 257.922 182.244C258.126 182.156 258.29 182.024 258.415 181.847C258.54 181.671 258.603 181.456 258.603 181.204C258.603 180.952 258.543 180.74 258.423 180.568C258.303 180.391 258.144 180.259 257.946 180.171C257.748 180.083 257.534 180.039 257.304 180.039C257.075 180.039 256.861 180.083 256.663 180.171C256.47 180.259 256.316 180.391 256.202 180.568C256.087 180.74 256.03 180.952 256.03 181.204C256.03 181.578 256.147 181.868 256.382 182.074C256.621 182.276 256.921 182.376 257.281 182.376Z" fill="#09B782"/>
<path d="M253.302 179.976C253.432 179.799 253.604 179.663 253.818 179.566C254.037 179.465 254.295 179.415 254.592 179.415V180.158H254.366C254.016 180.158 253.75 180.23 253.568 180.373C253.391 180.515 253.302 180.763 253.302 181.116V182.944H252.41V179.471H253.302V179.976Z" fill="#09B782"/>
<path d="M250.541 180.057V181.979C250.541 182.109 250.577 182.204 250.65 182.263C250.729 182.317 250.859 182.345 251.041 182.345H251.589V182.943H250.885C250.484 182.943 250.176 182.868 249.962 182.717C249.748 182.565 249.642 182.32 249.642 181.979V180.057H249.133V179.471H249.642V178.608H250.541V179.471H251.589V180.057H250.541Z" fill="#09B782"/>
<path d="M246.875 181.21L248.862 182.943H247.657L246.062 181.45V182.943H245.17V178.28H246.062V180.99L247.626 179.471H248.862L246.875 181.21Z" fill="#09B782"/>
<path d="M244.293 181.122C244.293 181.253 244.283 181.37 244.262 181.475H240.969C240.995 181.753 241.123 181.975 241.353 182.143C241.582 182.311 241.863 182.395 242.197 182.395C242.677 182.395 243.016 182.234 243.214 181.91H244.176C244.045 182.229 243.808 182.492 243.464 182.698C243.125 182.899 242.703 183 242.197 183C241.785 183 241.415 182.927 241.087 182.78C240.763 182.628 240.508 182.418 240.32 182.15C240.138 181.876 240.047 181.561 240.047 181.204C240.047 180.847 240.135 180.534 240.312 180.265C240.495 179.992 240.748 179.782 241.071 179.635C241.399 179.488 241.775 179.415 242.197 179.415C242.604 179.415 242.966 179.486 243.284 179.629C243.602 179.772 243.85 179.973 244.027 180.234C244.204 180.49 244.293 180.786 244.293 181.122ZM243.362 180.896C243.357 180.631 243.24 180.419 243.01 180.259C242.781 180.099 242.497 180.02 242.158 180.02C241.85 180.02 241.587 180.099 241.368 180.259C241.149 180.415 241.019 180.627 240.977 180.896H243.362Z" fill="#09B782"/>
<path d="M239.173 178.28V182.943H238.282V178.28H239.173Z" fill="#09B782"/>
<path d="M235.072 179.144V180.429H236.949V181.015H235.072V182.357H237.183V182.944H234.18V178.558H237.183V179.144H235.072Z" fill="#09B782"/>
<path d="M243.983 171.935C243.069 171.795 242.276 171.342 241.807 170.694C241.341 170.048 241.242 169.272 241.536 168.564L243.846 161.878C241.925 161.74 240.21 160.734 239.505 159.189L237.926 155.725C237.782 155.409 237.983 155.058 238.375 154.941C238.395 154.935 238.416 154.93 238.437 154.925C238.813 154.841 239.21 155.004 239.347 155.304L240.925 158.767C241.456 159.93 242.797 160.661 244.262 160.675L247.504 151.295L236.095 153.627C235.271 153.795 234.728 154.428 234.823 155.109L237.573 172.593C237.692 173.452 238.725 174.029 239.764 173.816L246.824 172.372L243.983 171.934V171.935Z" fill="#FFC603"/>
<path d="M259.511 151.347L256.754 150.934L257.266 148.711C257.455 147.894 258.428 147.356 259.441 147.507L262.198 147.92L261.686 150.143C261.497 150.96 260.524 151.498 259.511 151.347Z" fill="url(#paint0_linear_444_24012)"/>
<path d="M266.265 149.744L263.508 149.331L264.02 147.108C264.209 146.292 265.183 145.753 266.195 145.904L268.952 146.317L268.44 148.54C268.252 149.357 267.278 149.895 266.265 149.744Z" fill="url(#paint1_linear_444_24012)"/>
<path d="M254.108 147.733L252.184 147.445L252.541 145.894C252.657 145.389 253.26 145.055 253.886 145.15L255.81 145.438L255.453 146.988C255.336 147.493 254.734 147.827 254.108 147.733Z" fill="url(#paint2_linear_444_24012)"/>
<path d="M269.161 155.142C269.187 154.468 268.601 153.88 267.78 153.752L251.546 151.246C251.438 151.229 251.33 151.221 251.224 151.221C250.507 151.221 249.85 151.587 249.613 152.153L242.913 168.929C242.57 169.748 243.202 170.622 244.255 170.786L266.074 174.155C266.187 174.173 266.299 174.181 266.409 174.181C267.343 174.181 268.144 173.582 268.172 172.799L269.16 155.142H269.161Z" fill="#09B782"/>
<path d="M251.853 154.956L251.351 158.624C251.06 160.759 252.809 162.694 255.42 163.125L258.125 163.572C258.147 163.575 258.168 163.579 258.189 163.582C260.79 163.984 263.374 162.7 264.091 160.638L265.341 157.043C265.455 156.718 265.219 156.382 264.817 156.29C264.797 156.286 264.776 156.282 264.755 156.278C264.373 156.219 263.992 156.406 263.884 156.713L262.634 160.309C262.129 161.759 260.322 162.669 258.481 162.385C258.464 162.383 258.446 162.38 258.429 162.377L255.723 161.931C253.883 161.627 252.65 160.263 252.856 158.758L253.358 155.091C253.402 154.773 253.137 154.484 252.753 154.425C252.732 154.422 252.71 154.42 252.689 154.417C252.273 154.38 251.9 154.622 251.853 154.956V154.956Z" fill="#FDFDFD"/>
<path d="M267.592 120.303C267.592 121.075 266.966 121.701 266.195 121.701H251.945C251.173 121.701 250.547 121.075 250.547 120.303C250.547 119.53 251.173 118.904 251.945 118.904H266.195C266.966 118.904 267.592 119.53 267.592 120.303Z" fill="white"/>
<path d="M246.274 120.303C246.274 121.075 245.649 121.701 244.877 121.701H243.992C243.22 121.701 242.594 121.075 242.594 120.303C242.594 119.53 243.22 118.904 243.992 118.904H244.877C245.649 118.904 246.274 119.53 246.274 120.303Z" fill="white"/>
<path d="M305.062 126.14C305.062 128.316 303.296 130.084 301.117 130.084C298.938 130.084 297.172 128.316 297.172 126.14C297.172 123.959 298.938 122.191 301.117 122.191C303.296 122.191 305.062 123.959 305.062 126.14Z" fill="#EBF4FE"/>
<path d="M302.322 127.761C302.215 127.761 302.11 127.72 302.028 127.639L299.618 125.225C299.455 125.062 299.455 124.799 299.618 124.637C299.78 124.474 300.043 124.474 300.206 124.637L302.616 127.05C302.779 127.213 302.779 127.476 302.616 127.639C302.535 127.72 302.429 127.761 302.322 127.761Z" fill="#09B782"/>
<path d="M299.912 127.761C299.805 127.761 299.699 127.72 299.618 127.639C299.455 127.476 299.455 127.213 299.618 127.05L302.028 124.637C302.191 124.474 302.454 124.474 302.616 124.637C302.779 124.799 302.779 125.062 302.616 125.225L300.206 127.639C300.124 127.72 300.019 127.761 299.912 127.761Z" fill="#09B782"/>
<path d="M215.505 124.102H206.546C206.329 124.102 206.153 123.927 206.153 123.709C206.153 123.492 206.329 123.317 206.546 123.317H215.505C215.723 123.317 215.898 123.492 215.898 123.709C215.898 123.927 215.723 124.102 215.505 124.102Z" fill="#EBF4FE"/>
<path d="M215.505 126.553H206.546C206.329 126.553 206.153 126.378 206.153 126.161C206.153 125.943 206.329 125.768 206.546 125.768H215.505C215.723 125.768 215.898 125.943 215.898 126.161C215.898 126.378 215.723 126.553 215.505 126.553Z" fill="#EBF4FE"/>
<path d="M215.505 129.004H206.546C206.329 129.004 206.153 128.829 206.153 128.612C206.153 128.394 206.329 128.219 206.546 128.219H215.505C215.723 128.219 215.898 128.394 215.898 128.612C215.898 128.829 215.723 129.004 215.505 129.004Z" fill="#EBF4FE"/>
<path d="M332.157 228.396C332.157 228.596 331.994 228.758 331.795 228.758C330.282 228.758 329.052 229.99 329.052 231.504C329.052 231.704 328.89 231.866 328.69 231.866C328.49 231.866 328.328 231.704 328.328 231.504C328.328 230.771 328.043 230.081 327.525 229.562C327.008 229.044 326.319 228.758 325.586 228.758C325.386 228.758 325.224 228.596 325.224 228.396C325.224 228.196 325.386 228.034 325.586 228.034C326.318 228.034 327.007 227.748 327.525 227.23C328.043 226.711 328.328 226.021 328.328 225.288C328.328 225.088 328.49 224.926 328.69 224.926C328.89 224.926 329.052 225.088 329.052 225.288C329.052 226.023 329.337 226.713 329.855 227.23C330.373 227.748 331.062 228.034 331.795 228.034C331.994 228.034 332.157 228.196 332.157 228.396Z" fill="white"/>
<path d="M301.222 145.47C301.222 145.628 301.093 145.757 300.935 145.757C299.737 145.757 298.762 146.732 298.762 147.932C298.762 148.09 298.633 148.219 298.475 148.219C298.317 148.219 298.188 148.091 298.188 147.932C298.188 147.351 297.963 146.805 297.552 146.394C297.143 145.983 296.597 145.757 296.015 145.757C295.857 145.757 295.729 145.628 295.729 145.47C295.729 145.312 295.857 145.183 296.015 145.183C296.596 145.183 297.141 144.957 297.552 144.546C297.963 144.135 298.188 143.589 298.188 143.008C298.188 142.849 298.317 142.721 298.475 142.721C298.633 142.721 298.762 142.849 298.762 143.008C298.762 143.59 298.988 144.136 299.398 144.546C299.809 144.957 300.355 145.183 300.935 145.183C301.093 145.183 301.222 145.311 301.222 145.47Z" fill="#6EB954"/>
<path d="M297.806 190.378L295.238 192.413C294.844 192.726 294.269 192.406 294.326 191.906L294.854 187.287C294.911 186.786 295.546 186.605 295.859 187L297.899 189.583C298.092 189.828 298.051 190.184 297.806 190.378Z" fill="#FFD475"/>
<path d="M214.386 191.32L216.935 194.542C217.098 194.748 217.064 195.047 216.858 195.21L215.424 196.347C215.218 196.51 214.919 196.475 214.757 196.269L212.207 193.047C212.044 192.841 212.079 192.542 212.285 192.379L213.719 191.242C213.924 191.079 214.223 191.114 214.386 191.32Z" fill="url(#paint3_linear_444_24012)"/>
<path d="M170.511 202.912C170.366 203.223 169.993 203.462 169.679 203.444C169.366 203.426 169.228 203.158 169.373 202.846C169.517 202.535 169.888 202.302 170.202 202.32C170.515 202.338 170.656 202.6 170.511 202.912Z" fill="white"/>
<path d="M169.663 204.601C169.519 204.913 169.145 205.152 168.832 205.134C168.518 205.116 168.38 204.848 168.525 204.536C168.67 204.225 169.041 203.992 169.354 204.01C169.668 204.027 169.808 204.29 169.663 204.601Z" fill="white"/>
<path d="M168.816 206.291C168.671 206.603 168.298 206.842 167.985 206.824C167.671 206.806 167.533 206.537 167.678 206.226C167.823 205.915 168.194 205.681 168.507 205.699C168.821 205.717 168.961 205.98 168.816 206.291Z" fill="white"/>
<path d="M152.007 148.298C151.992 148.298 151.977 148.297 151.962 148.294C150.758 148.067 149.544 147.77 148.353 147.412C148.222 147.373 148.149 147.235 148.188 147.105C148.227 146.974 148.366 146.901 148.494 146.94C149.669 147.294 150.866 147.586 152.053 147.81C152.186 147.835 152.274 147.964 152.249 148.098C152.227 148.215 152.124 148.298 152.007 148.298ZM143.825 145.677C143.791 145.677 143.756 145.67 143.723 145.654C142.606 145.14 141.499 144.559 140.433 143.926C140.316 143.857 140.277 143.706 140.347 143.589C140.415 143.471 140.567 143.432 140.684 143.502C141.735 144.126 142.827 144.699 143.928 145.207C144.052 145.263 144.106 145.41 144.049 145.534C144.008 145.624 143.919 145.677 143.825 145.677ZM136.511 141.164C136.456 141.164 136.402 141.146 136.357 141.11C135.393 140.343 134.458 139.511 133.579 138.642C133.482 138.546 133.481 138.389 133.577 138.293C133.672 138.197 133.827 138.194 133.925 138.291C134.792 139.149 135.713 139.967 136.664 140.725C136.77 140.809 136.788 140.965 136.703 141.072C136.655 141.132 136.583 141.164 136.511 141.164ZM130.511 135.009C130.436 135.009 130.363 134.975 130.314 134.912C129.571 133.928 128.87 132.891 128.231 131.831C128.161 131.714 128.199 131.563 128.315 131.493C128.432 131.422 128.582 131.458 128.653 131.576C129.283 132.621 129.974 133.644 130.707 134.613C130.789 134.723 130.768 134.877 130.659 134.959C130.615 134.992 130.563 135.009 130.511 135.009ZM126.2 127.568C126.104 127.568 126.014 127.512 125.974 127.419C125.488 126.282 125.055 125.108 124.69 123.929C124.649 123.8 124.721 123.661 124.851 123.62C124.981 123.578 125.119 123.653 125.159 123.783C125.52 124.946 125.947 126.104 126.426 127.224C126.48 127.349 126.422 127.495 126.297 127.548C126.265 127.562 126.232 127.568 126.2 127.568ZM123.794 119.312C123.675 119.312 123.571 119.225 123.552 119.105C123.38 118.047 123.255 116.974 123.183 115.915L123.153 115.407C123.145 115.271 123.249 115.156 123.385 115.147C123.548 115.129 123.637 115.245 123.644 115.381L123.674 115.882C123.746 116.926 123.868 117.984 124.037 119.025C124.059 119.16 123.968 119.286 123.834 119.308C123.821 119.31 123.807 119.312 123.794 119.312ZM123.524 110.72C123.515 110.72 123.507 110.718 123.497 110.718C123.362 110.703 123.264 110.581 123.279 110.446C123.418 109.183 123.642 107.949 123.946 106.779C123.979 106.645 124.112 106.56 124.246 106.602C124.377 106.636 124.456 106.771 124.422 106.902C124.124 108.05 123.904 109.26 123.769 110.499C123.755 110.626 123.648 110.72 123.524 110.72ZM125.939 102.496C125.9 102.496 125.861 102.486 125.824 102.467C125.704 102.404 125.657 102.255 125.72 102.135C125.814 101.956 125.91 101.779 126.01 101.603C126.522 100.695 127.117 99.8252 127.78 99.0157C127.867 98.911 128.022 98.8953 128.127 98.982C128.232 99.0674 128.247 99.2226 128.161 99.3285C127.516 100.115 126.937 100.962 126.438 101.846C126.342 102.017 126.248 102.189 126.157 102.363C126.113 102.448 126.027 102.496 125.939 102.496ZM159.063 97.784C158.207 97.784 157.283 97.7023 156.316 97.5398C156.182 97.517 156.092 97.3906 156.114 97.2558C156.136 97.1224 156.258 97.0286 156.398 97.0539C157.698 97.2727 158.881 97.3414 160.014 97.2547C160.156 97.2295 160.268 97.3461 160.279 97.4809C160.29 97.6167 160.189 97.7346 160.053 97.7455C159.726 97.7719 159.396 97.784 159.063 97.784ZM151.599 96.3008C151.574 96.3008 151.549 96.2971 151.524 96.2887C150.936 96.101 150.347 95.9074 149.759 95.715C149.177 95.5225 148.595 95.3312 148.013 95.1461C147.883 95.1052 147.812 94.9667 147.853 94.8369C147.894 94.707 148.034 94.6313 148.162 94.6769C148.746 94.8621 149.329 95.0545 149.913 95.2458C150.499 95.4395 151.086 95.632 151.673 95.8196C151.803 95.8605 151.875 95.9988 151.833 96.1287C151.8 96.2335 151.703 96.3008 151.599 96.3008ZM164.599 96.106C164.525 96.106 164.453 96.0734 164.405 96.0109C164.321 95.9026 164.34 95.7486 164.448 95.6645C165.332 94.9765 166.079 94.0419 166.668 92.8871C166.731 92.7655 166.881 92.7163 167 92.7801C167.121 92.8415 167.169 92.9894 167.107 93.1108C166.485 94.3305 165.692 95.3205 164.75 96.0542C164.705 96.0891 164.652 96.106 164.599 96.106ZM131.581 96.0939C131.503 96.0939 131.426 96.0565 131.378 95.9856C131.302 95.8738 131.33 95.721 131.443 95.6441C132.499 94.9222 133.616 94.3412 134.762 93.9143C134.891 93.8649 135.032 93.9323 135.078 94.0598C135.126 94.1873 135.061 94.3293 134.933 94.3762C133.824 94.7887 132.743 95.3516 131.72 96.0505C131.678 96.0795 131.63 96.0939 131.581 96.0939ZM143.333 93.8915C143.318 93.8915 143.303 93.8902 143.287 93.8867C142.014 93.6449 140.853 93.5282 139.74 93.5282H139.666C139.53 93.5282 139.42 93.4175 139.42 93.2816C139.42 93.1456 139.53 93.035 139.666 93.035H139.74C140.884 93.035 142.075 93.1553 143.378 93.4031C143.512 93.4284 143.6 93.5571 143.574 93.6906C143.552 93.8085 143.449 93.8915 143.333 93.8915ZM171.17 91.7865C170.929 91.7865 170.688 91.7805 170.446 91.7696C170.31 91.7624 170.205 91.6481 170.211 91.5122C170.217 91.3798 170.326 91.2765 170.457 91.2765C170.461 91.2765 170.464 91.2765 170.469 91.2765C171.762 91.3378 172.973 91.2355 174.063 90.9636C174.196 90.93 174.328 91.0118 174.361 91.1441C174.394 91.2753 174.313 91.41 174.182 91.4424C173.25 91.6734 172.265 91.7865 171.17 91.7865ZM165.596 91.0431C165.579 91.0431 165.561 91.0406 165.543 91.037C165.309 90.9853 165.076 90.9312 164.844 90.8759C163.675 90.6029 162.781 90.3731 161.948 90.1349C161.817 90.0975 161.742 89.9605 161.779 89.8306C161.817 89.7007 161.952 89.6286 162.084 89.661C162.909 89.8979 163.795 90.1241 164.957 90.3972C165.187 90.4525 165.418 90.5042 165.649 90.556C165.782 90.586 165.866 90.7172 165.836 90.8495C165.811 90.9649 165.709 91.0431 165.596 91.0431ZM178.379 89.0932C178.314 89.0932 178.249 89.068 178.201 89.0162C178.107 88.9176 178.111 88.7624 178.209 88.6686C179.044 87.8723 179.778 86.9076 180.393 85.7998C180.459 85.6794 180.609 85.6373 180.728 85.7035C180.847 85.7698 180.889 85.9201 180.823 86.0379C180.184 87.1903 179.419 88.1947 178.549 89.0247C178.501 89.0703 178.44 89.0932 178.379 89.0932ZM168.32 88.5508C168.307 88.5508 168.293 88.5495 168.28 88.5471C168.146 88.5255 168.055 88.3991 168.077 88.2644C168.281 87.0134 168.387 85.7902 168.392 84.6257C168.393 84.4898 168.503 84.3803 168.639 84.3803C168.639 84.3803 168.639 84.3803 168.64 84.3803C168.776 84.3816 168.886 84.4921 168.885 84.6281C168.879 85.8177 168.77 87.0676 168.562 88.3438C168.542 88.4642 168.438 88.5508 168.32 88.5508ZM157.413 88.416C157.376 88.416 157.338 88.4077 157.303 88.3896C156.107 87.7905 155.08 87.1242 154.164 86.3532C154.06 86.2653 154.047 86.1101 154.135 86.0056C154.223 85.9021 154.378 85.89 154.481 85.9754C155.367 86.7224 156.362 87.3671 157.523 87.9494C157.645 88.0095 157.694 88.1574 157.633 88.2801C157.59 88.3655 157.503 88.416 157.413 88.416ZM151.374 82.5196C151.28 82.5196 151.19 82.4654 151.149 82.374C150.61 81.1783 150.306 79.9117 150.269 78.7113C150.265 78.5753 150.371 78.4623 150.507 78.4575C150.51 78.4575 150.512 78.4575 150.515 78.4575C150.648 78.4575 150.757 78.5634 150.761 78.6969C150.796 79.8324 151.085 81.034 151.598 82.172C151.653 82.2958 151.599 82.4415 151.474 82.4979C151.442 82.5123 151.408 82.5196 151.374 82.5196ZM182.29 81.5537C182.273 81.5537 182.255 81.5512 182.237 81.5477C182.104 81.5177 182.021 81.3865 182.05 81.2531C182.286 80.1945 182.469 79.0097 182.611 77.6324C182.625 77.4989 182.753 77.4158 182.881 77.4123C183.016 77.4266 183.115 77.547 183.1 77.6829C182.957 79.0794 182.77 80.2823 182.53 81.3613C182.505 81.4754 182.403 81.5537 182.29 81.5537ZM168.009 80.0044C167.902 80.0044 167.803 79.9335 167.772 79.8252C167.636 79.3476 167.475 78.8797 167.295 78.4335C167.027 77.7683 166.698 77.1223 166.319 76.5149C166.248 76.3994 166.283 76.2479 166.398 76.1757C166.513 76.1035 166.666 76.1371 166.738 76.255C167.13 76.8865 167.472 77.5566 167.752 78.2482C167.939 78.7113 168.104 79.196 168.246 79.6904C168.283 79.8203 168.207 79.9575 168.077 79.9948C168.054 80.0008 168.031 80.0044 168.009 80.0044ZM151.993 74.3605C151.938 74.3605 151.884 74.3424 151.838 74.3051C151.732 74.2197 151.716 74.0645 151.802 73.9587C152.572 73.006 153.625 72.2326 154.846 71.725C154.968 71.6709 155.114 71.7322 155.167 71.8573C155.219 71.9836 155.16 72.128 155.034 72.1796C153.889 72.6571 152.904 73.379 152.184 74.269C152.135 74.3292 152.065 74.3605 151.993 74.3605ZM163.151 73.0986C163.104 73.0986 163.057 73.0854 163.015 73.0577C162.125 72.4647 161.177 72.0377 160.198 71.7863C160.041 71.7453 159.882 71.7105 159.722 71.6804C159.589 71.6551 159.501 71.5265 159.526 71.3929C159.552 71.2594 159.679 71.1632 159.814 71.1968C159.984 71.2293 160.154 71.2665 160.321 71.3099C161.353 71.5745 162.352 72.0245 163.288 72.6463C163.401 72.7221 163.431 72.8748 163.356 72.9879C163.309 73.0602 163.231 73.0986 163.151 73.0986Z" fill="#4C5C75"/>
<path d="M182.74 67.6053L182.706 73.6174L182.355 73.6262L182.58 75.9496L183.35 75.993L183.354 75.9855C183.577 76.0086 183.812 75.9338 183.982 75.7262L188.396 70.3419L182.74 67.6053Z" fill="#ABABDB"/>
<path d="M205.083 54.3997L196.549 72.3515C196.357 72.9206 195.73 73.2159 195.17 73.0014L185.353 69.1729L195.523 59.3831C195.824 59.0938 195.499 58.6035 195.116 58.7683L177.704 66.2562L173.275 64.568C172.336 64.2102 172.378 62.8674 173.336 62.5676L203.766 53.0499C204.591 52.7916 205.361 53.58 205.083 54.3997Z" fill="#F3F1FC"/>
<path d="M195.523 59.3823L185.341 69.1744L183.306 75.4195C183.089 76.0865 182.166 76.1368 181.877 75.4977L177.704 66.2561L195.116 58.7681C195.499 58.6035 195.823 59.0938 195.523 59.3823Z" fill="#D0CEF2"/>
<path d="M123.905 171.851C119.893 176.63 113.729 177.332 106.051 176.618C103.799 176.408 101.436 176.076 98.9386 175.694C98.9386 175.694 98.9263 175.706 98.9263 175.694C95.8009 175.201 92.5032 174.635 89.0579 174.118C83.8776 173.329 78.3651 172.652 72.6188 172.528C67.0571 172.405 61.2739 172.799 55.3676 174.118C53.7434 174.487 55.5645 168.649 55.7613 167.466C59.2559 148.115 65.7035 123.48 78.3897 117.556C90.8298 111.742 96.7483 118.147 96.7483 118.147C108.782 107.678 127.485 150.604 124.385 160.408C122.994 164.793 126.021 169.326 123.905 171.851Z" fill="#8A4852"/>
<path d="M114.43 156.183C113.864 162.367 111.539 168.39 107.823 173.366C107.084 174.363 106.248 175.448 106.051 176.618C103.799 176.408 101.436 176.076 98.9386 175.694C98.9386 175.694 98.9263 175.706 98.9263 175.694C97.9419 174.881 97.3759 174.351 97.3759 174.351C97.3759 174.351 97.1421 173.957 96.4285 173.674C96.4408 173.612 96.4654 173.563 96.5023 173.502C97.1668 171.937 98.2742 170.594 99.2586 169.202C104.5 161.64 105.78 152.02 105.62 142.794L110.517 142.068C112.843 144.284 114.135 146.28 114.48 150.8C114.615 152.599 114.578 154.385 114.43 156.183Z" fill="#51383C"/>
<path d="M94.5335 125.057C93.303 126.634 91.2359 127.41 90.0177 128.999C88.5043 130.969 88.2828 133.667 88.7135 136.094C89.1564 138.52 90.1901 140.811 91.0145 143.139C94.3613 152.673 94.1521 163.414 90.4239 172.812C90.3131 173.095 90.2024 173.378 90.0671 173.662C89.7226 173.772 89.3903 173.933 89.058 174.117C83.8778 173.329 78.3653 172.652 72.619 172.528C72.1883 170.004 71.77 167.491 71.3393 164.965C70.4903 159.903 69.6412 154.828 69.8259 149.704C69.9858 144.58 71.2656 139.382 74.3048 135.268C77.4671 130.957 82.2782 128.186 87.0278 125.734C89.0457 124.688 91.1129 123.666 92.8479 122.212C93.82 121.411 96.7485 118.147 96.7485 118.147C96.7485 118.147 96.9452 121.966 94.5335 125.057Z" fill="#51383C"/>
<path d="M97.4376 131.373C99.2561 133.283 100.947 134.742 103.124 136.23C108.042 139.593 110.965 141.741 110.511 142.072C110.122 142.356 110.646 142.677 110.169 142.614C105.201 141.964 100.589 139.631 96.4776 136.765C94.6587 135.497 92.8797 134.078 91.7085 132.194C90.5374 130.31 90.0602 127.871 90.9609 125.844C91.3003 125.08 91.838 124.387 92.5608 123.968C93.1473 123.628 94.2127 123.272 94.6746 123.966C95.0711 124.56 94.8299 125.611 94.9086 126.282C95.1332 128.198 96.1207 129.99 97.4376 131.373Z" fill="#51383C"/>
<path d="M56.2943 320.183H148.137C148.137 319.873 148.086 306.67 139.391 296.805C137.42 294.575 135.011 292.524 132.074 290.822C132.074 290.822 78.6175 282.106 71.1076 285.807C71.1076 285.807 57.1186 302.788 56.2943 320.183Z" fill="#4C5C75"/>
<path d="M56.2943 320.183H112.83C113.126 320.003 113.384 319.745 113.538 319.422C114.002 318.455 113.371 317.256 112.443 316.727C111.503 316.199 110.382 316.173 109.326 316.16C99.15 316.083 88.9738 316.598 78.8621 317.72C76.492 317.991 74.0317 318.275 71.7904 317.462C69.5491 316.637 67.6428 314.342 68.1321 312.008C68.5057 310.267 70.0384 309.017 70.6955 307.353C72.0996 303.807 69.1884 299.462 71.0434 296.122C72.0739 294.265 74.3409 293.402 76.4664 293.44C78.579 293.466 80.614 294.252 82.5976 295.013C92.9156 298.946 103.646 302.324 114.698 302.608C118.498 302.711 122.323 302.402 126.059 301.654C129.292 300.996 132.461 300.016 135.462 298.649C136.261 298.288 137.871 297.631 139.391 296.805C137.42 294.575 135.011 292.524 132.074 290.822C132.074 290.822 78.6175 282.106 71.1076 285.807C71.1076 285.807 57.1186 302.788 56.2943 320.183Z" fill="#111D33"/>
<path d="M31.2339 247.229C31.2339 247.229 40.6879 251.779 49.0032 251.184C57.3184 250.59 56.9473 230.008 56.9473 230.008L34.0061 236.246L31.2339 247.229Z" fill="#D12057"/>
<path d="M31.2405 247.226C31.2405 247.226 46.4274 231.237 61.1892 240.186C61.1892 240.186 58.162 250.514 57.4536 261.617C56.7579 272.422 58.2522 283.963 66.8955 287.354C84.4269 294.24 136.299 297.166 141.426 285.6C141.812 284.736 142.147 283.834 142.456 282.892C142.843 281.706 143.178 280.456 143.461 279.14C147.596 260.288 142.212 230.102 151.86 215.97C151.86 215.97 151.589 214.359 150.636 211.87C148.034 205.01 140.254 191.458 118.704 186.261C118.601 186.236 118.51 186.21 118.407 186.197C116.656 185.784 114.814 185.423 112.868 185.127C107.317 184.288 100.966 183.94 93.74 184.327C93.74 184.327 84.1177 184.043 72.9365 186.3C71.9063 186.519 70.863 186.738 69.8195 186.996C69.0337 187.19 68.2351 187.396 67.4365 187.615C56.5519 190.632 45.4613 196.357 41.043 207.267C31.2405 231.495 31.2405 247.226 31.2405 247.226Z" fill="#F45170"/>
<path d="M135.861 263.331C136.544 267.574 137.755 271.829 140.138 275.401C141.065 276.78 142.186 278.057 143.461 279.14C147.596 260.288 142.212 230.102 151.86 215.97C151.86 215.97 151.589 214.359 150.636 211.87C150.559 212.205 150.469 212.515 150.34 212.824C149.155 215.622 147.66 218.317 146.398 221.076C143.873 226.634 141.516 232.256 139.365 237.968C137.665 242.468 136.067 247.058 135.501 251.843C135.05 255.659 135.256 259.54 135.861 263.331Z" fill="#D12057"/>
<path d="M31.2405 247.226C31.2405 247.226 33.34 244.854 36.7921 242.43C37.4877 236.021 39.6519 223.565 46.247 207.267C50.6652 196.357 61.7559 190.632 72.6406 187.615C73.4393 187.396 74.2378 187.19 75.0238 186.996C76.0671 186.738 77.1105 186.519 78.1408 186.3C89.3217 184.044 98.944 184.327 98.944 184.327C100.013 184.276 101.056 184.237 102.087 184.211C99.4463 184.134 96.6641 184.173 93.7401 184.327C93.7401 184.327 84.1178 184.043 72.9366 186.3C71.9064 186.519 70.863 186.738 69.8196 186.996C69.0338 187.19 68.2352 187.396 67.4366 187.615C56.552 190.632 45.4614 196.357 41.0431 207.267C31.2405 231.495 31.2405 247.226 31.2405 247.226Z" fill="#D12057"/>
<path d="M66.8955 287.354C84.4269 294.239 136.299 297.166 141.426 285.6C141.812 284.736 142.147 283.833 142.456 282.892C139.97 281.925 136.802 282.067 134.11 282.699C129.846 283.705 122.992 285.197 121.293 283.576C119.002 281.39 127.96 273.854 124.938 274.794C117.145 277.219 96.0328 285.729 80.7042 285.523C79.2101 285.497 77.6644 285.419 76.3762 284.672C75.101 283.911 74.2248 282.26 74.8303 280.906C75.3586 279.694 76.7625 279.192 77.8446 278.418C78.9137 277.657 79.6867 275.955 78.6689 275.104C76.8655 273.969 74.4696 274.704 72.6406 275.8C70.8114 276.897 69.124 278.379 67.0245 278.779C64.9376 279.192 62.2971 277.889 62.3484 275.749C62.3871 274.575 63.2115 273.582 63.9973 272.693C73.9158 261.488 83.8343 250.282 93.7529 239.09C97.5141 234.835 101.365 230.515 106.286 227.666C108.927 226.131 111.787 225.022 114.401 223.436C115.844 222.559 119.554 220.393 118.742 218.227C118.034 216.344 113.628 216.099 111.941 215.97C106.75 215.596 101.391 217.131 97.3595 220.457C92.0653 224.841 89.386 231.534 85.8308 237.414C79.2745 248.245 69.1496 256.846 57.4536 261.617C56.7579 272.422 58.2522 283.963 66.8955 287.354Z" fill="#D12057"/>
<path d="M139.584 267.883C144.685 279.746 157.746 281.397 164.638 257.826C171.542 234.242 166.3 204.649 166.3 204.649C166.3 204.649 167.06 204.442 168.193 203.927C170.757 202.741 175.201 199.878 176.669 193.882C176.669 193.882 186.794 187.486 185.531 185.436C184.256 183.386 177.442 188.144 177.442 188.144L177.725 183.541C177.725 183.541 185.531 178.783 184.746 175.043C184.269 172.709 181.1 174.798 178.782 176.707C181.345 174.231 184.823 170.35 183.792 168.364C182.195 165.308 173.887 174.244 173.887 174.244L163.659 181.723L164.213 196.229C163.182 189.55 157.708 186.107 157.708 186.107L159.292 179.182C164.896 177.132 164.599 173.78 164.007 172.078C163.814 171.51 163.131 171.291 162.629 171.613L155.763 176.049C155.596 176.152 155.467 176.307 155.402 176.487L151.267 187.022C151.203 187.177 151.19 187.357 151.216 187.525L154.436 204.649C154.436 204.649 140.885 239.541 138.979 258.445C138.566 262.493 138.682 265.794 139.584 267.883Z" fill="#F7A386"/>
<path d="M162.978 189.992C163.284 191.76 164.009 193.458 165.323 194.568C165.877 195.037 166.522 195.389 167.161 195.741C167.797 196.091 168.434 196.444 169.119 196.702C170.448 197.204 171.918 197.336 173.369 197.464C173.515 197.696 173.17 197.982 172.893 198.087C170.168 199.119 167.3 198.775 164.569 198.416C162.877 198.193 161.085 197.925 159.892 196.787C158.876 195.818 158.453 194.363 158.064 192.968C157.636 191.431 157.207 189.894 156.779 188.357C156.457 187.204 156.135 185.981 156.46 184.752C156.683 183.906 157.224 183.107 157.959 182.602C158.694 182.097 159.618 181.905 160.4 182.131C163.645 183.069 162.529 187.399 162.978 189.992Z" fill="url(#paint4_linear_444_24012)"/>
<path d="M157.677 148.145V194.289C157.677 196.112 159.154 197.59 160.974 197.59H184.214C186.035 197.59 187.511 196.112 187.511 194.289V148.145C187.511 146.323 186.035 144.845 184.214 144.845H160.974C159.154 144.845 157.677 146.323 157.677 148.145Z" fill="white"/>
<path d="M181.001 164.207C181.001 168.853 177.237 172.62 172.596 172.62C167.951 172.62 164.188 168.852 164.188 164.207C164.188 159.556 167.951 155.79 172.596 155.79C177.237 155.79 181.001 159.556 181.001 164.207Z" fill="#4B9534"/>
<path d="M178.693 164.206C178.693 167.576 175.963 170.309 172.596 170.309C169.226 170.309 166.496 167.577 166.496 164.206C166.496 160.833 169.226 158.1 172.596 158.1C175.963 158.1 178.693 160.833 178.693 164.206Z" fill="#6EB954"/>
<path d="M187.511 188.834V194.289C187.511 196.112 186.035 197.59 184.214 197.59H160.974C159.154 197.59 157.677 196.112 157.677 194.289V188.834H187.511Z" fill="#09B782"/>
<path d="M157.677 151.13V148.145C157.677 146.323 159.154 144.845 160.974 144.845H184.214C186.035 144.845 187.511 146.323 187.511 148.145V151.13H157.677Z" fill="#09B782"/>
<path d="M42.2181 239.636C42.2181 239.636 44.0699 270.552 56.9511 268.799C68.4926 267.213 95.1825 232.926 100.631 225.783C101.237 224.983 102.151 224.48 103.156 224.39C106.402 224.068 114.066 222.881 119.154 218.433C119.154 218.433 126.471 217.44 122.619 213.817C122.619 213.817 126.2 212.192 123.199 209.536C123.199 209.536 130.541 204.636 120.52 202.921C120.52 202.921 125.003 198.137 136.544 192.683C136.544 192.683 136.93 192.218 137.098 191.625C137.317 190.903 137.227 189.962 135.81 189.369C133.233 188.286 116.977 196.28 113.744 198.743C110.524 201.206 95.2598 212.424 95.2598 212.424C95.2598 212.424 68.5313 231.082 61.1762 240.186C60.094 239.567 59.012 239.038 57.9172 238.626C52.7905 236.601 47.5378 237.096 42.2181 239.636Z" fill="#F7A386"/>
<path d="M42.2181 239.636C42.2181 239.636 44.0699 270.552 56.9511 268.799C68.4926 267.213 95.1825 232.926 100.631 225.783C101.237 224.983 102.151 224.48 103.156 224.39C106.402 224.068 114.066 222.881 119.154 218.433C119.154 218.433 126.471 217.44 122.619 213.817C122.619 213.817 126.2 212.192 123.199 209.536C123.199 209.536 130.541 204.636 120.52 202.921C120.52 202.921 125.003 198.137 136.544 192.683C136.544 192.683 136.93 192.218 137.098 191.625C131.791 192.464 126.664 194.449 122.169 197.402C121.035 198.15 119.927 198.975 119.219 200.123C118.51 201.27 118.291 202.805 118.987 203.965C119.695 205.113 121.254 204.056 122.452 204.674C124.165 205.538 122.027 208.491 121.821 210.387C121.602 212.308 121.344 214.345 120.108 215.828C118.755 217.44 116.578 218.021 114.556 218.614C97.3081 223.617 82.2629 235.763 73.7225 251.559C71.0045 256.588 65.0149 259.218 60.777 263.035C59.0252 264.621 56.8226 266.31 54.5553 265.678C52.7906 265.188 51.7087 263.473 50.794 261.887C48.5012 257.903 47.8057 253.893 45.5256 249.908C44.4178 247.987 43.2842 245.782 43.9284 243.667C44.7787 240.869 46.6721 239.876 49.5962 240.044C52.5203 240.199 55.5214 241.063 58.3167 240.199C58.3167 239.644 58.1749 239.103 57.9173 238.626C52.7905 236.601 47.5378 237.096 42.2181 239.636Z" fill="url(#paint5_linear_444_24012)"/>
<path d="M132.348 191.446C132.348 192.27 133.41 192.939 134.723 192.939C136.036 192.939 137.098 192.27 137.098 191.446C137.098 190.621 136.036 189.952 134.723 189.952C133.41 189.952 132.348 190.621 132.348 191.446Z" fill="#FEE1BC"/>
<path d="M95.2598 212.424C95.2598 212.424 110.524 201.206 113.744 198.743C116.978 196.28 133.234 188.286 135.81 189.369C137.227 189.962 137.317 190.903 137.098 191.625C137.098 191.638 137.085 191.651 137.085 191.664C136.918 191.251 136.544 190.852 135.81 190.543C133.233 189.459 116.978 197.454 113.744 199.917C110.524 202.379 95.2598 213.598 95.2598 213.598C95.2598 213.598 68.5313 231.082 61.1763 240.186C68.5313 231.082 95.2598 212.424 95.2598 212.424Z" fill="#FEE1BC"/>
<path d="M77.1934 226.074L90.841 239.736C91.2494 240.145 91.9117 240.145 92.3203 239.736L94.1094 237.945C94.5181 237.536 94.5181 236.873 94.1094 236.464L80.462 222.802C80.0534 222.393 79.3911 222.393 78.9825 222.802L77.1934 224.593C76.7848 225.002 76.7848 225.665 77.1934 226.074Z" fill="url(#paint6_linear_444_24012)"/>
<path d="M78.3635 230.949C78.3635 234.821 81.5082 237.991 85.399 237.991C89.267 237.991 92.4117 234.821 92.4117 230.949C92.4117 227.077 89.267 223.907 85.399 223.907C81.5082 223.907 78.3635 227.077 78.3635 230.949Z" fill="url(#paint7_linear_444_24012)"/>
<path d="M77.7502 225.517L91.3978 239.178C91.8063 239.587 92.4687 239.587 92.8771 239.178L94.6663 237.387C95.0747 236.978 95.0747 236.315 94.6663 235.906L81.0187 222.245C80.6102 221.836 79.9479 221.836 79.5394 222.245L77.7502 224.036C77.3417 224.445 77.3417 225.108 77.7502 225.517Z" fill="#111D33"/>
<path d="M78.997 230.315C78.997 234.187 82.1416 237.357 86.0324 237.357C89.9004 237.357 93.0451 234.187 93.0451 230.315C93.0451 226.443 89.9004 223.273 86.0324 223.273C82.1416 223.273 78.997 226.443 78.997 230.315Z" fill="#09B782"/>
<path d="M80.7107 230.315C80.7107 233.242 83.0882 235.639 86.0297 235.639C88.9541 235.639 91.3316 233.242 91.3316 230.315C91.3316 227.387 88.9541 224.991 86.0297 224.991C83.0882 224.991 80.7107 227.387 80.7107 230.315Z" fill="white"/>
<path d="M87.3845 231.537H85.4127C85.0726 231.537 84.7975 231.261 84.7975 230.921V228.216C84.7975 227.875 85.0726 227.6 85.4127 227.6C85.7528 227.6 86.0279 227.875 86.0279 228.216V230.305H87.3845C87.7246 230.305 87.9997 230.581 87.9997 230.921C87.9997 231.261 87.7246 231.537 87.3845 231.537Z" fill="#09B782"/>
<path d="M69.7809 188.428C70.1029 196.887 80.7942 203.282 94.6545 203.282C103.388 203.282 111.117 200.652 115.355 196.242C117.647 193.856 118.807 191.058 118.691 188.131C118.665 187.422 118.562 186.777 118.407 186.197C116.656 185.784 114.814 185.423 112.868 185.127C107.317 184.288 100.966 183.94 93.7401 184.327C93.7401 184.327 84.1178 184.043 72.9366 186.3C71.9064 186.519 70.863 186.738 69.8196 186.996C69.7679 187.538 69.7679 188.028 69.7809 188.428Z" fill="white"/>
<path d="M73.6452 188.273C73.8772 194.423 83.2932 199.401 94.6545 199.401C94.8993 199.401 95.1441 199.401 95.3759 199.388C106.428 199.182 115.071 194.295 114.839 188.273C114.788 187.138 114.453 186.3 113.822 185.268C113.796 185.268 113.77 185.256 113.745 185.256C109.133 184.559 105.539 180.472 105.372 175.843L105.333 174.682C103.929 176.668 102.345 178.499 100.619 179.956C98.1067 182.096 95.2986 183.463 92.3488 183.399C88.742 183.321 85.1869 181.181 82.1984 177.738C81.9794 181.813 79.0168 185.14 74.9462 185.913C74.5985 185.978 74.2378 186.042 73.8901 186.107C73.6839 186.777 73.6195 187.564 73.6452 188.273Z" fill="#F7A386"/>
<path d="M95.3629 199.207C95.3629 199.272 95.3629 199.324 95.3759 199.388C106.428 199.182 115.071 194.295 114.839 188.273C114.788 187.138 114.453 186.3 113.822 185.268C113.796 185.268 113.77 185.256 113.745 185.256C109.133 184.559 105.539 180.472 105.372 175.842L105.333 174.682C103.929 176.668 102.345 178.499 100.619 179.956C100.876 181.142 101.443 182.264 102.293 183.14C103.736 184.649 105.874 185.5 106.905 187.319C107.832 188.969 107.6 191.109 106.608 192.734C105.629 194.359 104.006 195.506 102.28 196.28C100.554 197.054 98.6864 197.492 96.8572 197.995C96.2002 198.176 95.4144 198.511 95.3629 199.207Z" fill="url(#paint8_linear_444_24012)"/>
<path d="M92.3487 183.399C92.7222 183.412 93.083 183.386 93.4565 183.36C93.727 183.334 93.9974 183.283 94.2679 183.231C94.2936 183.231 94.3323 183.231 94.3583 183.218C94.7189 183.154 95.0667 183.063 95.4273 182.947C95.6593 182.883 95.891 182.806 96.1228 182.715C96.4191 182.612 96.7025 182.496 96.986 182.354C97.2694 182.225 97.5527 182.071 97.8361 181.916C99.794 180.833 101.636 179.208 103.285 177.3C103.529 177.029 103.761 176.745 103.98 176.461C104.238 176.152 104.496 175.83 104.74 175.494C104.934 175.237 105.127 174.979 105.307 174.708C105.513 174.411 105.732 174.115 105.925 173.805C106.338 173.199 106.724 172.568 107.098 171.935C107.278 171.613 107.458 171.304 107.639 170.981C107.78 170.724 107.922 170.466 108.064 170.208C108.257 169.834 108.45 169.447 108.631 169.073C108.785 168.751 108.94 168.441 109.081 168.119C109.584 167.048 110.009 165.991 110.369 164.973C110.447 164.741 110.524 164.521 110.601 164.302C110.691 164.057 110.769 163.812 110.833 163.58C110.923 163.296 111.001 163.013 111.078 162.742C111.31 161.916 111.477 161.156 111.58 160.459C111.889 158.461 112.031 155.714 111.915 152.632C111.902 152.259 111.876 151.885 111.851 151.511C111.851 151.511 111.851 151.511 111.851 151.498C111.838 151.124 111.812 150.75 111.774 150.363C111.761 150.157 111.748 149.963 111.722 149.757C111.658 148.958 111.567 148.158 111.465 147.358C111.361 146.546 111.245 145.734 111.104 144.909L110.872 143.71C110.769 143.168 110.64 142.613 110.511 142.072C110.047 141.956 109.596 141.827 109.159 141.685C99.2658 138.552 95.2211 130.39 93.7012 125.889C89.7594 126.367 79.4029 129.242 75.0622 146.044C70.6052 163.348 81.2451 183.167 92.3487 183.399Z" fill="#F7A386"/>
<path d="M93.4565 183.36C93.7528 183.334 94.062 183.283 94.3583 183.218C94.7189 183.154 95.0667 183.064 95.4273 182.947C95.6593 182.883 95.891 182.806 96.1228 182.715C96.4191 182.612 96.7025 182.496 96.986 182.354C97.2694 182.225 97.5527 182.071 97.8361 181.916C99.794 180.833 101.636 179.208 103.285 177.3C103.529 177.029 103.761 176.745 103.98 176.461C104.238 176.152 104.496 175.83 104.74 175.494C104.934 175.237 105.127 174.979 105.307 174.708C105.513 174.412 105.732 174.115 105.925 173.805C106.338 173.199 106.724 172.568 107.098 171.936C107.278 171.613 107.458 171.304 107.639 170.981C107.78 170.724 107.922 170.466 108.064 170.208C108.257 169.834 108.45 169.447 108.631 169.073C108.785 168.751 108.94 168.441 109.081 168.119C109.584 167.049 110.009 165.991 110.369 164.973C110.447 164.741 110.524 164.521 110.601 164.302C110.691 164.057 110.769 163.812 110.833 163.58C110.923 163.296 111.001 163.013 111.078 162.742C111.31 161.917 111.477 161.156 111.58 160.46C111.889 158.461 112.031 155.715 111.915 152.632C111.902 152.259 111.876 151.885 111.851 151.511C111.851 151.511 111.851 151.511 111.851 151.498C111.838 151.124 111.812 150.75 111.774 150.363C111.761 150.157 111.748 149.963 111.722 149.757C111.658 148.958 111.567 148.158 111.465 147.358C111.361 146.546 111.245 145.734 111.104 144.909L110.872 143.71C110.769 143.168 110.64 142.613 110.511 142.072C110.047 141.956 109.596 141.827 109.159 141.685C110.756 148.687 110.846 156.256 110.253 160.46C109.262 167.422 102.602 181.478 94.2679 183.231C93.9975 183.283 93.727 183.334 93.4565 183.36Z" fill="#E27659"/>
<path d="M92.3487 183.399C82.0695 183.115 72.2154 163.322 76.3504 146.044C80.0343 130.686 88.3814 126.96 92.5935 126.07C88.072 126.947 79.0426 130.647 75.0624 146.044C70.6053 163.348 81.2451 183.167 92.3487 183.399Z" fill="#FEE1BC"/>
<path d="M89.3956 145.622C88.9498 146.098 87.6845 145.73 85.0965 144.838C81.9765 143.769 78.8243 146.223 78.7955 146.245C78.7594 146.274 78.7236 146.285 78.6841 146.285C78.6338 146.285 78.5872 146.267 78.551 146.227C78.4864 146.159 78.4864 146.054 78.551 145.986C81.042 143.255 83.8997 141.938 86.3977 142.37C87.8033 142.615 88.9141 143.413 89.3707 144.504C89.5107 144.845 89.6688 145.331 89.3956 145.622Z" fill="#111D33"/>
<path d="M96.5838 145.622C97.0296 146.098 98.2949 145.73 100.883 144.838C104.003 143.769 107.155 146.223 107.184 146.245C107.22 146.274 107.256 146.285 107.295 146.285C107.346 146.285 107.392 146.267 107.428 146.227C107.493 146.159 107.493 146.054 107.428 145.986C104.937 143.255 102.08 141.938 99.5816 142.37C98.1761 142.615 97.0653 143.413 96.6088 144.504C96.4686 144.845 96.3106 145.331 96.5838 145.622Z" fill="#111D33"/>
<path d="M101.346 167.219C101.346 167.219 99.9119 169.141 97.6144 170.589C96.1759 171.486 94.4059 172.217 92.4252 172.178C91.0627 172.166 89.8174 171.563 88.7809 170.781C86.8078 169.308 85.5518 167.206 85.5518 167.206C85.5518 167.206 90.5089 165.54 94.468 165.54C98.4146 165.54 101.346 167.219 101.346 167.219Z" fill="#8C0E2E"/>
<path d="M97.2807 171.674C95.8419 172.571 94.072 173.302 92.0912 173.264C90.7288 173.251 89.4837 172.648 88.447 171.866C89.7341 170.88 91.5241 169.919 93.5982 169.944C95.0422 169.983 96.3136 170.79 97.2807 171.674Z" fill="#FB7588"/>
<path d="M87.7611 166.822C88.7487 168.046 90.9075 168.86 93.6656 168.86C96.4238 168.86 99.0882 168.046 100.832 166.822H87.7611Z" fill="white"/>
<path d="M99.7624 167.453C100.144 167.256 100.509 167.049 100.832 166.822H87.7611C87.9445 167.049 88.1806 167.256 88.4409 167.453H99.7624Z" fill="#F5FAFF"/>
<path d="M85.5465 167.171C85.5465 167.171 87.3117 174.469 93.2241 174.109C99.1369 173.75 101.367 167.171 101.367 167.171C101.367 167.171 98.261 171.269 93.8243 171.673C87.9781 172.204 85.5465 167.171 85.5465 167.171Z" fill="#DA5073"/>
<path d="M101.362 167.168C101.362 167.168 99.1308 173.754 93.2218 174.113C87.4959 174.459 85.6593 167.604 85.5557 167.193C85.6045 167.283 85.8097 167.655 86.1706 168.142C87.0309 170.243 89.1342 173.908 93.3639 173.652C98.2313 173.357 100.607 168.834 101.284 167.257C101.341 167.193 101.362 167.168 101.362 167.168Z" fill="#CE3E67"/>
<path d="M85.5465 167.171C85.5465 167.171 90.6625 163.932 95.1752 165.516C96.66 166.037 99.5718 162.838 101.367 167.171C96.2863 166.745 91.0084 166.755 85.5465 167.171Z" fill="#DA5073"/>
<path opacity="0.3" d="M101.362 167.168L100.915 167.129C99.1109 163.362 96.3236 166.361 94.8849 165.848C91.3335 164.605 87.3872 166.348 85.891 167.142C85.772 167.155 85.6697 167.155 85.551 167.168C85.551 167.168 90.6613 163.926 95.1788 165.515C96.6647 166.04 99.5664 162.837 101.362 167.168Z" fill="white"/>
<path d="M90.8263 160.014C90.8263 161.082 92.0005 161.947 93.4513 161.947C94.8978 161.947 96.072 161.082 96.072 160.014C96.072 158.949 94.8956 159.574 93.4491 159.574C91.9983 159.574 90.8263 158.949 90.8263 160.014Z" fill="#E27659"/>
<path opacity="0.3" d="M79.3489 160.439C79.3489 161.652 80.6523 162.642 82.2615 162.642C83.8712 162.642 85.1843 161.652 85.1843 160.439C85.1843 159.225 83.8711 158.242 82.2615 158.242C80.6524 158.242 79.3489 159.225 79.3489 160.439Z" fill="#DA5073"/>
<path opacity="0.3" d="M100.617 160.439C100.617 161.652 101.92 162.642 103.529 162.642C105.139 162.642 106.452 161.652 106.452 160.439C106.452 159.225 105.139 158.242 103.529 158.242C101.92 158.242 100.617 159.225 100.617 160.439Z" fill="#DA5073"/>
<path d="M88.6384 149.491C87.5463 149.169 86.4485 148.86 85.3721 148.5L85.6946 148.488C84.9149 148.932 84.1794 149.467 83.3877 149.888C82.5704 150.258 81.7098 150.542 80.7377 150.602C80.7029 150.605 80.6722 150.578 80.6701 150.543C80.6693 150.525 80.6749 150.51 80.6853 150.497C81.3164 149.754 82.0585 149.235 82.8442 148.801C83.6551 148.419 84.5225 148.149 85.3457 147.79L85.3886 147.771C85.4818 147.731 85.5849 147.737 85.6696 147.778C86.6864 148.283 87.6823 148.839 88.683 149.382C88.7116 149.398 88.7228 149.434 88.7068 149.462C88.6933 149.487 88.6646 149.498 88.6384 149.491Z" fill="#111D33"/>
<path d="M83.7678 149.764C83.7678 150.667 84.5026 151.391 85.4048 151.391C86.2943 151.391 87.0288 150.667 87.0288 149.764C87.0288 148.861 86.2944 148.139 85.4048 148.139C84.5026 148.139 83.7678 148.861 83.7678 149.764Z" fill="#111D33"/>
<path d="M85.5972 149.876C85.5972 150.111 85.7891 150.3 86.0245 150.3C86.2563 150.3 86.4483 150.111 86.4483 149.876C86.4483 149.64 86.2563 149.452 86.0245 149.452C85.7891 149.452 85.5972 149.64 85.5972 149.876Z" fill="#FCFCFC"/>
<path d="M106.191 149.491C105.099 149.169 104.001 148.86 102.925 148.5L103.247 148.488C102.468 148.932 101.732 149.467 100.941 149.888C100.123 150.258 99.2628 150.542 98.2905 150.602C98.2557 150.605 98.225 150.578 98.223 150.543C98.2223 150.525 98.2278 150.51 98.2381 150.497C98.8693 149.754 99.6114 149.235 100.397 148.801C101.208 148.419 102.076 148.149 102.899 147.79L102.941 147.771C103.035 147.731 103.138 147.737 103.222 147.778C104.239 148.283 105.235 148.839 106.236 149.382C106.264 149.398 106.276 149.434 106.26 149.462C106.246 149.487 106.217 149.498 106.191 149.491Z" fill="#111D33"/>
<path d="M101.321 149.764C101.321 150.667 102.055 151.391 102.958 151.391C103.847 151.391 104.582 150.667 104.582 149.764C104.582 148.861 103.847 148.139 102.958 148.139C102.055 148.139 101.321 148.861 101.321 149.764Z" fill="#111D33"/>
<path d="M103.15 149.876C103.15 150.111 103.342 150.3 103.577 150.3C103.809 150.3 104.001 150.111 104.001 149.876C104.001 149.64 103.809 149.452 103.577 149.452C103.342 149.452 103.15 149.64 103.15 149.876Z" fill="#FCFCFC"/>
<path d="M154.441 204.651L151.232 187.583C151.193 187.375 151.213 187.159 151.291 186.962L155.376 176.551C155.462 176.331 155.615 176.144 155.813 176.016L162.165 171.914C162.891 171.445 163.844 171.932 163.903 172.794C164.027 174.592 163.433 177.374 159.286 179.181L157.708 186.11C157.708 186.11 164.995 190.69 164.347 199.524" fill="#F7A386"/>
<path d="M151.228 187.577L151.267 187.783L155.248 177.622C155.338 177.403 155.492 177.222 155.686 177.093L162.036 172.993C162.77 172.529 163.723 173.006 163.775 173.87C163.788 174.05 163.788 174.244 163.788 174.45C163.917 173.857 163.942 173.29 163.904 172.8C163.839 171.936 162.886 171.446 162.165 171.91L155.814 176.011C155.621 176.139 155.466 176.333 155.376 176.552L151.293 186.958C151.216 187.164 151.19 187.37 151.228 187.577Z" fill="#FEE1BC"/>
<path d="M139.584 267.883C144.685 279.746 157.746 281.397 164.638 257.826C171.542 234.242 166.3 204.649 166.3 204.649C166.3 204.649 167.059 204.442 168.193 203.927C167.935 203.166 167.382 202.779 166.171 203.411C163.968 204.558 163.814 207.95 163.492 210.065C163.041 213.095 162.86 216.177 162.951 219.245C163.169 226.118 164.754 233.171 162.783 239.748C161.418 244.273 158.455 248.258 157.669 252.9C157.193 255.775 157.579 258.702 157.412 261.604C157.257 264.505 156.394 267.599 154.076 269.353C152.35 270.656 149.954 271.004 147.931 270.243C145.922 269.469 144.35 267.625 143.925 265.511C143.655 264.195 143.809 262.841 143.642 261.526C143.474 260.198 142.882 258.793 141.671 258.251C140.808 257.864 139.803 257.993 138.979 258.444C138.566 262.493 138.682 265.794 139.584 267.883Z" fill="url(#paint9_linear_444_24012)"/>
<path d="M170.517 193.212C170.517 194.362 171.452 195.284 172.587 195.284C173.736 195.284 174.671 194.362 174.671 193.212C174.671 192.062 173.736 191.14 172.587 191.14C171.452 191.14 170.517 192.062 170.517 193.212Z" fill="white"/>
<path d="M167.808 147.987C167.808 148.391 168.135 148.719 168.538 148.719H173.626C174.029 148.719 174.356 148.391 174.356 147.987C174.356 147.583 174.029 147.256 173.626 147.256H168.538C168.135 147.256 167.808 147.584 167.808 147.987Z" fill="white"/>
<path d="M175.43 147.987C175.43 148.391 175.757 148.719 176.161 148.719H176.65C177.054 148.719 177.381 148.391 177.381 147.987C177.381 147.583 177.054 147.256 176.65 147.256H176.161C175.757 147.256 175.43 147.584 175.43 147.987Z" fill="white"/>
<path d="M171.836 166.23C171.768 166.236 171.698 166.234 171.629 166.223C171.399 166.189 171.192 166.064 171.054 165.877L169.967 164.403C169.679 164.012 169.762 163.463 170.152 163.175C170.542 162.886 171.091 162.97 171.378 163.36L171.943 164.126L174.339 162.348C174.726 162.061 175.276 162.141 175.565 162.531C175.854 162.92 175.772 163.47 175.383 163.759L172.281 166.06C172.15 166.158 171.996 166.216 171.836 166.23Z" fill="white"/>
<path d="M180.248 179.559V183.807C180.248 184.341 179.815 184.775 179.281 184.775H166.252C165.718 184.775 165.285 184.341 165.285 183.807V179.559C165.285 179.024 165.718 178.591 166.252 178.591H179.281C179.815 178.591 180.248 179.024 180.248 179.559Z" fill="#F3F1FC"/>
<path d="M180.248 183.158V183.811C180.248 184.341 179.817 184.772 179.276 184.772H166.257C165.716 184.772 165.285 184.341 165.285 183.811V179.562C165.285 179.02 165.716 178.589 166.257 178.589H166.959V178.626C166.959 181.138 172.508 183.171 179.35 183.171C179.657 183.171 179.953 183.171 180.248 183.158Z" fill="#D0CEF2"/>
<path d="M285.439 206.467L285.444 215.327C285.445 216.228 284.715 216.959 283.815 216.959L226.15 216.991C225.25 216.992 224.52 216.262 224.519 215.361L224.515 206.5C224.514 205.599 225.243 204.868 226.143 204.868L283.809 204.836C284.709 204.836 285.439 205.566 285.439 206.467Z" fill="#F3F1FC"/>
<path d="M280.559 210.914C280.559 212.119 279.583 213.097 278.379 213.097H231.58C230.376 213.097 229.399 212.119 229.399 210.914C229.399 209.708 230.376 208.73 231.58 208.73H278.379C279.583 208.73 280.559 209.708 280.559 210.914Z" fill="white"/>
<path d="M234.624 262.152L237.629 263.877C238.026 264.104 238.513 264.105 238.91 263.877L241.925 262.148C242.321 261.921 242.808 261.92 243.205 262.148L246.222 263.877C246.618 264.105 247.106 264.105 247.502 263.877L250.519 262.148C250.915 261.921 251.403 261.921 251.799 262.148L254.811 263.877C255.207 264.104 255.695 264.105 256.091 263.877L259.108 262.148C259.504 261.921 259.992 261.921 260.388 262.148L263.406 263.878C263.802 264.105 264.289 264.105 264.685 263.878L267.705 262.147C268.101 261.92 268.588 261.92 268.984 262.147L272.011 263.879C272.407 264.105 272.893 264.105 273.289 263.879L276.307 262.152C276.708 261.923 276.955 261.496 276.955 261.033V210.83C276.955 210.351 276.567 209.962 276.088 209.962H234.844C234.365 209.962 233.976 210.351 233.976 210.83V261.034C233.977 261.496 234.223 261.923 234.624 262.152Z" fill="#D0CEF2"/>
<path d="M267.531 214.906V221.067C267.531 221.468 267.207 221.792 266.807 221.792H244.125C243.725 221.792 243.401 221.468 243.401 221.067V214.906C243.401 214.506 243.725 214.181 244.125 214.181H266.807C267.207 214.181 267.531 214.506 267.531 214.906Z" fill="white"/>
<path d="M249.831 226.593H238.478V228.201H249.831V226.593Z" fill="white"/>
<path d="M272.455 226.593H265.563V228.201H272.455V226.593Z" fill="white"/>
<path d="M258.476 230.988H238.478V232.597H258.476V230.988Z" fill="white"/>
<path d="M272.455 230.988H267.523V232.597H272.455V230.988Z" fill="white"/>
<path d="M248.18 235.383H238.478V236.992H248.18V235.383Z" fill="white"/>
<path d="M272.455 235.383H265.563V236.992H272.455V235.383Z" fill="white"/>
<path d="M258.476 239.779H238.478V241.387H258.476V239.779Z" fill="white"/>
<path d="M272.455 239.779H267.523V241.387H272.455V239.779Z" fill="white"/>
<path d="M254.167 244.174H238.478V245.782H254.167V244.174Z" fill="white"/>
<path d="M272.455 244.174H262.28V245.782H272.455V244.174Z" fill="white"/>
<path d="M248.18 248.569H238.478V250.177H248.18V248.569Z" fill="white"/>
<path d="M272.455 248.569H266.321V250.177H272.455V248.569Z" fill="white"/>
<path d="M254.992 252.964H238.478V254.572H254.992V252.964Z" fill="white"/>
<path d="M272.455 252.964H263.345V254.572H272.455V252.964Z" fill="white"/>
<path d="M281.941 280.665V294.731C281.941 296.076 280.852 297.166 279.509 297.166H230.668C229.325 297.166 228.236 296.076 228.236 294.731V280.665C228.236 279.32 229.325 278.23 230.668 278.23H279.509C280.852 278.23 281.941 279.32 281.941 280.665Z" fill="#09B782"/>
<path d="M281.947 292.507V294.737C281.947 296.079 280.851 297.163 279.51 297.163H230.673C229.319 297.163 228.237 296.079 228.237 294.737V294.638C234.746 295.735 242.289 296.351 250.336 296.351C262.702 296.351 273.899 294.885 281.947 292.507Z" fill="#06825C"/>
<path d="M250.337 282.345C249.776 282.047 249.048 281.894 248.173 281.894H245.119C244.897 281.894 244.708 281.975 244.558 282.132C244.408 282.287 244.332 282.478 244.332 282.696V290.904C244.332 291.124 244.409 291.312 244.56 291.464C244.712 291.616 244.9 291.693 245.119 291.693C245.336 291.693 245.525 291.617 245.682 291.466C245.84 291.314 245.92 291.125 245.92 290.904V288.219H248.173C249.047 288.219 249.775 288.067 250.337 287.769C250.903 287.466 251.317 287.069 251.566 286.59C251.811 286.12 251.934 285.604 251.934 285.056C251.934 284.51 251.811 283.995 251.565 283.523C251.316 283.044 250.903 282.648 250.337 282.345ZM250.346 285.056C250.346 285.527 250.184 285.908 249.849 286.223C249.516 286.536 248.912 286.695 248.053 286.695H245.92V283.418H248.053C248.91 283.418 249.515 283.577 249.849 283.891C250.184 284.206 250.346 284.587 250.346 285.056Z" fill="#06825C"/>
<path d="M257.263 284.683C256.811 284.418 256.255 284.282 255.608 284.282C254.802 284.282 253.998 284.449 253.219 284.78C252.917 284.907 252.758 285.142 252.758 285.459C252.758 285.653 252.826 285.818 252.959 285.951C253.092 286.085 253.253 286.153 253.438 286.153C253.5 286.153 253.571 286.143 253.671 286.117C253.985 286.013 254.272 285.933 254.526 285.881C254.776 285.831 255.068 285.806 255.394 285.806C255.962 285.806 256.378 285.92 256.631 286.147C256.867 286.357 256.992 286.713 257.004 287.205H255.568C254.523 287.205 253.713 287.416 253.16 287.832C252.591 288.261 252.303 288.843 252.303 289.562C252.303 289.999 252.412 290.391 252.626 290.729C252.841 291.065 253.134 291.324 253.499 291.499C253.855 291.671 254.25 291.759 254.671 291.759C255.581 291.759 256.366 291.494 257.007 290.972C257.022 291.162 257.097 291.328 257.233 291.464C257.535 291.765 258.04 291.767 258.355 291.466C258.513 291.314 258.593 291.125 258.593 290.904V287.108C258.593 286.616 258.485 286.152 258.271 285.731C258.055 285.303 257.716 284.95 257.263 284.683ZM257.005 288.554V289.424C256.779 289.671 256.501 289.88 256.179 290.049C255.841 290.228 255.487 290.316 255.126 290.316C254.666 290.316 254.341 290.233 254.157 290.069C253.978 289.908 253.891 289.698 253.891 289.429C253.891 288.848 254.509 288.554 255.729 288.554H257.005Z" fill="#06825C"/>
<path d="M266.084 284.586C265.932 284.429 265.742 284.348 265.522 284.348C265.289 284.348 264.974 284.438 264.789 284.865L262.858 289.543L260.964 284.839C260.906 284.698 260.809 284.581 260.678 284.49C260.364 284.27 259.934 284.311 259.67 284.586C259.52 284.741 259.443 284.931 259.443 285.15C259.443 285.256 259.466 285.364 259.511 285.475L262.001 291.549L261.156 293.722C261.122 293.813 261.105 293.907 261.105 294.001C261.105 294.21 261.178 294.394 261.323 294.545L261.323 294.546C261.472 294.699 261.654 294.777 261.865 294.777C262.09 294.777 262.4 294.685 262.598 294.246L266.258 285.444C266.292 285.351 266.31 285.252 266.31 285.15C266.31 284.931 266.234 284.742 266.084 284.586Z" fill="#06825C"/>
<path d="M250.337 281.708C249.776 281.41 249.048 281.257 248.173 281.257H245.119C244.897 281.257 244.708 281.337 244.558 281.495C244.408 281.65 244.332 281.84 244.332 282.059V290.266C244.332 290.486 244.409 290.675 244.56 290.827C244.712 290.978 244.9 291.055 245.119 291.055C245.336 291.055 245.525 290.98 245.682 290.829C245.84 290.676 245.92 290.488 245.92 290.266V287.581H248.173C249.047 287.581 249.775 287.43 250.337 287.132C250.903 286.828 251.317 286.432 251.566 285.953C251.811 285.482 251.934 284.966 251.934 284.419C251.934 283.873 251.811 283.358 251.565 282.885C251.316 282.407 250.903 282.011 250.337 281.708ZM250.346 284.419C250.346 284.89 250.184 285.271 249.849 285.586C249.516 285.899 248.912 286.058 248.053 286.058H245.92V282.781H248.053C248.91 282.781 249.515 282.94 249.849 283.254C250.184 283.569 250.346 283.95 250.346 284.419Z" fill="white"/>
<path d="M257.263 284.046C256.811 283.78 256.255 283.645 255.608 283.645C254.802 283.645 253.998 283.812 253.219 284.143C252.917 284.27 252.758 284.505 252.758 284.822C252.758 285.016 252.826 285.181 252.959 285.314C253.092 285.448 253.253 285.516 253.438 285.516C253.5 285.516 253.571 285.505 253.671 285.48C253.985 285.376 254.272 285.296 254.526 285.244C254.776 285.194 255.068 285.169 255.394 285.169C255.962 285.169 256.378 285.283 256.631 285.51C256.867 285.72 256.992 286.076 257.004 286.567H255.568C254.523 286.567 253.713 286.779 253.16 287.195C252.591 287.624 252.303 288.206 252.303 288.925C252.303 289.362 252.412 289.754 252.626 290.092C252.841 290.427 253.134 290.687 253.499 290.862C253.855 291.034 254.25 291.122 254.671 291.122C255.581 291.122 256.366 290.857 257.007 290.335C257.022 290.525 257.097 290.691 257.233 290.827C257.535 291.128 258.04 291.13 258.355 290.829C258.513 290.677 258.593 290.488 258.593 290.266V286.471C258.593 285.979 258.485 285.515 258.271 285.094C258.055 284.666 257.716 284.313 257.263 284.046ZM257.005 287.917V288.787C256.779 289.033 256.501 289.243 256.179 289.412C255.841 289.59 255.487 289.679 255.126 289.679C254.666 289.679 254.341 289.596 254.157 289.431C253.978 289.27 253.891 289.061 253.891 288.792C253.891 288.211 254.509 287.917 255.729 287.917H257.005Z" fill="white"/>
<path d="M266.084 283.949C265.932 283.791 265.742 283.711 265.522 283.711C265.289 283.711 264.974 283.801 264.789 284.228L262.858 288.906L260.964 284.201C260.906 284.061 260.809 283.944 260.678 283.853C260.364 283.632 259.934 283.673 259.67 283.949C259.52 284.104 259.443 284.294 259.443 284.513C259.443 284.619 259.466 284.727 259.511 284.838L262.001 290.912L261.156 293.085C261.122 293.176 261.105 293.27 261.105 293.364C261.105 293.573 261.178 293.757 261.323 293.907L261.323 293.909C261.472 294.061 261.654 294.14 261.865 294.14C262.09 294.14 262.4 294.048 262.598 293.609L266.258 284.807C266.292 284.714 266.31 284.615 266.31 284.513C266.31 284.294 266.234 284.105 266.084 283.949Z" fill="white"/>
<path d="M221.675 136.464C221.675 136.584 221.578 136.681 221.459 136.681C220.553 136.681 219.816 137.419 219.816 138.325C219.816 138.445 219.719 138.542 219.6 138.542C219.48 138.542 219.383 138.445 219.383 138.325C219.383 137.886 219.212 137.473 218.902 137.163C218.592 136.852 218.18 136.681 217.74 136.681C217.62 136.681 217.523 136.584 217.523 136.464C217.523 136.345 217.62 136.247 217.74 136.247C218.179 136.247 218.591 136.076 218.902 135.766C219.212 135.455 219.383 135.042 219.383 134.603C219.383 134.483 219.48 134.386 219.6 134.386C219.719 134.386 219.816 134.483 219.816 134.603C219.816 135.043 219.987 135.456 220.297 135.766C220.607 136.076 221.02 136.247 221.459 136.247C221.578 136.247 221.675 136.345 221.675 136.464Z" fill="#F45170"/>
<defs>
<linearGradient id="paint0_linear_444_24012" x1="256.754" y1="149.427" x2="262.198" y2="149.427" gradientUnits="userSpaceOnUse">
<stop stop-color="#DC554D"/>
<stop offset="1" stop-color="#D32B20"/>
</linearGradient>
<linearGradient id="paint1_linear_444_24012" x1="263.508" y1="147.824" x2="268.952" y2="147.824" gradientUnits="userSpaceOnUse">
<stop stop-color="#DC554D"/>
<stop offset="1" stop-color="#D32B20"/>
</linearGradient>
<linearGradient id="paint2_linear_444_24012" x1="252.184" y1="146.441" x2="255.81" y2="146.441" gradientUnits="userSpaceOnUse">
<stop stop-color="#DC554D"/>
<stop offset="1" stop-color="#D32B20"/>
</linearGradient>
<linearGradient id="paint3_linear_444_24012" x1="212.105" y1="193.795" x2="217.038" y2="193.795" gradientUnits="userSpaceOnUse">
<stop stop-color="#8FB7FF"/>
<stop offset="1" stop-color="#9FBCFC"/>
</linearGradient>
<linearGradient id="paint4_linear_444_24012" x1="173.404" y1="189.359" x2="156.324" y2="189.359" gradientUnits="userSpaceOnUse">
<stop offset="1e-07" stop-color="#F7A386"/>
<stop offset="1" stop-color="#FD6B58"/>
</linearGradient>
<linearGradient id="paint5_linear_444_24012" x1="137.098" y1="230.248" x2="42.2181" y2="230.248" gradientUnits="userSpaceOnUse">
<stop offset="1e-07" stop-color="#F7A386"/>
<stop offset="1" stop-color="#FD6B58"/>
</linearGradient>
<linearGradient id="paint6_linear_444_24012" x1="90.8502" y1="227.951" x2="79.3141" y2="235.298" gradientUnits="userSpaceOnUse">
<stop offset="1e-07" stop-color="#F7A386"/>
<stop offset="1" stop-color="#FD6B58"/>
</linearGradient>
<linearGradient id="paint7_linear_444_24012" x1="90.4859" y1="227.727" x2="75.7053" y2="237.054" gradientUnits="userSpaceOnUse">
<stop offset="1e-07" stop-color="#F7A386"/>
<stop offset="1" stop-color="#FD6B58"/>
</linearGradient>
<linearGradient id="paint8_linear_444_24012" x1="114.844" y1="187.035" x2="95.3629" y2="187.035" gradientUnits="userSpaceOnUse">
<stop offset="1e-07" stop-color="#F7A386"/>
<stop offset="1" stop-color="#FD6B58"/>
</linearGradient>
<linearGradient id="paint9_linear_444_24012" x1="168.205" y1="239.713" x2="138.751" y2="239.713" gradientUnits="userSpaceOnUse">
<stop offset="1e-07" stop-color="#F7A386"/>
<stop offset="1" stop-color="#FD6B58"/>
</linearGradient>
</defs>
</svg>
