<svg width="29" height="36" viewBox="0 0 29 36" fill="none" xmlns="http://www.w3.org/2000/svg">
<path d="M12 17.4999C11.7239 17.4999 11.5 17.7238 11.5 17.9999C11.5 18.276 11.7239 18.4999 12 18.4999H17C17.2761 18.4999 17.5 18.276 17.5 17.9999C17.5 17.7238 17.2761 17.4999 17 17.4999H12Z" fill="#929292"/>
<path fill-rule="evenodd" clip-rule="evenodd" d="M16.6688 2.57505C15.3972 1.57117 13.6028 1.57117 12.3312 2.57505L5.83124 7.70663C4.99051 8.37037 4.5 9.38255 4.5 10.4537V18.4999C4.5 20.4329 6.067 21.9999 8 21.9999H21C22.933 21.9999 24.5 20.4329 24.5 18.4999V10.4537C24.5 9.38255 24.0095 8.37037 23.1688 7.70663L16.6688 2.57505ZM12.9509 3.35993C13.8592 2.64287 15.1408 2.64287 16.0491 3.35993L22.5491 8.49151C23.1496 8.96561 23.5 9.6886 23.5 10.4537V18.4999C23.5 19.8806 22.3807 20.9999 21 20.9999H8C6.61929 20.9999 5.5 19.8806 5.5 18.4999V10.4537C5.5 9.6886 5.85036 8.96561 6.45089 8.49151L12.9509 3.35993Z" fill="#929292"/>
<path d="M5.99 28.0099V34.9999H5.29V31.7299H1.5V34.9999H0.8V28.0099H1.5V31.1499H5.29V28.0099H5.99ZM9.47711 35.0799C8.96378 35.0799 8.50044 34.9666 8.08711 34.7399C7.68044 34.5066 7.35711 34.1799 7.11711 33.7599C6.88378 33.3333 6.76711 32.8366 6.76711 32.2699C6.76711 31.7033 6.88711 31.2099 7.12711 30.7899C7.36711 30.3633 7.69378 30.0366 8.10711 29.8099C8.52044 29.5766 8.98378 29.4599 9.49711 29.4599C10.0104 29.4599 10.4738 29.5766 10.8871 29.8099C11.3071 30.0366 11.6338 30.3633 11.8671 30.7899C12.1071 31.2099 12.2271 31.7033 12.2271 32.2699C12.2271 32.8299 12.1071 33.3233 11.8671 33.7499C11.6271 34.1766 11.2971 34.5066 10.8771 34.7399C10.4571 34.9666 9.99044 35.0799 9.47711 35.0799ZM9.47711 34.4699C9.83711 34.4699 10.1704 34.3899 10.4771 34.2299C10.7838 34.0633 11.0304 33.8166 11.2171 33.4899C11.4104 33.1566 11.5071 32.7499 11.5071 32.2699C11.5071 31.7899 11.4138 31.3866 11.2271 31.0599C11.0404 30.7266 10.7938 30.4799 10.4871 30.3199C10.1804 30.1533 9.84711 30.0699 9.48711 30.0699C9.12711 30.0699 8.79378 30.1533 8.48711 30.3199C8.18044 30.4799 7.93378 30.7266 7.74711 31.0599C7.56711 31.3866 7.47711 31.7899 7.47711 32.2699C7.47711 32.7499 7.56711 33.1566 7.74711 33.4899C7.93378 33.8166 8.17711 34.0633 8.47711 34.2299C8.78378 34.3899 9.11711 34.4699 9.47711 34.4699ZM19.5031 29.4399C20.1431 29.4399 20.6631 29.6433 21.0631 30.0499C21.4698 30.4499 21.6731 31.0333 21.6731 31.7999V34.9999H20.9831V31.8799C20.9831 31.2866 20.8398 30.8333 20.5531 30.5199C20.2665 30.2066 19.8765 30.0499 19.3831 30.0499C18.8698 30.0499 18.4598 30.2199 18.1531 30.5599C17.8465 30.8999 17.6931 31.3933 17.6931 32.0399V34.9999H17.0031V31.8799C17.0031 31.2866 16.8598 30.8333 16.5731 30.5199C16.2865 30.2066 15.8931 30.0499 15.3931 30.0499C14.8798 30.0499 14.4698 30.2199 14.1631 30.5599C13.8565 30.8999 13.7031 31.3933 13.7031 32.0399V34.9999H13.0031V29.5399H13.7031V30.4799C13.8765 30.1399 14.1231 29.8833 14.4431 29.7099C14.7631 29.5299 15.1198 29.4399 15.5131 29.4399C15.9865 29.4399 16.3998 29.5533 16.7531 29.7799C17.1131 30.0066 17.3731 30.3399 17.5331 30.7799C17.6798 30.3466 17.9298 30.0166 18.2831 29.7899C18.6431 29.5566 19.0498 29.4399 19.5031 29.4399ZM27.6677 31.9899C27.6677 32.2299 27.6611 32.4133 27.6477 32.5399H23.1177C23.1377 32.9533 23.2377 33.3066 23.4177 33.5999C23.5977 33.8933 23.8344 34.1166 24.1277 34.2699C24.4211 34.4166 24.7411 34.4899 25.0877 34.4899C25.5411 34.4899 25.9211 34.3799 26.2277 34.1599C26.5411 33.9399 26.7477 33.6433 26.8477 33.2699H27.5877C27.4544 33.8033 27.1677 34.2399 26.7277 34.5799C26.2944 34.9133 25.7477 35.0799 25.0877 35.0799C24.5744 35.0799 24.1144 34.9666 23.7077 34.7399C23.3011 34.5066 22.9811 34.1799 22.7477 33.7599C22.5211 33.3333 22.4077 32.8366 22.4077 32.2699C22.4077 31.7033 22.5211 31.2066 22.7477 30.7799C22.9744 30.3533 23.2911 30.0266 23.6977 29.7999C24.1044 29.5733 24.5677 29.4599 25.0877 29.4599C25.6077 29.4599 26.0611 29.5733 26.4477 29.7999C26.8411 30.0266 27.1411 30.3333 27.3477 30.7199C27.5611 31.0999 27.6677 31.5233 27.6677 31.9899ZM26.9577 31.9699C26.9644 31.5633 26.8811 31.2166 26.7077 30.9299C26.5411 30.6433 26.3111 30.4266 26.0177 30.2799C25.7244 30.1333 25.4044 30.0599 25.0577 30.0599C24.5377 30.0599 24.0944 30.2266 23.7277 30.5599C23.3611 30.8933 23.1577 31.3633 23.1177 31.9699H26.9577Z" fill="#929292"/>
</svg>
