<svg width="51" height="38" viewBox="0 0 51 38" fill="none" xmlns="http://www.w3.org/2000/svg">
<g clip-path="url(#clip0_488_4230)">
<path d="M28.5537 1.43744H34.2676C34.7436 1.43745 35.2005 1.62623 35.5371 1.96283C35.8737 2.29943 36.0625 2.75634 36.0625 3.23236V8.94623C36.0637 9.1826 36.0183 9.41696 35.9287 9.63568C35.8391 9.85435 35.7067 10.0531 35.54 10.2206C35.3732 10.3883 35.1744 10.5215 34.9561 10.6122C34.7378 10.7029 34.5039 10.7499 34.2676 10.7499H28.5537C28.3166 10.7511 28.0816 10.7053 27.8623 10.6152C27.6429 10.5249 27.4431 10.3923 27.2754 10.2245C27.1077 10.0568 26.975 9.857 26.8848 9.63763C26.7946 9.41835 26.7488 9.18333 26.75 8.94623V3.23236C26.75 2.99602 26.797 2.76214 26.8877 2.54388C26.9785 2.32553 27.1117 2.1267 27.2793 1.9599C27.4468 1.79324 27.6456 1.66086 27.8643 1.57123C28.083 1.4816 28.3173 1.4363 28.5537 1.43744ZM28.5566 1.56244C28.3375 1.56092 28.1201 1.60212 27.917 1.68451C27.7126 1.76745 27.5269 1.89064 27.3701 2.04584C27.2133 2.20112 27.0888 2.38612 27.0039 2.58978C26.919 2.79341 26.875 3.01174 26.875 3.23236V8.93842C26.8729 9.16043 26.9151 9.38132 26.999 9.58685C27.083 9.7923 27.2073 9.97874 27.3643 10.1357C27.5212 10.2926 27.7077 10.4169 27.9131 10.5009C28.1172 10.5843 28.3361 10.6255 28.5566 10.624V10.6249H34.2676C34.7095 10.6249 35.1333 10.4496 35.4463 10.1376C35.7593 9.82561 35.9361 9.40188 35.9375 8.9599V3.23236C35.9375 2.78949 35.7614 2.36486 35.4482 2.0517C35.1351 1.73854 34.7105 1.56245 34.2676 1.56244H28.5566Z" fill="black" stroke="#929292"/>
<path d="M26.75 14.9286C26.7485 14.7076 26.7911 14.4885 26.875 14.2841C26.959 14.0795 27.0827 13.8934 27.2393 13.7372C27.3958 13.5809 27.5824 13.4576 27.7871 13.3739C27.9917 13.2904 28.2107 13.248 28.4316 13.2499H34.3916C34.6117 13.2499 34.83 13.2933 35.0332 13.3778C35.2364 13.4623 35.421 13.5861 35.5762 13.7421C35.7315 13.8982 35.854 14.0842 35.9375 14.288C36.0209 14.4916 36.0636 14.7095 36.0625 14.9296V20.8915C36.0614 21.3343 35.8854 21.759 35.5723 22.0721C35.2589 22.3855 34.8338 22.5616 34.3906 22.5624H28.4209C27.9778 22.5623 27.5526 22.3864 27.2393 22.0731C26.9259 21.7598 26.7501 21.3346 26.75 20.8915V14.9286ZM35.9375 14.9159C35.936 14.5068 35.7722 14.1148 35.4824 13.826C35.1927 13.5374 34.8006 13.375 34.3916 13.3749H28.4365C28.2326 13.3729 28.0299 13.4116 27.8408 13.4882C27.6497 13.5656 27.4762 13.6805 27.3301 13.826C27.1839 13.9717 27.0683 14.1449 26.9902 14.3358C26.9316 14.4792 26.8945 14.6303 26.8809 14.7841L26.875 14.9325V20.8915C26.875 21.0963 26.9161 21.2992 26.9951 21.4882C27.0742 21.6771 27.1901 21.8483 27.3359 21.9921C27.4818 22.1359 27.6546 22.2497 27.8447 22.326C28.0327 22.4016 28.234 22.4384 28.4365 22.4364V22.4374H34.3916C34.8016 22.4373 35.1945 22.2742 35.4844 21.9843C35.7743 21.6943 35.9374 21.3015 35.9375 20.8915V14.9159Z" fill="black" stroke="#929292"/>
<path d="M16.7324 1.43744H22.4463C22.6827 1.43629 22.917 1.4816 23.1357 1.57123C23.3544 1.66086 23.5532 1.79326 23.7207 1.9599C23.8883 2.1267 24.0215 2.32553 24.1123 2.54388C24.203 2.76214 24.25 2.99601 24.25 3.23236V8.94623C24.2512 9.18333 24.2054 9.41834 24.1152 9.63763C24.025 9.85701 23.8923 10.0568 23.7246 10.2245C23.5569 10.3923 23.3571 10.5249 23.1377 10.6152C22.9184 10.7053 22.6834 10.7511 22.4463 10.7499H16.7324C16.4961 10.7499 16.2622 10.7029 16.0439 10.6122C15.8256 10.5215 15.6268 10.3883 15.46 10.2206C15.2933 10.0531 15.1609 9.85433 15.0713 9.63568C14.9817 9.41696 14.9363 9.18259 14.9375 8.94623V3.23236C14.9375 2.75634 15.1263 2.29943 15.4629 1.96283C15.7995 1.62623 16.2564 1.43747 16.7324 1.43744ZM16.7324 1.56244C16.2895 1.56247 15.8649 1.73854 15.5518 2.0517C15.2386 2.36486 15.0625 2.78949 15.0625 3.23236V8.93939C15.0604 9.15983 15.1017 9.37867 15.1846 9.58295C15.2675 9.78733 15.3907 9.97309 15.5459 10.1298C15.7012 10.2866 15.8862 10.4111 16.0898 10.496C16.2935 10.5809 16.5118 10.6249 16.7324 10.6249H22.4434V10.624C22.6639 10.6255 22.8827 10.5843 23.0869 10.5009C23.2924 10.4169 23.4788 10.2926 23.6357 10.1357C23.7927 9.97874 23.917 9.79231 24.001 9.58685C24.0849 9.38132 24.1271 9.16043 24.125 8.93842V3.23236C24.125 3.01174 24.081 2.79341 23.9961 2.58978C23.9112 2.38612 23.7867 2.20112 23.6299 2.04584C23.4731 1.89065 23.2874 1.76745 23.083 1.68451C22.8799 1.60212 22.6625 1.56091 22.4434 1.56244H16.7324Z" fill="black" stroke="#929292"/>
<path d="M16.6084 13.3749C16.4042 13.375 16.2021 13.4155 16.0137 13.4941C15.825 13.5728 15.6536 13.6886 15.5098 13.8339C15.3661 13.9792 15.2525 14.1514 15.1758 14.3408C15.1182 14.4829 15.0818 14.6329 15.0684 14.7851L15.0625 14.9326V20.8915C15.0626 21.3015 15.2257 21.6944 15.5156 21.9843C15.8055 22.2742 16.1984 22.4373 16.6084 22.4374H22.5674V22.4365C22.7701 22.438 22.9713 22.4002 23.1592 22.3242C23.3486 22.2474 23.5207 22.1339 23.666 21.9902C23.8113 21.8465 23.9271 21.6758 24.0059 21.4872C24.0846 21.2986 24.125 21.0959 24.125 20.8915V14.9326C24.1265 14.7285 24.0878 14.5258 24.0107 14.3369C23.933 14.1463 23.8174 13.9736 23.6719 13.8281C23.5263 13.6825 23.3536 13.5669 23.1631 13.4892C22.9741 13.4121 22.7715 13.3734 22.5674 13.3749H16.6084ZM14.9375 14.9296C14.9364 14.7096 14.9791 14.4916 15.0625 14.288C15.146 14.0843 15.2685 13.8982 15.4238 13.7421C15.579 13.5862 15.7636 13.4624 15.9668 13.3779C16.17 13.2934 16.3883 13.25 16.6084 13.2499H22.5713C22.7921 13.2484 23.0115 13.2911 23.2158 13.3749C23.42 13.4588 23.6056 13.5821 23.7617 13.7382C23.9179 13.8944 24.0412 14.0807 24.125 14.2851C24.2087 14.4893 24.2515 14.7079 24.25 14.9286V20.8915C24.2499 21.3342 24.0744 21.7589 23.7617 22.0722C23.449 22.3854 23.0246 22.5616 22.582 22.5624H16.6094C16.1662 22.5616 15.7411 22.3856 15.4277 22.0722C15.1535 21.798 14.9849 21.4381 14.9463 21.0556L14.9375 20.8906V14.9296Z" fill="black" stroke="#929292"/>
</g>
<path d="M0.910664 31.4999C0.910664 30.8133 1.06066 30.1999 1.36066 29.6599C1.66066 29.1133 2.07066 28.6899 2.59066 28.3899C3.11066 28.0833 3.69066 27.9299 4.33066 27.9299C5.11066 27.9299 5.77733 28.1166 6.33066 28.4899C6.89066 28.8566 7.29733 29.3766 7.55066 30.0499H6.73066C6.53066 29.5766 6.224 29.2066 5.81066 28.9399C5.404 28.6733 4.91066 28.5399 4.33066 28.5399C3.81733 28.5399 3.354 28.6599 2.94066 28.8999C2.534 29.1399 2.214 29.4866 1.98066 29.9399C1.74733 30.3866 1.63066 30.9066 1.63066 31.4999C1.63066 32.0933 1.74733 32.6133 1.98066 33.0599C2.214 33.5066 2.534 33.8499 2.94066 34.0899C3.354 34.3299 3.81733 34.4499 4.33066 34.4499C4.91066 34.4499 5.404 34.3199 5.81066 34.0599C6.224 33.7933 6.53066 33.4266 6.73066 32.9599H7.55066C7.29733 33.6266 6.89066 34.1433 6.33066 34.5099C5.77066 34.8766 5.104 35.0599 4.33066 35.0599C3.69066 35.0599 3.11066 34.9099 2.59066 34.6099C2.07066 34.3033 1.66066 33.8799 1.36066 33.3399C1.06066 32.7999 0.910664 32.1866 0.910664 31.4999ZM8.12551 32.2599C8.12551 31.6999 8.23551 31.2099 8.45551 30.7899C8.68217 30.3633 8.99217 30.0366 9.38551 29.8099C9.78551 29.5766 10.2355 29.4599 10.7355 29.4599C11.2555 29.4599 11.7022 29.5799 12.0755 29.8199C12.4555 30.0599 12.7288 30.3666 12.8955 30.7399V29.5399H13.5955V34.9999H12.8955V33.7899C12.7222 34.1633 12.4455 34.4733 12.0655 34.7199C11.6922 34.9599 11.2455 35.0799 10.7255 35.0799C10.2322 35.0799 9.78551 34.9633 9.38551 34.7299C8.99217 34.4966 8.68217 34.1666 8.45551 33.7399C8.23551 33.3133 8.12551 32.8199 8.12551 32.2599ZM12.8955 32.2699C12.8955 31.8299 12.8055 31.4433 12.6255 31.1099C12.4455 30.7766 12.1988 30.5199 11.8855 30.3399C11.5788 30.1599 11.2388 30.0699 10.8655 30.0699C10.4788 30.0699 10.1322 30.1566 9.82551 30.3299C9.51884 30.5033 9.27551 30.7566 9.09551 31.0899C8.92217 31.4166 8.83551 31.8066 8.83551 32.2599C8.83551 32.7066 8.92217 33.0999 9.09551 33.4399C9.27551 33.7733 9.51884 34.0299 9.82551 34.2099C10.1322 34.3833 10.4788 34.4699 10.8655 34.4699C11.2388 34.4699 11.5788 34.3799 11.8855 34.1999C12.1988 34.0199 12.4455 33.7633 12.6255 33.4299C12.8055 33.0966 12.8955 32.7099 12.8955 32.2699ZM15.6036 30.1299V33.5199C15.6036 33.8533 15.6669 34.0833 15.7936 34.2099C15.9202 34.3366 16.1436 34.3999 16.4636 34.3999H17.1036V34.9999H16.3536C15.8602 34.9999 15.4936 34.8866 15.2536 34.6599C15.0136 34.4266 14.8936 34.0466 14.8936 33.5199V30.1299H14.1336V29.5399H14.8936V28.1699H15.6036V29.5399H17.1036V30.1299H15.6036ZM22.698 31.9899C22.698 32.2299 22.6913 32.4133 22.678 32.5399H18.148C18.168 32.9533 18.268 33.3066 18.448 33.5999C18.628 33.8933 18.8647 34.1166 19.158 34.2699C19.4513 34.4166 19.7713 34.4899 20.118 34.4899C20.5713 34.4899 20.9513 34.3799 21.258 34.1599C21.5713 33.9399 21.778 33.6433 21.878 33.2699H22.618C22.4847 33.8033 22.198 34.2399 21.758 34.5799C21.3247 34.9133 20.778 35.0799 20.118 35.0799C19.6047 35.0799 19.1447 34.9666 18.738 34.7399C18.3313 34.5066 18.0113 34.1799 17.778 33.7599C17.5513 33.3333 17.438 32.8366 17.438 32.2699C17.438 31.7033 17.5513 31.2066 17.778 30.7799C18.0047 30.3533 18.3213 30.0266 18.728 29.7999C19.1347 29.5733 19.598 29.4599 20.118 29.4599C20.638 29.4599 21.0913 29.5733 21.478 29.7999C21.8713 30.0266 22.1713 30.3333 22.378 30.7199C22.5913 31.0999 22.698 31.5233 22.698 31.9899ZM21.988 31.9699C21.9947 31.5633 21.9113 31.2166 21.738 30.9299C21.5713 30.6433 21.3413 30.4266 21.048 30.2799C20.7547 30.1333 20.4347 30.0599 20.088 30.0599C19.568 30.0599 19.1247 30.2266 18.758 30.5599C18.3913 30.8933 18.188 31.3633 18.148 31.9699H21.988ZM25.7687 29.4599C26.282 29.4599 26.7287 29.5799 27.1087 29.8199C27.4887 30.0599 27.762 30.3633 27.9287 30.7299V29.5399H28.6287V35.1399C28.6287 35.6399 28.5187 36.0833 28.2987 36.4699C28.0854 36.8566 27.7854 37.1533 27.3987 37.3599C27.012 37.5733 26.572 37.6799 26.0787 37.6799C25.3787 37.6799 24.7954 37.5133 24.3287 37.1799C23.8687 36.8466 23.582 36.3933 23.4687 35.8199H24.1587C24.2787 36.1999 24.5054 36.5033 24.8387 36.7299C25.1787 36.9566 25.592 37.0699 26.0787 37.0699C26.432 37.0699 26.7487 36.9933 27.0287 36.8399C27.3087 36.6933 27.5287 36.4733 27.6887 36.1799C27.8487 35.8866 27.9287 35.5399 27.9287 35.1399V33.7899C27.7554 34.1633 27.4787 34.4733 27.0987 34.7199C26.7254 34.9599 26.282 35.0799 25.7687 35.0799C25.2687 35.0799 24.8187 34.9633 24.4187 34.7299C24.0254 34.4966 23.7154 34.1666 23.4887 33.7399C23.2687 33.3133 23.1587 32.8199 23.1587 32.2599C23.1587 31.6999 23.2687 31.2099 23.4887 30.7899C23.7154 30.3633 24.0254 30.0366 24.4187 29.8099C24.8187 29.5766 25.2687 29.4599 25.7687 29.4599ZM27.9287 32.2699C27.9287 31.8299 27.8387 31.4433 27.6587 31.1099C27.4787 30.7766 27.232 30.5199 26.9187 30.3399C26.612 30.1599 26.272 30.0699 25.8987 30.0699C25.512 30.0699 25.1654 30.1566 24.8587 30.3299C24.552 30.5033 24.3087 30.7566 24.1287 31.0899C23.9554 31.4166 23.8687 31.8066 23.8687 32.2599C23.8687 32.7066 23.9554 33.0999 24.1287 33.4399C24.3087 33.7733 24.552 34.0299 24.8587 34.2099C25.1654 34.3833 25.512 34.4699 25.8987 34.4699C26.272 34.4699 26.612 34.3799 26.9187 34.1999C27.232 34.0199 27.4787 33.7633 27.6587 33.4299C27.8387 33.0966 27.9287 32.7099 27.9287 32.2699ZM32.1168 35.0799C31.6034 35.0799 31.1401 34.9666 30.7268 34.7399C30.3201 34.5066 29.9968 34.1799 29.7568 33.7599C29.5234 33.3333 29.4068 32.8366 29.4068 32.2699C29.4068 31.7033 29.5268 31.2099 29.7668 30.7899C30.0068 30.3633 30.3334 30.0366 30.7468 29.8099C31.1601 29.5766 31.6234 29.4599 32.1368 29.4599C32.6501 29.4599 33.1134 29.5766 33.5268 29.8099C33.9468 30.0366 34.2734 30.3633 34.5068 30.7899C34.7468 31.2099 34.8668 31.7033 34.8668 32.2699C34.8668 32.8299 34.7468 33.3233 34.5068 33.7499C34.2668 34.1766 33.9368 34.5066 33.5168 34.7399C33.0968 34.9666 32.6301 35.0799 32.1168 35.0799ZM32.1168 34.4699C32.4768 34.4699 32.8101 34.3899 33.1168 34.2299C33.4234 34.0633 33.6701 33.8166 33.8568 33.4899C34.0501 33.1566 34.1468 32.7499 34.1468 32.2699C34.1468 31.7899 34.0534 31.3866 33.8668 31.0599C33.6801 30.7266 33.4334 30.4799 33.1268 30.3199C32.8201 30.1533 32.4868 30.0699 32.1268 30.0699C31.7668 30.0699 31.4334 30.1533 31.1268 30.3199C30.8201 30.4799 30.5734 30.7266 30.3868 31.0599C30.2068 31.3866 30.1168 31.7899 30.1168 32.2699C30.1168 32.7499 30.2068 33.1566 30.3868 33.4899C30.5734 33.8166 30.8168 34.0633 31.1168 34.2299C31.4234 34.3899 31.7568 34.4699 32.1168 34.4699ZM36.3428 30.5099C36.4961 30.1699 36.7294 29.9066 37.0428 29.7199C37.3628 29.5333 37.7528 29.4399 38.2128 29.4399V30.1699H38.0228C37.5161 30.1699 37.1094 30.3066 36.8028 30.5799C36.4961 30.8533 36.3428 31.3099 36.3428 31.9499V34.9999H35.6428V29.5399H36.3428V30.5099ZM39.1158 28.5099C38.9758 28.5099 38.8558 28.4599 38.7558 28.3599C38.6558 28.2599 38.6058 28.1366 38.6058 27.9899C38.6058 27.8433 38.6558 27.7233 38.7558 27.6299C38.8558 27.5299 38.9758 27.4799 39.1158 27.4799C39.2558 27.4799 39.3758 27.5299 39.4758 27.6299C39.5758 27.7233 39.6258 27.8433 39.6258 27.9899C39.6258 28.1366 39.5758 28.2599 39.4758 28.3599C39.3758 28.4599 39.2558 28.5099 39.1158 28.5099ZM39.4658 29.5399V34.9999H38.7658V29.5399H39.4658ZM45.491 31.9899C45.491 32.2299 45.4843 32.4133 45.471 32.5399H40.941C40.961 32.9533 41.061 33.3066 41.241 33.5999C41.421 33.8933 41.6576 34.1166 41.951 34.2699C42.2443 34.4166 42.5643 34.4899 42.911 34.4899C43.3643 34.4899 43.7443 34.3799 44.051 34.1599C44.3643 33.9399 44.571 33.6433 44.671 33.2699H45.411C45.2776 33.8033 44.991 34.2399 44.551 34.5799C44.1176 34.9133 43.571 35.0799 42.911 35.0799C42.3976 35.0799 41.9376 34.9666 41.531 34.7399C41.1243 34.5066 40.8043 34.1799 40.571 33.7599C40.3443 33.3333 40.231 32.8366 40.231 32.2699C40.231 31.7033 40.3443 31.2066 40.571 30.7799C40.7976 30.3533 41.1143 30.0266 41.521 29.7999C41.9276 29.5733 42.391 29.4599 42.911 29.4599C43.431 29.4599 43.8843 29.5733 44.271 29.7999C44.6643 30.0266 44.9643 30.3333 45.171 30.7199C45.3843 31.0999 45.491 31.5233 45.491 31.9899ZM44.781 31.9699C44.7876 31.5633 44.7043 31.2166 44.531 30.9299C44.3643 30.6433 44.1343 30.4266 43.841 30.2799C43.5476 30.1333 43.2276 30.0599 42.881 30.0599C42.361 30.0599 41.9176 30.2266 41.551 30.5599C41.1843 30.8933 40.981 31.3633 40.941 31.9699H44.781ZM48.1517 35.0799C47.525 35.0799 47.0117 34.9366 46.6117 34.6499C46.2183 34.3566 45.9983 33.9599 45.9517 33.4599H46.6717C46.705 33.7666 46.8483 34.0166 47.1017 34.2099C47.3617 34.3966 47.7083 34.4899 48.1417 34.4899C48.5217 34.4899 48.8183 34.3999 49.0317 34.2199C49.2517 34.0399 49.3617 33.8166 49.3617 33.5499C49.3617 33.3633 49.3017 33.2099 49.1817 33.0899C49.0617 32.9699 48.9083 32.8766 48.7217 32.8099C48.5417 32.7366 48.295 32.6599 47.9817 32.5799C47.575 32.4733 47.245 32.3666 46.9917 32.2599C46.7383 32.1533 46.5217 31.9966 46.3417 31.7899C46.1683 31.5766 46.0817 31.2933 46.0817 30.9399C46.0817 30.6733 46.1617 30.4266 46.3217 30.1999C46.4817 29.9733 46.7083 29.7933 47.0017 29.6599C47.295 29.5266 47.6283 29.4599 48.0017 29.4599C48.5883 29.4599 49.0617 29.6099 49.4217 29.9099C49.7817 30.2033 49.975 30.6099 50.0017 31.1299H49.3017C49.2817 30.8099 49.155 30.5533 48.9217 30.3599C48.695 30.1599 48.3817 30.0599 47.9817 30.0599C47.6283 30.0599 47.3417 30.1433 47.1217 30.3099C46.9017 30.4766 46.7917 30.6833 46.7917 30.9299C46.7917 31.1433 46.855 31.3199 46.9817 31.4599C47.115 31.5933 47.2783 31.6999 47.4717 31.7799C47.665 31.8533 47.925 31.9366 48.2517 32.0299C48.645 32.1366 48.9583 32.2399 49.1917 32.3399C49.425 32.4399 49.625 32.5866 49.7917 32.7799C49.9583 32.9733 50.045 33.2299 50.0517 33.5499C50.0517 33.8433 49.9717 34.1066 49.8117 34.3399C49.6517 34.5666 49.4283 34.7466 49.1417 34.8799C48.855 35.0133 48.525 35.0799 48.1517 35.0799Z" fill="#929292"/>
<defs>
<clipPath id="clip0_488_4230">
<rect width="24" height="24" fill="white" transform="translate(13.5 -6.10352e-05)"/>
</clipPath>
</defs>
</svg>
