<svg width="51" height="36" viewBox="0 0 51 36" fill="none" xmlns="http://www.w3.org/2000/svg">
<path d="M21.5 22C22.0523 22 22.5 21.5523 22.5 21C22.5 20.4477 22.0523 20 21.5 20C20.9477 20 20.5 20.4477 20.5 21C20.5 21.5523 20.9477 22 21.5 22Z" stroke="#929292" stroke-width="1.5" stroke-linecap="round" stroke-linejoin="round"/>
<path d="M32.5 22C33.0523 22 33.5 21.5523 33.5 21C33.5 20.4477 33.0523 20 32.5 20C31.9477 20 31.5 20.4477 31.5 21C31.5 21.5523 31.9477 22 32.5 22Z" stroke="#929292" stroke-width="1.5" stroke-linecap="round" stroke-linejoin="round"/>
<path d="M15.55 2.04999H17.55L20.21 14.47C20.3076 14.9248 20.5607 15.3315 20.9258 15.6198C21.2908 15.9082 21.745 16.0603 22.21 16.05H31.99C32.4452 16.0493 32.8865 15.8933 33.2411 15.6078C33.5956 15.3224 33.8422 14.9245 33.9401 14.48L35.59 7.04999H18.62" stroke="#929292" stroke-width="1.5" stroke-linecap="round" stroke-linejoin="round"/>
<path d="M15.9048 31.5C15.9048 30.8133 16.0548 30.2 16.3548 29.66C16.6548 29.1133 17.0648 28.69 17.5848 28.39C18.1048 28.0833 18.6848 27.93 19.3248 27.93C20.1048 27.93 20.7715 28.1167 21.3248 28.49C21.8848 28.8567 22.2915 29.3767 22.5448 30.05H21.7248C21.5248 29.5767 21.2181 29.2067 20.8048 28.94C20.3981 28.6733 19.9048 28.54 19.3248 28.54C18.8115 28.54 18.3481 28.66 17.9348 28.9C17.5281 29.14 17.2081 29.4867 16.9748 29.94C16.7415 30.3867 16.6248 30.9067 16.6248 31.5C16.6248 32.0933 16.7415 32.6133 16.9748 33.06C17.2081 33.5067 17.5281 33.85 17.9348 34.09C18.3481 34.33 18.8115 34.45 19.3248 34.45C19.9048 34.45 20.3981 34.32 20.8048 34.06C21.2181 33.7933 21.5248 33.4267 21.7248 32.96H22.5448C22.2915 33.6267 21.8848 34.1433 21.3248 34.51C20.7648 34.8767 20.0981 35.06 19.3248 35.06C18.6848 35.06 18.1048 34.91 17.5848 34.61C17.0648 34.3033 16.6548 33.88 16.3548 33.34C16.0548 32.8 15.9048 32.1867 15.9048 31.5ZM23.1196 32.26C23.1196 31.7 23.2296 31.21 23.4496 30.79C23.6763 30.3633 23.9863 30.0367 24.3796 29.81C24.7796 29.5767 25.2296 29.46 25.7296 29.46C26.2496 29.46 26.6963 29.58 27.0696 29.82C27.4496 30.06 27.723 30.3667 27.8896 30.74V29.54H28.5896V35H27.8896V33.79C27.7163 34.1633 27.4396 34.4733 27.0596 34.72C26.6863 34.96 26.2396 35.08 25.7196 35.08C25.2263 35.08 24.7796 34.9633 24.3796 34.73C23.9863 34.4967 23.6763 34.1667 23.4496 33.74C23.2296 33.3133 23.1196 32.82 23.1196 32.26ZM27.8896 32.27C27.8896 31.83 27.7996 31.4433 27.6196 31.11C27.4396 30.7767 27.193 30.52 26.8796 30.34C26.573 30.16 26.233 30.07 25.8596 30.07C25.473 30.07 25.1263 30.1567 24.8196 30.33C24.513 30.5033 24.2696 30.7567 24.0896 31.09C23.9163 31.4167 23.8296 31.8067 23.8296 32.26C23.8296 32.7067 23.9163 33.1 24.0896 33.44C24.2696 33.7733 24.513 34.03 24.8196 34.21C25.1263 34.3833 25.473 34.47 25.8596 34.47C26.233 34.47 26.573 34.38 26.8796 34.2C27.193 34.02 27.4396 33.7633 27.6196 33.43C27.7996 33.0967 27.8896 32.71 27.8896 32.27ZM30.3877 30.51C30.541 30.17 30.7744 29.9067 31.0877 29.72C31.4077 29.5333 31.7977 29.44 32.2577 29.44V30.17H32.0677C31.561 30.17 31.1544 30.3067 30.8477 30.58C30.541 30.8533 30.3877 31.31 30.3877 31.95V35H29.6877V29.54H30.3877V30.51ZM33.7207 30.13V33.52C33.7207 33.8533 33.7841 34.0833 33.9107 34.21C34.0374 34.3367 34.2607 34.4 34.5807 34.4H35.2207V35H34.4707C33.9774 35 33.6107 34.8867 33.3707 34.66C33.1307 34.4267 33.0107 34.0467 33.0107 33.52V30.13H32.2507V29.54H33.0107V28.17H33.7207V29.54H35.2207V30.13H33.7207Z" fill="#929292"/>
</svg>
