<svg width="51" height="36" viewBox="0 0 51 36" fill="none" xmlns="http://www.w3.org/2000/svg">
<g clip-path="url(#clip0_70_515)">
<path d="M25.3286 0.499939C26.7837 0.499939 28.0319 1.01646 29.062 2.04584V2.04681C30.0922 3.0772 30.6099 4.32502 30.6099 5.78021C30.6099 7.23583 30.0927 8.48363 29.063 9.51361C28.0328 10.5438 26.7842 11.0605 25.3286 11.0605C23.8736 11.0604 22.6256 10.5435 21.5952 9.51361C20.5654 8.48366 20.0483 7.23583 20.0483 5.78021C20.0483 4.3249 20.5653 3.07682 21.5952 2.04681C22.6251 1.01691 23.873 0.500026 25.3286 0.499939ZM25.3286 0.906189C23.9775 0.906274 22.8391 1.37827 21.8833 2.33392C20.9272 3.29 20.4546 4.42906 20.4546 5.78021C20.4546 7.13169 20.9272 8.27057 21.8833 9.2265C22.8394 10.1821 23.9777 10.6542 25.3286 10.6542C26.6798 10.6542 27.8188 10.1825 28.7749 9.2265C29.7308 8.27043 30.2036 7.13172 30.2036 5.78021C30.2036 4.42907 29.7308 3.28999 28.7749 2.33392C27.8188 1.37817 26.6798 0.906189 25.3286 0.906189Z" fill="#929292" stroke="#929292"/>
<path d="M35.4435 18.4548C35.4111 17.9871 35.3456 17.477 35.2491 16.9383C35.1517 16.3956 35.0262 15.8825 34.8761 15.4136C34.7208 14.9289 34.5101 14.4503 34.2491 13.9916C33.9787 13.5155 33.6608 13.1009 33.3041 12.7598C32.9312 12.403 32.4745 12.116 31.9464 11.9067C31.4202 11.6985 30.837 11.5931 30.2131 11.5931C29.9681 11.5931 29.7312 11.6936 29.2736 11.9915C28.992 12.1752 28.6626 12.3876 28.2949 12.6225C27.9805 12.8228 27.5546 13.0105 27.0286 13.1804C26.5153 13.3465 25.9942 13.4307 25.4797 13.4307C24.9655 13.4307 24.4444 13.3465 23.9308 13.1804C23.4053 13.0107 22.9792 12.823 22.6653 12.6227C22.3011 12.39 21.9716 12.1776 21.6857 11.9913C21.2285 11.6934 20.9916 11.5929 20.7466 11.5929C20.1226 11.5929 19.5396 11.6985 19.0135 11.9069C18.4858 12.1158 18.0289 12.4028 17.6556 12.76C17.2989 13.1013 16.981 13.5157 16.7108 13.9916C16.4502 14.4503 16.2393 14.9287 16.084 15.4137C15.934 15.8827 15.8086 16.3956 15.7112 16.9383C15.6145 17.4762 15.5491 17.9866 15.5167 18.4553C15.4849 18.9136 15.4688 19.3906 15.4688 19.8725C15.4688 21.1253 15.867 22.1396 16.6523 22.8876C17.428 23.6256 18.4541 23.9999 19.7023 23.9999H31.2585C32.5063 23.9999 33.5325 23.6256 34.3083 22.8876C35.0938 22.1401 35.4921 21.1255 35.4921 19.8724C35.4919 19.3888 35.4756 18.9118 35.4435 18.4548ZM33.3386 21.8686C32.826 22.3564 32.1456 22.5935 31.2583 22.5935H19.7023C18.8148 22.5935 18.1344 22.3564 17.6221 21.8688C17.1194 21.3903 16.8752 20.7372 16.8752 19.8725C16.8752 19.4228 16.89 18.9788 16.9197 18.5525C16.9486 18.1343 17.0078 17.6749 17.0955 17.1868C17.1821 16.7046 17.2923 16.2522 17.4234 15.8426C17.5492 15.4498 17.7208 15.0609 17.9335 14.6863C18.1366 14.3292 18.3702 14.0229 18.6281 13.7761C18.8692 13.5452 19.1732 13.3562 19.5313 13.2145C19.8625 13.0834 20.2348 13.0116 20.6389 13.0008C20.6882 13.027 20.7759 13.077 20.918 13.1696C21.2071 13.358 21.5403 13.573 21.9088 13.8083C22.324 14.0731 22.8591 14.3122 23.4983 14.5185C24.1518 14.7299 24.8183 14.8372 25.4799 14.8372C26.1414 14.8372 26.8081 14.7299 27.4612 14.5187C28.101 14.312 28.6359 14.0731 29.0517 13.8079C29.4287 13.567 29.7526 13.3582 30.0417 13.1696C30.1838 13.0771 30.2715 13.027 30.3208 13.0008C30.7251 13.0116 31.0974 13.0834 31.4288 13.2145C31.7867 13.3562 32.0907 13.5453 32.3318 13.7761C32.5897 14.0227 32.8233 14.329 33.0264 14.6865C33.2393 15.0609 33.4111 15.45 33.5367 15.8424C33.668 16.2526 33.7784 16.7048 33.8648 17.1866C33.9523 17.6756 34.0117 18.1352 34.0406 18.5527V18.5531C34.0704 18.9777 34.0854 19.4216 34.0856 19.8725C34.0854 20.7373 33.8412 21.3903 33.3386 21.8686Z" fill="#929292"/>
</g>
<path d="M11.1371 33.3399H7.95711L7.34711 34.9999H6.60711L9.15711 28.0999H9.94711L12.4871 34.9999H11.7471L11.1371 33.3399ZM10.9271 32.7599L9.54711 28.9799L8.16711 32.7599H10.9271ZM12.7905 32.2699C12.7905 31.7033 12.9039 31.2099 13.1305 30.7899C13.3572 30.3633 13.6705 30.0366 14.0705 29.8099C14.4705 29.5766 14.9272 29.4599 15.4405 29.4599C16.1139 29.4599 16.6672 29.6266 17.1005 29.9599C17.5405 30.2933 17.8239 30.7466 17.9505 31.3199H17.2005C17.1072 30.9266 16.9039 30.6199 16.5905 30.3999C16.2839 30.1733 15.9005 30.0599 15.4405 30.0599C15.0739 30.0599 14.7439 30.1433 14.4505 30.3099C14.1572 30.4766 13.9239 30.7266 13.7505 31.0599C13.5839 31.3866 13.5005 31.7899 13.5005 32.2699C13.5005 32.7499 13.5839 33.1566 13.7505 33.4899C13.9239 33.8233 14.1572 34.0733 14.4505 34.2399C14.7439 34.4066 15.0739 34.4899 15.4405 34.4899C15.9005 34.4899 16.2839 34.3799 16.5905 34.1599C16.9039 33.9333 17.1072 33.6199 17.2005 33.2199H17.9505C17.8239 33.7799 17.5405 34.2299 17.1005 34.5699C16.6605 34.9099 16.1072 35.0799 15.4405 35.0799C14.9272 35.0799 14.4705 34.9666 14.0705 34.7399C13.6705 34.5066 13.3572 34.1799 13.1305 33.7599C12.9039 33.3333 12.7905 32.8366 12.7905 32.2699ZM18.4234 32.2699C18.4234 31.7033 18.5367 31.2099 18.7634 30.7899C18.99 30.3633 19.3034 30.0366 19.7034 29.8099C20.1034 29.5766 20.56 29.4599 21.0734 29.4599C21.7467 29.4599 22.3 29.6266 22.7334 29.9599C23.1734 30.2933 23.4567 30.7466 23.5834 31.3199H22.8334C22.74 30.9266 22.5367 30.6199 22.2234 30.3999C21.9167 30.1733 21.5334 30.0599 21.0734 30.0599C20.7067 30.0599 20.3767 30.1433 20.0834 30.3099C19.79 30.4766 19.5567 30.7266 19.3834 31.0599C19.2167 31.3866 19.1334 31.7899 19.1334 32.2699C19.1334 32.7499 19.2167 33.1566 19.3834 33.4899C19.5567 33.8233 19.79 34.0733 20.0834 34.2399C20.3767 34.4066 20.7067 34.4899 21.0734 34.4899C21.5334 34.4899 21.9167 34.3799 22.2234 34.1599C22.5367 33.9333 22.74 33.6199 22.8334 33.2199H23.5834C23.4567 33.7799 23.1734 34.2299 22.7334 34.5699C22.2934 34.9099 21.74 35.0799 21.0734 35.0799C20.56 35.0799 20.1034 34.9666 19.7034 34.7399C19.3034 34.5066 18.99 34.1799 18.7634 33.7599C18.5367 33.3333 18.4234 32.8366 18.4234 32.2699ZM26.7662 35.0799C26.2528 35.0799 25.7895 34.9666 25.3762 34.7399C24.9695 34.5066 24.6462 34.1799 24.4062 33.7599C24.1728 33.3333 24.0562 32.8366 24.0562 32.2699C24.0562 31.7033 24.1762 31.2099 24.4162 30.7899C24.6562 30.3633 24.9828 30.0366 25.3962 29.8099C25.8095 29.5766 26.2728 29.4599 26.7862 29.4599C27.2995 29.4599 27.7628 29.5766 28.1762 29.8099C28.5962 30.0366 28.9228 30.3633 29.1562 30.7899C29.3962 31.2099 29.5162 31.7033 29.5162 32.2699C29.5162 32.8299 29.3962 33.3233 29.1562 33.7499C28.9162 34.1766 28.5862 34.5066 28.1662 34.7399C27.7462 34.9666 27.2795 35.0799 26.7662 35.0799ZM26.7662 34.4699C27.1262 34.4699 27.4595 34.3899 27.7662 34.2299C28.0728 34.0633 28.3195 33.8166 28.5062 33.4899C28.6995 33.1566 28.7962 32.7499 28.7962 32.2699C28.7962 31.7899 28.7028 31.3866 28.5162 31.0599C28.3295 30.7266 28.0828 30.4799 27.7762 30.3199C27.4695 30.1533 27.1362 30.0699 26.7762 30.0699C26.4162 30.0699 26.0828 30.1533 25.7762 30.3199C25.4695 30.4799 25.2228 30.7266 25.0362 31.0599C24.8562 31.3866 24.7662 31.7899 24.7662 32.2699C24.7662 32.7499 24.8562 33.1566 25.0362 33.4899C25.2228 33.8166 25.4662 34.0633 25.7662 34.2299C26.0728 34.3899 26.4062 34.4699 26.7662 34.4699ZM35.0222 29.5399V34.9999H34.3222V34.0399C34.1622 34.3799 33.9155 34.6399 33.5822 34.8199C33.2489 34.9999 32.8755 35.0899 32.4622 35.0899C31.8089 35.0899 31.2755 34.8899 30.8622 34.4899C30.4489 34.0833 30.2422 33.4966 30.2422 32.7299V29.5399H30.9322V32.6499C30.9322 33.2433 31.0789 33.6966 31.3722 34.0099C31.6722 34.3233 32.0789 34.4799 32.5922 34.4799C33.1189 34.4799 33.5389 34.3133 33.8522 33.9799C34.1655 33.6466 34.3222 33.1566 34.3222 32.5099V29.5399H35.0222ZM38.6803 29.4399C39.3336 29.4399 39.867 29.6433 40.2803 30.0499C40.6936 30.4499 40.9003 31.0333 40.9003 31.7999V34.9999H40.2103V31.8799C40.2103 31.2866 40.0603 30.8333 39.7603 30.5199C39.467 30.2066 39.0636 30.0499 38.5503 30.0499C38.0236 30.0499 37.6036 30.2166 37.2903 30.5499C36.977 30.8833 36.8203 31.3733 36.8203 32.0199V34.9999H36.1203V29.5399H36.8203V30.4699C36.9936 30.1366 37.2436 29.8833 37.5703 29.7099C37.897 29.5299 38.267 29.4399 38.6803 29.4399ZM42.8584 30.1299V33.5199C42.8584 33.8533 42.9218 34.0833 43.0484 34.2099C43.1751 34.3366 43.3984 34.3999 43.7184 34.3999H44.3584V34.9999H43.6084C43.1151 34.9999 42.7484 34.8866 42.5084 34.6599C42.2684 34.4266 42.1484 34.0466 42.1484 33.5199V30.1299H41.3884V29.5399H42.1484V28.1699H42.8584V29.5399H44.3584V30.1299H42.8584Z" fill="#929292"/>
<defs>
<clipPath id="clip0_70_515">
<rect width="24" height="24" fill="white" transform="translate(13.5 -6.10352e-05)"/>
</clipPath>
</defs>
</svg>
