<svg width="155" height="193" viewBox="0 0 155 193" fill="none" xmlns="http://www.w3.org/2000/svg">
<path d="M137.981 183.168C137.981 181.355 138.344 179.765 139.069 178.4C139.816 177.013 140.84 175.947 142.141 175.2C143.442 174.453 144.936 174.08 146.621 174.08C148.754 174.08 150.514 174.592 151.901 175.616C153.309 176.619 154.258 178.059 154.749 179.936H150.813C150.493 179.061 149.981 178.379 149.277 177.888C148.573 177.397 147.688 177.152 146.621 177.152C145.128 177.152 143.933 177.685 143.037 178.752C142.162 179.797 141.725 181.269 141.725 183.168C141.725 185.067 142.162 186.549 143.037 187.616C143.933 188.683 145.128 189.216 146.621 189.216C148.733 189.216 150.13 188.288 150.813 186.432H154.749C154.237 188.224 153.277 189.653 151.869 190.72C150.461 191.765 148.712 192.288 146.621 192.288C144.936 192.288 143.442 191.915 142.141 191.168C140.84 190.4 139.816 189.333 139.069 187.968C138.344 186.581 137.981 184.981 137.981 183.168Z" fill="#FFC603"/>
<path d="M132.615 172.032C131.954 172.032 131.399 171.808 130.951 171.36C130.503 170.912 130.279 170.357 130.279 169.696C130.279 169.035 130.503 168.48 130.951 168.032C131.399 167.584 131.954 167.36 132.615 167.36C133.255 167.36 133.799 167.584 134.247 168.032C134.695 168.48 134.919 169.035 134.919 169.696C134.919 170.357 134.695 170.912 134.247 171.36C133.799 171.808 133.255 172.032 132.615 172.032ZM134.407 174.368V192H130.759V174.368H134.407Z" fill="#FFC603"/>
<path d="M125.969 192H122.321L111.345 175.392V192H107.697V169.728H111.345L122.321 186.304V169.728H125.969V192Z" fill="#FFC603"/>
<path d="M94.9386 192.288C93.2746 192.288 91.7706 191.915 90.4266 191.168C89.0826 190.4 88.0266 189.333 87.2586 187.968C86.4906 186.581 86.1066 184.981 86.1066 183.168C86.1066 181.376 86.5013 179.787 87.2906 178.4C88.08 177.013 89.1573 175.947 90.5226 175.2C91.888 174.453 93.4133 174.08 95.0986 174.08C96.784 174.08 98.3093 174.453 99.6746 175.2C101.04 175.947 102.117 177.013 102.907 178.4C103.696 179.787 104.091 181.376 104.091 183.168C104.091 184.96 103.685 186.549 102.875 187.936C102.064 189.323 100.955 190.4 99.5466 191.168C98.16 191.915 96.624 192.288 94.9386 192.288ZM94.9386 189.12C95.8773 189.12 96.752 188.896 97.5626 188.448C98.3946 188 99.0666 187.328 99.5786 186.432C100.091 185.536 100.347 184.448 100.347 183.168C100.347 181.888 100.101 180.811 99.6106 179.936C99.12 179.04 98.4693 178.368 97.6586 177.92C96.848 177.472 95.9733 177.248 95.0346 177.248C94.096 177.248 93.2213 177.472 92.4106 177.92C91.6213 178.368 90.992 179.04 90.5226 179.936C90.0533 180.811 89.8186 181.888 89.8186 183.168C89.8186 185.067 90.2986 186.539 91.2586 187.584C92.24 188.608 93.4666 189.12 94.9386 189.12Z" fill="#09B782"/>
<path d="M78.6574 176.928C79.1907 176.032 79.8947 175.339 80.7694 174.848C81.6654 174.336 82.7214 174.08 83.9374 174.08V177.856H83.0094C81.58 177.856 80.492 178.219 79.7454 178.944C79.02 179.669 78.6574 180.928 78.6574 182.72V192H75.0094V174.368H78.6574V176.928Z" fill="#09B782"/>
<path d="M67.3591 177.344V187.104C67.3591 187.765 67.5085 188.245 67.8071 188.544C68.1271 188.821 68.6605 188.96 69.4071 188.96H71.6471V192H68.7671C67.1245 192 65.8658 191.616 64.9911 190.848C64.1165 190.08 63.6791 188.832 63.6791 187.104V177.344H61.5991V174.368H63.6791V169.984H67.3591V174.368H71.6471V177.344H67.3591Z" fill="#09B782"/>
<path d="M52.3604 183.2L60.4884 192H55.5604L49.0324 184.416V192H45.3844V168.32H49.0324V182.08L55.4324 174.368H60.4884L52.3604 183.2Z" fill="#09B782"/>
<path d="M41.7944 182.752C41.7944 183.413 41.7517 184.011 41.6664 184.544H28.1944C28.301 185.952 28.8237 187.083 29.7624 187.936C30.701 188.789 31.853 189.216 33.2184 189.216C35.181 189.216 36.5677 188.395 37.3784 186.752H41.3144C40.781 188.373 39.8104 189.707 38.4024 190.752C37.0157 191.776 35.2877 192.288 33.2184 192.288C31.533 192.288 30.0184 191.915 28.6744 191.168C27.3517 190.4 26.3064 189.333 25.5384 187.968C24.7917 186.581 24.4184 184.981 24.4184 183.168C24.4184 181.355 24.781 179.765 25.5064 178.4C26.253 177.013 27.2877 175.947 28.6104 175.2C29.9544 174.453 31.4904 174.08 33.2184 174.08C34.8824 174.08 36.365 174.443 37.6664 175.168C38.9677 175.893 39.981 176.917 40.7064 178.24C41.4317 179.541 41.7944 181.045 41.7944 182.752ZM37.9864 181.6C37.965 180.256 37.485 179.179 36.5464 178.368C35.6077 177.557 34.445 177.152 33.0584 177.152C31.7997 177.152 30.7224 177.557 29.8264 178.368C28.9304 179.157 28.397 180.235 28.2264 181.6H37.9864Z" fill="#09B782"/>
<path d="M20.8449 168.32V192H17.1969V168.32H20.8449Z" fill="#09B782"/>
<path d="M4.06363 172.704V179.232H11.7436V182.208H4.06363V189.024H12.7036V192H0.415627V169.728H12.7036V172.704H4.06363Z" fill="#09B782"/>
<path d="M40.5264 136.101C36.7858 135.386 33.5407 133.086 31.6237 129.795C29.7149 126.516 29.3087 122.579 30.5109 118.983L39.9659 85.0293C32.103 84.3264 25.0889 79.2188 22.2012 71.3725L15.7395 53.7823C15.1506 52.1772 15.975 50.3975 17.5793 49.8042C17.6605 49.7717 17.7458 49.7474 17.8311 49.723C19.3704 49.2923 20.995 50.1212 21.5554 51.6449L28.0131 69.2311C30.186 75.1351 35.673 78.849 41.6676 78.9181L54.9323 31.2876L8.25019 43.1282C4.8792 43.9815 2.65759 47.1956 3.04343 50.6535L14.2977 139.442C14.785 143.802 19.0089 146.731 23.2612 145.65L52.1502 138.32L40.5264 136.093V136.101Z" fill="#FFC603"/>
<path d="M104.064 31.5517L92.7809 29.455L94.8766 18.1671C95.6483 14.0184 99.6325 11.2838 103.775 12.0517L115.058 14.1484L112.962 25.4364C112.19 29.5851 108.206 32.3197 104.064 31.5517Z" fill="url(#paint0_linear_79_6639)"/>
<path d="M131.701 23.4128L120.419 21.3161L122.515 10.0282C123.286 5.87952 127.27 3.14489 131.413 3.91286L142.696 6.00955L140.6 17.2975C139.828 21.4462 135.844 24.1808 131.701 23.4128Z" fill="url(#paint1_linear_79_6639)"/>
<path d="M81.953 13.1976L74.0819 11.7348L75.544 3.86007C76.0192 1.2961 78.4845 -0.398317 81.0473 0.0811573L88.9183 1.54396L87.4562 9.41872C86.981 11.9827 84.5157 13.6771 81.953 13.1976Z" fill="url(#paint2_linear_79_6639)"/>
<path d="M143.549 50.8201C143.654 47.3987 141.258 44.4122 137.899 43.7661L71.4703 31.0357C71.0317 30.9503 70.589 30.9097 70.1544 30.9097C67.2221 30.9097 64.5334 32.7707 63.5627 35.6435L36.1481 120.836C34.7428 124.992 37.3299 129.434 41.6391 130.262L130.918 147.373C131.381 147.463 131.839 147.503 132.29 147.503C136.108 147.503 139.386 144.464 139.503 140.486L143.545 50.8201H143.549Z" fill="#09B782"/>
<path d="M72.7295 49.8774L70.6745 68.5038C69.4845 79.3488 76.6407 89.174 87.3223 91.3641L98.3937 93.6315C98.4831 93.6477 98.5684 93.668 98.6537 93.6843C109.295 95.7241 119.871 89.2024 122.803 78.7352L127.92 60.4746C128.383 58.8289 127.421 57.1183 125.776 56.6551C125.691 56.6307 125.605 56.6104 125.52 56.5941C123.956 56.2934 122.397 57.2402 121.958 58.8005L116.841 77.0611C114.778 84.428 107.382 89.048 99.8477 87.6055C99.7787 87.5933 99.7056 87.5771 99.6365 87.5649L88.5651 85.2976C81.0352 83.7535 75.9909 76.8295 76.8316 69.1864L78.8867 50.5641C79.0654 48.951 77.981 47.4841 76.4092 47.1834C76.3239 47.1672 76.2346 47.155 76.1493 47.1428C74.4475 46.9559 72.9204 48.183 72.7295 49.8815V49.8774Z" fill="#FDFDFD"/>
<defs>
<linearGradient id="paint0_linear_79_6639" x1="92.7809" y1="21.8017" x2="115.058" y2="21.8017" gradientUnits="userSpaceOnUse">
<stop stop-color="#DC554D"/>
<stop offset="1" stop-color="#D32B20"/>
</linearGradient>
<linearGradient id="paint1_linear_79_6639" x1="120.419" y1="13.6628" x2="142.696" y2="13.6628" gradientUnits="userSpaceOnUse">
<stop stop-color="#DC554D"/>
<stop offset="1" stop-color="#D32B20"/>
</linearGradient>
<linearGradient id="paint2_linear_79_6639" x1="74.0819" y1="6.63939" x2="88.9183" y2="6.63939" gradientUnits="userSpaceOnUse">
<stop stop-color="#DC554D"/>
<stop offset="1" stop-color="#D32B20"/>
</linearGradient>
</defs>
</svg>
